<svg width="311" height="132" viewBox="0 0 311 132" fill="none" xmlns="http://www.w3.org/2000/svg">
<g filter="url(#filter0_f_285_267)">
<circle cx="65.0002" cy="63.0002" r="28" fill="#A92684"/>
</g>
<g filter="url(#filter1_f_285_267)">
<ellipse cx="114" cy="54.0002" rx="37" ry="28" fill="#A92684"/>
</g>
<g filter="url(#filter2_f_285_267)">
<ellipse cx="44.0002" cy="89.0002" rx="16" ry="17" fill="#A92684"/>
</g>
<g filter="url(#filter3_f_285_267)">
<ellipse cx="47.0002" cy="86.0002" rx="11" ry="12" fill="#A92684"/>
</g>
<g filter="url(#filter4_f_285_267)">
<ellipse cx="42.0002" cy="43.0002" rx="16" ry="17" fill="#A92684"/>
</g>
<g filter="url(#filter5_f_285_267)">
<ellipse cx="173" cy="68.0002" rx="46" ry="35" fill="#A92684"/>
</g>
<g filter="url(#filter6_f_285_267)">
<circle cx="134.5" cy="71.5002" r="23.5" fill="#A92684"/>
</g>
<g filter="url(#filter7_f_285_267)">
<circle cx="227.5" cy="65.5" r="36.5" fill="#A92684"/>
</g>
<g filter="url(#filter8_f_285_267)">
<ellipse cx="95.0002" cy="81.5002" rx="30" ry="23.5" fill="#A92684"/>
</g>
<g filter="url(#filter9_f_285_267)">
<ellipse cx="101" cy="81.0002" rx="11" ry="12" fill="#A92684"/>
</g>
<g filter="url(#filter10_f_285_267)">
<ellipse cx="81.5002" cy="43.0002" rx="19.5" ry="12" fill="#A92684"/>
</g>
<g filter="url(#filter11_f_285_267)">
<ellipse cx="159" cy="82.5002" rx="14" ry="15.5" fill="#A92684"/>
</g>
<path d="M48.6126 39.5402V54.7652H61.5176V61.0002H40.3476V39.5402H48.6126ZM92.6102 61.0002H84.3452L82.5762 57.7522H71.1212L69.3522 61.0002H61.0872L72.7162 39.5402H80.9812L92.6102 61.0002ZM76.8632 47.1672L73.9632 52.4742H79.7342L76.8632 47.1672ZM95.7811 61.0002L107.932 39.5402L95.7811 61.0002ZM100.073 53.4312L107.932 39.5402H116.197L104.626 61.0002H95.2011L83.9201 39.5402H92.7651L100.073 53.4312ZM128.049 39.0762C130.775 39.0762 133.231 39.5692 135.415 40.5552C137.6 41.5219 139.311 42.8656 140.548 44.5862C141.786 46.2876 142.404 48.2112 142.404 50.3572C142.404 52.4839 141.786 54.3979 140.548 56.0992C139.311 57.8006 137.6 59.1442 135.415 60.1302C133.231 61.0969 130.775 61.5802 128.049 61.5802C125.439 61.5802 123.023 61.0969 120.799 60.1302C118.595 59.1442 116.836 57.8006 115.521 56.0992C114.226 54.3786 113.578 52.4646 113.578 50.3572C113.578 48.2306 114.226 46.3069 115.521 44.5862C116.836 42.8656 118.595 41.5219 120.799 40.5552C123.023 39.5692 125.439 39.0762 128.049 39.0762ZM128.078 55.4322C129.006 55.4322 129.896 55.2292 130.746 54.8232C131.616 54.4172 132.322 53.8276 132.863 53.0542C133.405 52.2809 133.675 51.3819 133.675 50.3572C133.675 49.3132 133.405 48.4142 132.863 47.6602C132.322 46.8869 131.616 46.2972 130.746 45.8912C129.896 45.4852 129.006 45.2822 128.078 45.2822C127.17 45.2822 126.28 45.4852 125.41 45.8912C124.56 46.2972 123.854 46.8869 123.293 47.6602C122.752 48.4142 122.481 49.3132 122.481 50.3572C122.481 51.3819 122.752 52.2809 123.293 53.0542C123.854 53.8276 124.56 54.4172 125.41 54.8232C126.28 55.2292 127.17 55.4322 128.078 55.4322ZM160.164 61.0002L154.219 54.0692H151.406V61.0002H143.576V39.5402H160.28C162.078 39.5402 163.664 39.8399 165.036 40.4392C166.428 41.0386 167.501 41.8796 168.255 42.9622C169.029 44.0256 169.415 45.2629 169.415 46.6742V46.7902C169.415 48.6269 168.874 50.1446 167.791 51.3432C166.728 52.5419 165.249 53.3442 163.354 53.7502L169.589 61.0002H160.164ZM161.788 46.7902C161.788 46.2102 161.653 45.7946 161.382 45.5432C161.131 45.2726 160.783 45.1082 160.338 45.0502C159.913 44.9922 159.256 44.9632 158.366 44.9632H157.438C156.839 44.9826 154.828 44.9922 151.406 44.9922V48.5302H158.337H158.366C159.256 48.5302 159.913 48.5012 160.338 48.4432C160.783 48.3852 161.131 48.2402 161.382 48.0082C161.653 47.7569 161.788 47.3509 161.788 46.7902ZM199.379 61.0002H191.114L189.345 57.7522H177.89L176.121 61.0002H167.856L179.485 39.5402H187.75L199.379 61.0002ZM183.632 47.1672L180.732 52.4742H186.503L183.632 47.1672ZM215.97 61.0002L210.025 54.0692H207.212V61.0002H199.382V39.5402H216.086C217.884 39.5402 219.469 39.8399 220.842 40.4392C222.234 41.0386 223.307 41.8796 224.061 42.9622C224.834 44.0256 225.221 45.2629 225.221 46.6742V46.7902C225.221 48.6269 224.68 50.1446 223.597 51.3432C222.534 52.5419 221.055 53.3442 219.16 53.7502L225.395 61.0002H215.97ZM217.594 46.7902C217.594 46.2102 217.459 45.7946 217.188 45.5432C216.937 45.2726 216.589 45.1082 216.144 45.0502C215.719 44.9922 215.061 44.9632 214.172 44.9632H213.244C212.645 44.9826 210.634 44.9922 207.212 44.9922V48.5302H214.143H214.172C215.061 48.5302 215.719 48.5012 216.144 48.4432C216.589 48.3852 216.937 48.2402 217.188 48.0082C217.459 47.7569 217.594 47.3509 217.594 46.7902ZM247.617 53.0542H234.828V55.2872L250.053 55.2002V61.0002H226.563V39.5402H250.053L250.082 45.3402H234.828V47.3992H247.617V53.0542Z" fill="white"/>
<path d="M37.8448 80.2992C37.8448 78.1532 38.4925 76.2199 39.7878 74.4992C41.1025 72.7786 42.8811 71.4349 45.1238 70.4682C47.3858 69.4822 49.8895 68.9892 52.6348 68.9892C55.2061 68.9892 57.4971 69.3952 59.5078 70.2072C61.5378 70.9999 63.1715 72.1212 64.4088 73.5712C65.6655 75.0019 66.4485 76.6452 66.7578 78.5012H58.1738C57.8065 77.4959 57.0815 76.6936 55.9988 76.0942C54.9355 75.4949 53.8238 75.1952 52.6638 75.1952C51.6391 75.1952 50.6531 75.3982 49.7058 75.8042C48.7778 76.2102 48.0141 76.7999 47.4148 77.5732C46.8348 78.3466 46.5448 79.2552 46.5448 80.2992C46.5448 81.3432 46.8348 82.2519 47.4148 83.0252C48.0141 83.7792 48.7778 84.3592 49.7058 84.7652C50.6531 85.1712 51.6391 85.3742 52.6638 85.3742C53.9398 85.3742 55.0611 85.0939 56.0278 84.5332C56.9945 83.9726 57.7001 83.1702 58.1448 82.1262H66.7288C66.4001 83.9629 65.6171 85.5966 64.3798 87.0272C63.1425 88.4579 61.5088 89.5792 59.4788 90.3912C57.4681 91.1839 55.1868 91.5802 52.6348 91.5802C49.9088 91.5802 47.4148 91.0872 45.1528 90.1012C42.8908 89.1152 41.1025 87.7619 39.7878 86.0412C38.4925 84.3206 37.8448 82.4066 37.8448 80.2992ZM81.8188 69.0762C84.5448 69.0762 87.0001 69.5692 89.1848 70.5552C91.3694 71.5219 93.0804 72.8656 94.3178 74.5862C95.5551 76.2876 96.1738 78.2112 96.1738 80.3572C96.1738 82.4839 95.5551 84.3979 94.3178 86.0992C93.0804 87.8006 91.3694 89.1442 89.1848 90.1302C87.0001 91.0969 84.5448 91.5802 81.8188 91.5802C79.2088 91.5802 76.7921 91.0969 74.5688 90.1302C72.3648 89.1442 70.6054 87.8006 69.2908 86.0992C67.9954 84.3786 67.3478 82.4646 67.3478 80.3572C67.3478 78.2306 67.9954 76.3069 69.2908 74.5862C70.6054 72.8656 72.3648 71.5219 74.5688 70.5552C76.7921 69.5692 79.2088 69.0762 81.8188 69.0762ZM81.8478 85.4322C82.7758 85.4322 83.6651 85.2292 84.5158 84.8232C85.3858 84.4172 86.0914 83.8276 86.6328 83.0542C87.1741 82.2809 87.4448 81.3819 87.4448 80.3572C87.4448 79.3132 87.1741 78.4142 86.6328 77.6602C86.0914 76.8869 85.3858 76.2972 84.5158 75.8912C83.6651 75.4852 82.7758 75.2822 81.8478 75.2822C80.9391 75.2822 80.0498 75.4852 79.1798 75.8912C78.3291 76.2972 77.6234 76.8869 77.0628 77.6602C76.5214 78.4142 76.2508 79.3132 76.2508 80.3572C76.2508 81.3819 76.5214 82.2809 77.0628 83.0542C77.6234 83.8276 78.3291 84.4172 79.1798 84.8232C80.0498 85.2292 80.9391 85.4322 81.8478 85.4322ZM105.611 91.0002H97.3458V69.5402L105.611 91.0002ZM125.766 91.0002H117.501H125.766ZM117.501 81.6332V69.5402H125.766V91.0002H117.501L105.611 78.9072V91.0002H97.3458V69.5402H105.611L117.501 81.6332ZM167.746 69.5402V91.0002H159.481V83.1412L155.653 91.0002H148.258L144.169 83.0542V91.0002H135.904V69.5402H145.184L151.97 83.4312L158.727 69.5402H167.746ZM190.54 83.0542H177.751V85.2872L192.976 85.2002V91.0002H169.486V69.5402H192.976L193.005 75.3402H177.751V77.3992H190.54V83.0542Z" fill="white"/>
<g opacity="0.7" filter="url(#filter12_f_285_267)">
<circle cx="50.5002" cy="61.5002" r="9.5" fill="#A92684"/>
</g>
<g opacity="0.7" filter="url(#filter13_f_285_267)">
<ellipse cx="145.5" cy="37.5002" rx="10.5" ry="7.5" fill="#A92684"/>
</g>
<g filter="url(#filter14_f_285_267)">
<ellipse cx="205" cy="93.5002" rx="12" ry="8.5" fill="#A92684"/>
</g>
<path d="M213.66 80.3411L214.87 80.4983C214.738 81.3323 214.399 81.9862 213.852 82.4602C213.309 82.9296 212.642 83.1643 211.849 83.1643C210.855 83.1643 210.056 82.8407 209.449 82.1936C208.848 81.5419 208.547 80.6099 208.547 79.3977C208.547 78.6139 208.677 77.928 208.937 77.3401C209.197 76.7522 209.591 76.3124 210.119 76.0208C210.653 75.7245 211.231 75.5764 211.856 75.5764C212.644 75.5764 213.289 75.7769 213.79 76.178C214.292 76.5745 214.613 77.1396 214.754 77.8733L213.558 78.0579C213.444 77.5702 213.241 77.2034 212.949 76.9573C212.662 76.7112 212.314 76.5881 211.904 76.5881C211.284 76.5881 210.78 76.8114 210.393 77.2581C210.005 77.7001 209.812 78.4019 209.812 79.3635C209.812 80.3388 209.999 81.0474 210.372 81.4895C210.746 81.9316 211.234 82.1526 211.835 82.1526C212.318 82.1526 212.722 82.0045 213.045 81.7083C213.369 81.412 213.574 80.9563 213.66 80.3411ZM215.325 79.3704C215.325 78.026 215.699 77.0302 216.446 76.3831C217.071 75.8453 217.832 75.5764 218.729 75.5764C219.727 75.5764 220.543 75.9045 221.177 76.5608C221.81 77.2125 222.127 78.1148 222.127 79.2678C222.127 80.2021 221.986 80.9381 221.703 81.4758C221.425 82.009 221.017 82.4237 220.479 82.72C219.946 83.0162 219.363 83.1643 218.729 83.1643C217.713 83.1643 216.891 82.8385 216.262 82.1868C215.637 81.5351 215.325 80.5963 215.325 79.3704ZM216.59 79.3704C216.59 80.3 216.793 80.9973 217.198 81.4622C217.604 81.9224 218.114 82.1526 218.729 82.1526C219.34 82.1526 219.848 81.9202 220.254 81.4553C220.659 80.9905 220.862 80.2818 220.862 79.3293C220.862 78.4316 220.657 77.7525 220.247 77.2922C219.841 76.8274 219.336 76.595 218.729 76.595C218.114 76.595 217.604 76.8251 217.198 77.2854C216.793 77.7457 216.59 78.4407 216.59 79.3704ZM223.436 83.0002V75.7405H224.537V76.759C224.765 76.4036 225.068 76.1187 225.446 75.9045C225.824 75.6858 226.255 75.5764 226.738 75.5764C227.276 75.5764 227.715 75.6881 228.057 75.9114C228.404 76.1347 228.647 76.4469 228.789 76.8479C229.363 76.0002 230.11 75.5764 231.031 75.5764C231.751 75.5764 232.305 75.7769 232.692 76.178C233.079 76.5745 233.273 77.1874 233.273 78.0168V83.0002H232.049V78.427C232.049 77.9348 232.008 77.5816 231.926 77.3674C231.849 77.1487 231.705 76.9732 231.496 76.8411C231.286 76.7089 231.04 76.6428 230.757 76.6428C230.247 76.6428 229.823 76.8137 229.486 77.1555C229.149 77.4928 228.98 78.0351 228.98 78.7825V83.0002H227.75V78.2834C227.75 77.7366 227.649 77.3264 227.449 77.053C227.248 76.7795 226.92 76.6428 226.464 76.6428C226.118 76.6428 225.797 76.734 225.501 76.9163C225.209 77.0986 224.997 77.3652 224.865 77.7161C224.733 78.067 224.667 78.5728 224.667 79.2336V83.0002H223.436ZM239.928 80.6624L241.199 80.8196C240.999 81.5624 240.627 82.1389 240.085 82.5491C239.543 82.9592 238.85 83.1643 238.007 83.1643C236.945 83.1643 236.102 82.8385 235.478 82.1868C234.858 81.5305 234.548 80.6122 234.548 79.4319C234.548 78.2105 234.862 77.2626 235.491 76.5881C236.12 75.9137 236.936 75.5764 237.939 75.5764C238.909 75.5764 239.702 75.9068 240.318 76.5676C240.933 77.2284 241.24 78.1581 241.24 79.3567C241.24 79.4296 241.238 79.539 241.234 79.6848H235.82C235.865 80.4823 236.091 81.093 236.496 81.5168C236.902 81.9407 237.408 82.1526 238.014 82.1526C238.465 82.1526 238.85 82.0341 239.169 81.7971C239.488 81.5601 239.741 81.1819 239.928 80.6624ZM235.888 78.6731H239.942C239.887 78.0624 239.732 77.6044 239.477 77.2991C239.085 76.8251 238.577 76.5881 237.952 76.5881C237.387 76.5881 236.911 76.7773 236.524 77.1555C236.141 77.5338 235.929 78.0396 235.888 78.6731ZM249.054 81.8997L249.232 82.9866C248.886 83.0595 248.576 83.0959 248.302 83.0959C247.856 83.0959 247.509 83.0253 247.263 82.884C247.017 82.7428 246.844 82.5582 246.744 82.3303C246.643 82.0979 246.593 81.6125 246.593 80.8743V76.6975H245.691V75.7405H246.593V73.9426L247.817 73.2043V75.7405H249.054V76.6975H247.817V80.9426C247.817 81.2935 247.837 81.5191 247.878 81.6194C247.924 81.7196 247.995 81.7994 248.09 81.8586C248.191 81.9179 248.332 81.9475 248.514 81.9475C248.651 81.9475 248.831 81.9316 249.054 81.8997ZM255.094 80.6624L256.365 80.8196C256.165 81.5624 255.793 82.1389 255.251 82.5491C254.709 82.9592 254.016 83.1643 253.173 83.1643C252.111 83.1643 251.268 82.8385 250.644 82.1868C250.024 81.5305 249.714 80.6122 249.714 79.4319C249.714 78.2105 250.028 77.2626 250.657 76.5881C251.286 75.9137 252.102 75.5764 253.105 75.5764C254.075 75.5764 254.868 75.9068 255.483 76.5676C256.099 77.2284 256.406 78.1581 256.406 79.3567C256.406 79.4296 256.404 79.539 256.4 79.6848H250.985C251.031 80.4823 251.257 81.093 251.662 81.5168C252.068 81.9407 252.574 82.1526 253.18 82.1526C253.631 82.1526 254.016 82.0341 254.335 81.7971C254.654 81.5601 254.907 81.1819 255.094 80.6624ZM251.054 78.6731H255.108C255.053 78.0624 254.898 77.6044 254.643 77.2991C254.251 76.8251 253.743 76.5881 253.118 76.5881C252.553 76.5881 252.077 76.7773 251.69 77.1555C251.307 77.5338 251.095 78.0396 251.054 78.6731ZM262.514 82.1047C262.059 82.4921 261.619 82.7655 261.195 82.925C260.776 83.0846 260.325 83.1643 259.842 83.1643C259.044 83.1643 258.431 82.9706 258.003 82.5833C257.574 82.1913 257.36 81.6923 257.36 81.0862C257.36 80.7307 257.44 80.4071 257.599 80.1155C257.763 79.8193 257.975 79.5823 258.235 79.4045C258.499 79.2268 258.796 79.0924 259.124 79.0012C259.365 78.9374 259.73 78.8759 260.218 78.8167C261.211 78.6982 261.942 78.5569 262.412 78.3928C262.416 78.2242 262.419 78.1171 262.419 78.0715C262.419 77.5702 262.302 77.217 262.07 77.012C261.756 76.734 261.288 76.595 260.669 76.595C260.09 76.595 259.662 76.6975 259.384 76.9026C259.11 77.1031 258.907 77.4609 258.775 77.9758L257.572 77.8118C257.681 77.2968 257.861 76.8821 258.112 76.5676C258.363 76.2486 258.725 76.0048 259.199 75.8362C259.673 75.663 260.222 75.5764 260.846 75.5764C261.466 75.5764 261.97 75.6493 262.357 75.7952C262.745 75.941 263.029 76.1256 263.212 76.3489C263.394 76.5676 263.522 76.8456 263.594 77.1829C263.635 77.3925 263.656 77.7708 263.656 78.3176V79.9583C263.656 81.1021 263.681 81.8267 263.731 82.1321C263.786 82.4329 263.891 82.7222 264.046 83.0002H262.76C262.633 82.745 262.551 82.4465 262.514 82.1047ZM262.412 79.3567C261.965 79.539 261.295 79.6939 260.402 79.8215C259.896 79.8944 259.538 79.9765 259.329 80.0676C259.119 80.1588 258.957 80.2932 258.843 80.4709C258.73 80.6441 258.673 80.8378 258.673 81.052C258.673 81.3801 258.796 81.6536 259.042 81.8723C259.292 82.0911 259.657 82.2004 260.135 82.2004C260.609 82.2004 261.031 82.0979 261.4 81.8928C261.769 81.6832 262.04 81.3984 262.214 81.0383C262.346 80.7603 262.412 80.3502 262.412 79.8079V79.3567ZM265.43 83.0002V75.7405H266.531V76.759C266.759 76.4036 267.062 76.1187 267.44 75.9045C267.818 75.6858 268.249 75.5764 268.732 75.5764C269.27 75.5764 269.709 75.6881 270.051 75.9114C270.397 76.1347 270.641 76.4469 270.783 76.8479C271.357 76.0002 272.104 75.5764 273.025 75.5764C273.745 75.5764 274.299 75.7769 274.686 76.178C275.073 76.5745 275.267 77.1874 275.267 78.0168V83.0002H274.043V78.427C274.043 77.9348 274.002 77.5816 273.92 77.3674C273.843 77.1487 273.699 76.9732 273.49 76.8411C273.28 76.7089 273.034 76.6428 272.751 76.6428C272.241 76.6428 271.817 76.8137 271.48 77.1555C271.143 77.4928 270.974 78.0351 270.974 78.7825V83.0002H269.744V78.2834C269.744 77.7366 269.643 77.3264 269.443 77.053C269.242 76.7795 268.914 76.6428 268.458 76.6428C268.112 76.6428 267.791 76.734 267.495 76.9163C267.203 77.0986 266.991 77.3652 266.859 77.7161C266.727 78.067 266.661 78.5728 266.661 79.2336V83.0002H265.43ZM285.678 80.6624L286.95 80.8196C286.749 81.5624 286.378 82.1389 285.836 82.5491C285.293 82.9592 284.601 83.1643 283.757 83.1643C282.696 83.1643 281.853 82.8385 281.228 82.1868C280.608 81.5305 280.298 80.6122 280.298 79.4319C280.298 78.2105 280.613 77.2626 281.242 76.5881C281.871 75.9137 282.687 75.5764 283.689 75.5764C284.66 75.5764 285.453 75.9068 286.068 76.5676C286.683 77.2284 286.991 78.1581 286.991 79.3567C286.991 79.4296 286.989 79.539 286.984 79.6848H281.57C281.616 80.4823 281.841 81.093 282.247 81.5168C282.652 81.9407 283.158 82.1526 283.764 82.1526C284.215 82.1526 284.601 82.0341 284.92 81.7971C285.239 81.5601 285.492 81.1819 285.678 80.6624ZM281.638 78.6731H285.692C285.637 78.0624 285.482 77.6044 285.227 77.2991C284.835 76.8251 284.327 76.5881 283.703 76.5881C283.138 76.5881 282.661 76.7773 282.274 77.1555C281.891 77.5338 281.679 78.0396 281.638 78.6731ZM284.475 74.8381H283.484L281.905 72.9241H283.552L284.475 74.8381ZM208.923 97.7825V87.7405H210.044V88.6838C210.309 88.3147 210.607 88.039 210.94 87.8567C211.272 87.6698 211.676 87.5764 212.15 87.5764C212.769 87.5764 213.316 87.7359 213.79 88.0549C214.264 88.3739 214.622 88.8251 214.864 89.4084C215.105 89.9872 215.226 90.623 215.226 91.3157C215.226 92.0585 215.091 92.7284 214.823 93.3254C214.558 93.9179 214.171 94.3736 213.66 94.6926C213.155 95.0071 212.621 95.1643 212.061 95.1643C211.651 95.1643 211.281 95.0777 210.953 94.9045C210.63 94.7314 210.363 94.5126 210.154 94.2483V97.7825H208.923ZM210.037 91.4114C210.037 92.3456 210.226 93.0361 210.605 93.4827C210.983 93.9293 211.441 94.1526 211.979 94.1526C212.526 94.1526 212.993 93.9224 213.38 93.4622C213.772 92.9973 213.968 92.2795 213.968 91.3088C213.968 90.3837 213.777 89.691 213.394 89.2307C213.016 88.7704 212.562 88.5403 212.033 88.5403C211.509 88.5403 211.045 88.7864 210.639 89.2786C210.238 89.7662 210.037 90.4771 210.037 91.4114ZM221.546 92.6624L222.817 92.8196C222.617 93.5624 222.245 94.1389 221.703 94.5491C221.161 94.9592 220.468 95.1643 219.625 95.1643C218.563 95.1643 217.72 94.8385 217.096 94.1868C216.476 93.5305 216.166 92.6122 216.166 91.4319C216.166 90.2105 216.48 89.2626 217.109 88.5881C217.738 87.9137 218.554 87.5764 219.557 87.5764C220.527 87.5764 221.32 87.9068 221.935 88.5676C222.551 89.2284 222.858 90.1581 222.858 91.3567C222.858 91.4296 222.856 91.539 222.851 91.6848H217.437C217.483 92.4823 217.709 93.093 218.114 93.5168C218.52 93.9407 219.026 94.1526 219.632 94.1526C220.083 94.1526 220.468 94.0341 220.787 93.7971C221.106 93.5601 221.359 93.1819 221.546 92.6624ZM217.506 90.6731H221.559C221.505 90.0624 221.35 89.6044 221.095 89.2991C220.703 88.8251 220.195 88.5881 219.57 88.5881C219.005 88.5881 218.529 88.7773 218.141 89.1555C217.759 89.5338 217.547 90.0396 217.506 90.6731ZM224.215 95.0002V87.7405H225.323V88.8411C225.605 88.3261 225.865 87.9866 226.102 87.8225C226.344 87.6584 226.608 87.5764 226.895 87.5764C227.31 87.5764 227.731 87.7086 228.16 87.9729L227.736 89.1145C227.435 88.9368 227.134 88.8479 226.834 88.8479C226.565 88.8479 226.323 88.9299 226.109 89.094C225.895 89.2535 225.742 89.4768 225.651 89.7639C225.514 90.2014 225.446 90.6799 225.446 91.1995V95.0002H224.215ZM235.194 93.8997L235.372 94.9866C235.026 95.0595 234.716 95.0959 234.442 95.0959C233.996 95.0959 233.649 95.0253 233.403 94.884C233.157 94.7428 232.984 94.5582 232.884 94.3303C232.783 94.0979 232.733 93.6125 232.733 92.8743V88.6975H231.831V87.7405H232.733V85.9426L233.957 85.2043V87.7405H235.194V88.6975H233.957V92.9426C233.957 93.2935 233.977 93.5191 234.018 93.6194C234.064 93.7196 234.135 93.7994 234.23 93.8586C234.331 93.9179 234.472 93.9475 234.654 93.9475C234.791 93.9475 234.971 93.9316 235.194 93.8997ZM241.234 92.6624L242.505 92.8196C242.305 93.5624 241.933 94.1389 241.391 94.5491C240.849 94.9592 240.156 95.1643 239.313 95.1643C238.251 95.1643 237.408 94.8385 236.784 94.1868C236.164 93.5305 235.854 92.6122 235.854 91.4319C235.854 90.2105 236.168 89.2626 236.797 88.5881C237.426 87.9137 238.242 87.5764 239.245 87.5764C240.215 87.5764 241.008 87.9068 241.623 88.5676C242.239 89.2284 242.546 90.1581 242.546 91.3567C242.546 91.4296 242.544 91.539 242.54 91.6848H237.125C237.171 92.4823 237.397 93.093 237.802 93.5168C238.208 93.9407 238.714 94.1526 239.32 94.1526C239.771 94.1526 240.156 94.0341 240.475 93.7971C240.794 93.5601 241.047 93.1819 241.234 92.6624ZM237.194 90.6731H241.248C241.193 90.0624 241.038 89.6044 240.783 89.2991C240.391 88.8251 239.883 88.5881 239.258 88.5881C238.693 88.5881 238.217 88.7773 237.83 89.1555C237.447 89.5338 237.235 90.0396 237.194 90.6731ZM247.181 92.8333L248.398 92.6418C248.467 93.1295 248.656 93.5032 248.966 93.7629C249.28 94.0227 249.718 94.1526 250.278 94.1526C250.843 94.1526 251.262 94.0387 251.536 93.8108C251.809 93.5784 251.946 93.3072 251.946 92.9973C251.946 92.7193 251.825 92.5006 251.584 92.3411C251.415 92.2317 250.996 92.0927 250.326 91.9241C249.424 91.6962 248.797 91.5002 248.446 91.3362C248.1 91.1676 247.835 90.9374 247.653 90.6458C247.475 90.3495 247.386 90.0237 247.386 89.6682C247.386 89.3446 247.459 89.0461 247.605 88.7727C247.756 88.4947 247.958 88.2646 248.214 88.0823C248.405 87.941 248.665 87.8225 248.993 87.7268C249.326 87.6265 249.681 87.5764 250.059 87.5764C250.629 87.5764 251.128 87.6584 251.556 87.8225C251.989 87.9866 252.308 88.2099 252.513 88.4924C252.718 88.7704 252.86 89.1441 252.937 89.6135L251.734 89.7776C251.679 89.4039 251.52 89.1122 251.256 88.9026C250.996 88.693 250.627 88.5881 250.148 88.5881C249.583 88.5881 249.18 88.6816 248.938 88.8684C248.697 89.0553 248.576 89.274 248.576 89.5247C248.576 89.6842 248.626 89.8277 248.726 89.9553C248.827 90.0875 248.984 90.1969 249.198 90.2834C249.321 90.329 249.683 90.4338 250.285 90.5979C251.155 90.8303 251.761 91.0217 252.103 91.1721C252.45 91.318 252.721 91.5321 252.917 91.8147C253.113 92.0972 253.211 92.4482 253.211 92.8674C253.211 93.2776 253.09 93.665 252.848 94.0295C252.611 94.3896 252.267 94.6698 251.816 94.8704C251.365 95.0663 250.855 95.1643 250.285 95.1643C249.342 95.1643 248.621 94.9683 248.125 94.5764C247.633 94.1845 247.318 93.6034 247.181 92.8333ZM259.503 92.6624L260.775 92.8196C260.574 93.5624 260.203 94.1389 259.661 94.5491C259.118 94.9592 258.425 95.1643 257.582 95.1643C256.521 95.1643 255.677 94.8385 255.053 94.1868C254.433 93.5305 254.123 92.6122 254.123 91.4319C254.123 90.2105 254.438 89.2626 255.067 88.5881C255.696 87.9137 256.511 87.5764 257.514 87.5764C258.485 87.5764 259.278 87.9068 259.893 88.5676C260.508 89.2284 260.816 90.1581 260.816 91.3567C260.816 91.4296 260.814 91.539 260.809 91.6848H255.395C255.44 92.4823 255.666 93.093 256.072 93.5168C256.477 93.9407 256.983 94.1526 257.589 94.1526C258.04 94.1526 258.425 94.0341 258.745 93.7971C259.064 93.5601 259.316 93.1819 259.503 92.6624ZM255.463 90.6731H259.517C259.462 90.0624 259.307 89.6044 259.052 89.2991C258.66 88.8251 258.152 88.5881 257.528 88.5881C256.963 88.5881 256.486 88.7773 256.099 89.1555C255.716 89.5338 255.504 90.0396 255.463 90.6731ZM265.943 95.0002V84.9788H267.173V88.5745C267.748 87.9091 268.472 87.5764 269.347 87.5764C269.885 87.5764 270.352 87.6835 270.749 87.8977C271.145 88.1073 271.428 88.399 271.596 88.7727C271.77 89.1464 271.856 89.6887 271.856 90.3997V95.0002H270.626V90.3997C270.626 89.7844 270.491 89.3378 270.222 89.0598C269.958 88.7773 269.582 88.636 269.094 88.636C268.73 88.636 268.386 88.7317 268.062 88.9231C267.743 89.1099 267.515 89.3652 267.379 89.6887C267.242 90.0123 267.173 90.4589 267.173 91.0286V95.0002H265.943ZM278.333 94.1047C277.878 94.4921 277.438 94.7655 277.014 94.925C276.595 95.0846 276.144 95.1643 275.66 95.1643C274.863 95.1643 274.25 94.9706 273.822 94.5833C273.393 94.1913 273.179 93.6923 273.179 93.0862C273.179 92.7307 273.259 92.4071 273.418 92.1155C273.582 91.8193 273.794 91.5823 274.054 91.4045C274.318 91.2268 274.615 91.0924 274.943 91.0012C275.184 90.9374 275.549 90.8759 276.036 90.8167C277.03 90.6982 277.761 90.5569 278.231 90.3928C278.235 90.2242 278.238 90.1171 278.238 90.0715C278.238 89.5702 278.121 89.217 277.889 89.012C277.575 88.734 277.107 88.595 276.488 88.595C275.909 88.595 275.48 88.6975 275.202 88.9026C274.929 89.1031 274.726 89.4609 274.594 89.9758L273.391 89.8118C273.5 89.2968 273.68 88.8821 273.931 88.5676C274.182 88.2486 274.544 88.0048 275.018 87.8362C275.492 87.663 276.041 87.5764 276.665 87.5764C277.285 87.5764 277.789 87.6493 278.176 87.7952C278.563 87.941 278.848 88.1256 279.031 88.3489C279.213 88.5676 279.34 88.8456 279.413 89.1829C279.454 89.3925 279.475 89.7708 279.475 90.3176V91.9583C279.475 93.1021 279.5 93.8267 279.55 94.1321C279.605 94.4329 279.71 94.7222 279.865 95.0002H278.579C278.452 94.745 278.37 94.4465 278.333 94.1047ZM278.231 91.3567C277.784 91.539 277.114 91.6939 276.221 91.8215C275.715 91.8944 275.357 91.9765 275.148 92.0676C274.938 92.1588 274.776 92.2932 274.662 92.4709C274.548 92.6441 274.491 92.8378 274.491 93.052C274.491 93.3801 274.615 93.6536 274.861 93.8723C275.111 94.0911 275.476 94.2004 275.954 94.2004C276.428 94.2004 276.85 94.0979 277.219 93.8928C277.588 93.6832 277.859 93.3984 278.033 93.0383C278.165 92.7603 278.231 92.3502 278.231 91.8079V91.3567ZM281.256 86.3938V84.9788H282.486V86.3938H281.256ZM281.256 95.0002V87.7405H282.486V95.0002H281.256ZM287.989 86.3938V84.9788H289.22V86.3938H287.989ZM287.989 95.0002V87.7405H289.22V95.0002H287.989ZM208.431 104.833L209.648 104.642C209.716 105.129 209.905 105.503 210.215 105.763C210.53 106.023 210.967 106.153 211.528 106.153C212.093 106.153 212.512 106.039 212.785 105.811C213.059 105.578 213.196 105.307 213.196 104.997C213.196 104.719 213.075 104.501 212.833 104.341C212.665 104.232 212.245 104.093 211.575 103.924C210.673 103.696 210.046 103.5 209.696 103.336C209.349 103.168 209.085 102.937 208.903 102.646C208.725 102.35 208.636 102.024 208.636 101.668C208.636 101.345 208.709 101.046 208.855 100.773C209.005 100.495 209.208 100.265 209.463 100.082C209.655 99.941 209.914 99.8225 210.242 99.7268C210.575 99.6265 210.931 99.5764 211.309 99.5764C211.878 99.5764 212.378 99.6584 212.806 99.8225C213.239 99.9866 213.558 100.21 213.763 100.492C213.968 100.77 214.109 101.144 214.187 101.614L212.984 101.778C212.929 101.404 212.769 101.112 212.505 100.903C212.245 100.693 211.876 100.588 211.398 100.588C210.833 100.588 210.429 100.682 210.188 100.868C209.946 101.055 209.825 101.274 209.825 101.525C209.825 101.684 209.876 101.828 209.976 101.955C210.076 102.087 210.233 102.197 210.448 102.283C210.571 102.329 210.933 102.434 211.534 102.598C212.405 102.83 213.011 103.022 213.353 103.172C213.699 103.318 213.97 103.532 214.166 103.815C214.362 104.097 214.46 104.448 214.46 104.867C214.46 105.278 214.339 105.665 214.098 106.03C213.861 106.39 213.517 106.67 213.066 106.87C212.615 107.066 212.104 107.164 211.534 107.164C210.591 107.164 209.871 106.968 209.374 106.576C208.882 106.184 208.568 105.603 208.431 104.833ZM220.753 104.662L222.024 104.82C221.824 105.562 221.452 106.139 220.91 106.549C220.368 106.959 219.675 107.164 218.832 107.164C217.77 107.164 216.927 106.838 216.303 106.187C215.683 105.531 215.373 104.612 215.373 103.432C215.373 102.211 215.687 101.263 216.316 100.588C216.945 99.9137 217.761 99.5764 218.764 99.5764C219.734 99.5764 220.527 99.9068 221.142 100.568C221.758 101.228 222.065 102.158 222.065 103.357C222.065 103.43 222.063 103.539 222.058 103.685H216.644C216.69 104.482 216.916 105.093 217.321 105.517C217.727 105.941 218.233 106.153 218.839 106.153C219.29 106.153 219.675 106.034 219.994 105.797C220.313 105.56 220.566 105.182 220.753 104.662ZM216.713 102.673H220.766C220.712 102.062 220.557 101.604 220.302 101.299C219.91 100.825 219.402 100.588 218.777 100.588C218.212 100.588 217.736 100.777 217.349 101.156C216.966 101.534 216.754 102.04 216.713 102.673ZM223.21 107.602L224.407 107.78C224.457 108.149 224.596 108.418 224.824 108.586C225.129 108.814 225.546 108.928 226.075 108.928C226.644 108.928 227.084 108.814 227.394 108.586C227.704 108.358 227.914 108.039 228.023 107.629C228.087 107.378 228.116 106.852 228.112 106.05C227.574 106.684 226.904 107 226.102 107C225.104 107 224.332 106.64 223.785 105.92C223.238 105.2 222.964 104.337 222.964 103.329C222.964 102.637 223.09 101.999 223.34 101.415C223.591 100.827 223.953 100.374 224.427 100.055C224.906 99.7359 225.466 99.5764 226.109 99.5764C226.966 99.5764 227.672 99.9228 228.228 100.615V99.7405H229.363V106.016C229.363 107.146 229.247 107.946 229.014 108.415C228.786 108.889 228.422 109.263 227.92 109.536C227.424 109.81 226.811 109.947 226.082 109.947C225.216 109.947 224.516 109.751 223.983 109.359C223.45 108.971 223.192 108.386 223.21 107.602ZM224.229 103.24C224.229 104.193 224.418 104.888 224.796 105.325C225.175 105.763 225.649 105.982 226.218 105.982C226.783 105.982 227.257 105.765 227.64 105.332C228.023 104.895 228.214 104.211 228.214 103.281C228.214 102.393 228.016 101.723 227.62 101.272C227.228 100.821 226.754 100.595 226.198 100.595C225.651 100.595 225.186 100.818 224.803 101.265C224.42 101.707 224.229 102.365 224.229 103.24ZM235.847 107V105.934C235.282 106.754 234.514 107.164 233.543 107.164C233.115 107.164 232.714 107.082 232.34 106.918C231.971 106.754 231.695 106.549 231.513 106.303C231.335 106.052 231.21 105.747 231.137 105.387C231.087 105.145 231.062 104.763 231.062 104.239V99.7405H232.292V103.767C232.292 104.409 232.317 104.842 232.367 105.066C232.445 105.389 232.609 105.644 232.86 105.831C233.11 106.014 233.42 106.105 233.789 106.105C234.158 106.105 234.505 106.011 234.828 105.824C235.152 105.633 235.38 105.376 235.512 105.052C235.649 104.724 235.717 104.25 235.717 103.63V99.7405H236.947V107H235.847ZM243.712 104.662L244.983 104.82C244.783 105.562 244.411 106.139 243.869 106.549C243.327 106.959 242.634 107.164 241.791 107.164C240.729 107.164 239.886 106.838 239.262 106.187C238.642 105.531 238.332 104.612 238.332 103.432C238.332 102.211 238.646 101.263 239.275 100.588C239.904 99.9137 240.72 99.5764 241.722 99.5764C242.693 99.5764 243.486 99.9068 244.101 100.568C244.717 101.228 245.024 102.158 245.024 103.357C245.024 103.43 245.022 103.539 245.017 103.685H239.603C239.649 104.482 239.874 105.093 240.28 105.517C240.686 105.941 241.192 106.153 241.798 106.153C242.249 106.153 242.634 106.034 242.953 105.797C243.272 105.56 243.525 105.182 243.712 104.662ZM239.672 102.673H243.725C243.671 102.062 243.516 101.604 243.261 101.299C242.869 100.825 242.36 100.588 241.736 100.588C241.171 100.588 240.695 100.777 240.307 101.156C239.925 101.534 239.713 102.04 239.672 102.673ZM246.395 107V99.7405H247.502V100.773C248.036 99.9752 248.806 99.5764 249.813 99.5764C250.25 99.5764 250.651 99.6562 251.016 99.8157C251.385 99.9706 251.661 100.176 251.843 100.431C252.026 100.686 252.153 100.989 252.226 101.34C252.272 101.568 252.294 101.967 252.294 102.536V107H251.064V102.584C251.064 102.083 251.016 101.709 250.92 101.463C250.825 101.212 250.654 101.014 250.408 100.868C250.166 100.718 249.881 100.643 249.553 100.643C249.029 100.643 248.576 100.809 248.193 101.142C247.815 101.475 247.625 102.106 247.625 103.035V107H246.395ZM256.734 105.9L256.912 106.987C256.566 107.059 256.256 107.096 255.983 107.096C255.536 107.096 255.19 107.025 254.943 106.884C254.697 106.743 254.524 106.558 254.424 106.33C254.324 106.098 254.274 105.613 254.274 104.874V100.698H253.371V99.7405H254.274V97.9426L255.497 97.2043V99.7405H256.734V100.698H255.497V104.943C255.497 105.294 255.518 105.519 255.559 105.619C255.604 105.72 255.675 105.799 255.771 105.859C255.871 105.918 256.012 105.948 256.194 105.948C256.331 105.948 256.511 105.932 256.734 105.9ZM257.811 98.3938V96.9788H259.042V98.3938H257.811ZM257.811 107V99.7405H259.042V107H257.811ZM264.08 103.37C264.08 102.026 264.454 101.03 265.201 100.383C265.826 99.8453 266.587 99.5764 267.484 99.5764C268.482 99.5764 269.298 99.9045 269.932 100.561C270.565 101.212 270.882 102.115 270.882 103.268C270.882 104.202 270.741 104.938 270.458 105.476C270.18 106.009 269.772 106.424 269.234 106.72C268.701 107.016 268.118 107.164 267.484 107.164C266.468 107.164 265.646 106.838 265.017 106.187C264.392 105.535 264.08 104.596 264.08 103.37ZM265.345 103.37C265.345 104.3 265.548 104.997 265.953 105.462C266.359 105.922 266.869 106.153 267.484 106.153C268.095 106.153 268.603 105.92 269.009 105.455C269.414 104.99 269.617 104.282 269.617 103.329C269.617 102.432 269.412 101.753 269.002 101.292C268.596 100.827 268.091 100.595 267.484 100.595C266.869 100.595 266.359 100.825 265.953 101.285C265.548 101.746 265.345 102.441 265.345 103.37ZM273.326 107H272.184V96.9788H273.415V100.554C273.934 99.9023 274.597 99.5764 275.404 99.5764C275.851 99.5764 276.272 99.6676 276.669 99.8499C277.07 100.028 277.398 100.281 277.653 100.609C277.913 100.932 278.116 101.324 278.261 101.784C278.407 102.245 278.48 102.737 278.48 103.261C278.48 104.505 278.173 105.467 277.557 106.146C276.942 106.825 276.204 107.164 275.342 107.164C274.486 107.164 273.813 106.807 273.326 106.091V107ZM273.312 103.316C273.312 104.186 273.431 104.815 273.668 105.202C274.055 105.836 274.579 106.153 275.24 106.153C275.778 106.153 276.242 105.92 276.634 105.455C277.026 104.986 277.222 104.289 277.222 103.364C277.222 102.416 277.033 101.716 276.655 101.265C276.281 100.814 275.828 100.588 275.295 100.588C274.757 100.588 274.292 100.823 273.9 101.292C273.508 101.757 273.312 102.432 273.312 103.316ZM279.851 98.3938V96.9788H281.081V98.3938H279.851ZM279.851 107V99.7405H281.081V107H279.851ZM287.791 104.662L289.062 104.82C288.862 105.562 288.49 106.139 287.948 106.549C287.406 106.959 286.713 107.164 285.87 107.164C284.808 107.164 283.965 106.838 283.341 106.187C282.721 105.531 282.411 104.612 282.411 103.432C282.411 102.211 282.726 101.263 283.354 100.588C283.983 99.9137 284.799 99.5764 285.802 99.5764C286.772 99.5764 287.565 99.9068 288.181 100.568C288.796 101.228 289.103 102.158 289.103 103.357C289.103 103.43 289.101 103.539 289.097 103.685H283.683C283.728 104.482 283.954 105.093 284.359 105.517C284.765 105.941 285.271 106.153 285.877 106.153C286.328 106.153 286.713 106.034 287.032 105.797C287.351 105.56 287.604 105.182 287.791 104.662ZM283.751 102.673H287.805C287.75 102.062 287.595 101.604 287.34 101.299C286.948 100.825 286.44 100.588 285.815 100.588C285.25 100.588 284.774 100.777 284.387 101.156C284.004 101.534 283.792 102.04 283.751 102.673ZM293.161 105.9L293.338 106.987C292.992 107.059 292.682 107.096 292.409 107.096C291.962 107.096 291.616 107.025 291.37 106.884C291.124 106.743 290.95 106.558 290.85 106.33C290.75 106.098 290.7 105.613 290.7 104.874V100.698H289.797V99.7405H290.7V97.9426L291.923 97.2043V99.7405H293.161V100.698H291.923V104.943C291.923 105.294 291.944 105.519 291.985 105.619C292.031 105.72 292.101 105.799 292.197 105.859C292.297 105.918 292.438 105.948 292.621 105.948C292.757 105.948 292.937 105.932 293.161 105.9ZM296.917 105.9L297.095 106.987C296.749 107.059 296.439 107.096 296.165 107.096C295.719 107.096 295.372 107.025 295.126 106.884C294.88 106.743 294.707 106.558 294.607 106.33C294.506 106.098 294.456 105.613 294.456 104.874V100.698H293.554V99.7405H294.456V97.9426L295.68 97.2043V99.7405H296.917V100.698H295.68V104.943C295.68 105.294 295.7 105.519 295.741 105.619C295.787 105.72 295.858 105.799 295.953 105.859C296.054 105.918 296.195 105.948 296.377 105.948C296.514 105.948 296.694 105.932 296.917 105.9ZM297.994 98.3938V96.9788H299.224V98.3938H297.994ZM297.994 107V99.7405H299.224V107H297.994ZM302.981 107L300.219 99.7405H301.518L303.077 104.088C303.245 104.558 303.4 105.045 303.541 105.551C303.651 105.168 303.804 104.708 304 104.17L305.613 99.7405H306.877L304.129 107H302.981ZM307.831 98.3938V96.9788H309.062V98.3938H307.831ZM307.831 107V99.7405H309.062V107H307.831Z" fill="white"/>
<rect x="201" y="74" width="1" height="34" fill="white"/>
<defs>
<filter id="filter0_f_285_267" x="11.5002" y="9.50024" width="107" height="107" filterUnits="userSpaceOnUse" color-interpolation-filters="sRGB">
<feFlood flood-opacity="0" result="BackgroundImageFix"/>
<feBlend mode="normal" in="SourceGraphic" in2="BackgroundImageFix" result="shape"/>
<feGaussianBlur stdDeviation="12.75" result="effect1_foregroundBlur_285_267"/>
</filter>
<filter id="filter1_f_285_267" x="51.5002" y="0.500244" width="125" height="107" filterUnits="userSpaceOnUse" color-interpolation-filters="sRGB">
<feFlood flood-opacity="0" result="BackgroundImageFix"/>
<feBlend mode="normal" in="SourceGraphic" in2="BackgroundImageFix" result="shape"/>
<feGaussianBlur stdDeviation="12.75" result="effect1_foregroundBlur_285_267"/>
</filter>
<filter id="filter2_f_285_267" x="2.50024" y="46.5002" width="83" height="85" filterUnits="userSpaceOnUse" color-interpolation-filters="sRGB">
<feFlood flood-opacity="0" result="BackgroundImageFix"/>
<feBlend mode="normal" in="SourceGraphic" in2="BackgroundImageFix" result="shape"/>
<feGaussianBlur stdDeviation="12.75" result="effect1_foregroundBlur_285_267"/>
</filter>
<filter id="filter3_f_285_267" x="28.4002" y="66.4002" width="37.2" height="39.2" filterUnits="userSpaceOnUse" color-interpolation-filters="sRGB">
<feFlood flood-opacity="0" result="BackgroundImageFix"/>
<feBlend mode="normal" in="SourceGraphic" in2="BackgroundImageFix" result="shape"/>
<feGaussianBlur stdDeviation="3.8" result="effect1_foregroundBlur_285_267"/>
</filter>
<filter id="filter4_f_285_267" x="0.500244" y="0.500244" width="83" height="85" filterUnits="userSpaceOnUse" color-interpolation-filters="sRGB">
<feFlood flood-opacity="0" result="BackgroundImageFix"/>
<feBlend mode="normal" in="SourceGraphic" in2="BackgroundImageFix" result="shape"/>
<feGaussianBlur stdDeviation="12.75" result="effect1_foregroundBlur_285_267"/>
</filter>
<filter id="filter5_f_285_267" x="101.5" y="7.50024" width="143" height="121" filterUnits="userSpaceOnUse" color-interpolation-filters="sRGB">
<feFlood flood-opacity="0" result="BackgroundImageFix"/>
<feBlend mode="normal" in="SourceGraphic" in2="BackgroundImageFix" result="shape"/>
<feGaussianBlur stdDeviation="12.75" result="effect1_foregroundBlur_285_267"/>
</filter>
<filter id="filter6_f_285_267" x="95.2002" y="32.2002" width="78.6" height="78.6" filterUnits="userSpaceOnUse" color-interpolation-filters="sRGB">
<feFlood flood-opacity="0" result="BackgroundImageFix"/>
<feBlend mode="normal" in="SourceGraphic" in2="BackgroundImageFix" result="shape"/>
<feGaussianBlur stdDeviation="7.9" result="effect1_foregroundBlur_285_267"/>
</filter>
<filter id="filter7_f_285_267" x="175.2" y="13.2" width="104.6" height="104.6" filterUnits="userSpaceOnUse" color-interpolation-filters="sRGB">
<feFlood flood-opacity="0" result="BackgroundImageFix"/>
<feBlend mode="normal" in="SourceGraphic" in2="BackgroundImageFix" result="shape"/>
<feGaussianBlur stdDeviation="7.9" result="effect1_foregroundBlur_285_267"/>
</filter>
<filter id="filter8_f_285_267" x="39.5002" y="32.5002" width="111" height="98" filterUnits="userSpaceOnUse" color-interpolation-filters="sRGB">
<feFlood flood-opacity="0" result="BackgroundImageFix"/>
<feBlend mode="normal" in="SourceGraphic" in2="BackgroundImageFix" result="shape"/>
<feGaussianBlur stdDeviation="12.75" result="effect1_foregroundBlur_285_267"/>
</filter>
<filter id="filter9_f_285_267" x="82.4002" y="61.4002" width="37.2" height="39.2" filterUnits="userSpaceOnUse" color-interpolation-filters="sRGB">
<feFlood flood-opacity="0" result="BackgroundImageFix"/>
<feBlend mode="normal" in="SourceGraphic" in2="BackgroundImageFix" result="shape"/>
<feGaussianBlur stdDeviation="3.8" result="effect1_foregroundBlur_285_267"/>
</filter>
<filter id="filter10_f_285_267" x="54.4002" y="23.4002" width="54.2" height="39.2" filterUnits="userSpaceOnUse" color-interpolation-filters="sRGB">
<feFlood flood-opacity="0" result="BackgroundImageFix"/>
<feBlend mode="normal" in="SourceGraphic" in2="BackgroundImageFix" result="shape"/>
<feGaussianBlur stdDeviation="3.8" result="effect1_foregroundBlur_285_267"/>
</filter>
<filter id="filter11_f_285_267" x="137.4" y="59.4002" width="43.2" height="46.2" filterUnits="userSpaceOnUse" color-interpolation-filters="sRGB">
<feFlood flood-opacity="0" result="BackgroundImageFix"/>
<feBlend mode="normal" in="SourceGraphic" in2="BackgroundImageFix" result="shape"/>
<feGaussianBlur stdDeviation="3.8" result="effect1_foregroundBlur_285_267"/>
</filter>
<filter id="filter12_f_285_267" x="27.3002" y="38.3002" width="46.4" height="46.4" filterUnits="userSpaceOnUse" color-interpolation-filters="sRGB">
<feFlood flood-opacity="0" result="BackgroundImageFix"/>
<feBlend mode="normal" in="SourceGraphic" in2="BackgroundImageFix" result="shape"/>
<feGaussianBlur stdDeviation="6.85" result="effect1_foregroundBlur_285_267"/>
</filter>
<filter id="filter13_f_285_267" x="121.3" y="16.3002" width="48.4" height="42.4" filterUnits="userSpaceOnUse" color-interpolation-filters="sRGB">
<feFlood flood-opacity="0" result="BackgroundImageFix"/>
<feBlend mode="normal" in="SourceGraphic" in2="BackgroundImageFix" result="shape"/>
<feGaussianBlur stdDeviation="6.85" result="effect1_foregroundBlur_285_267"/>
</filter>
<filter id="filter14_f_285_267" x="179.3" y="71.3002" width="51.4" height="44.4" filterUnits="userSpaceOnUse" color-interpolation-filters="sRGB">
<feFlood flood-opacity="0" result="BackgroundImageFix"/>
<feBlend mode="normal" in="SourceGraphic" in2="BackgroundImageFix" result="shape"/>
<feGaussianBlur stdDeviation="6.85" result="effect1_foregroundBlur_285_267"/>
</filter>
</defs>
</svg>
