<svg width="289" height="186" viewBox="0 0 289 186" fill="none" xmlns="http://www.w3.org/2000/svg">
<g filter="url(#filter0_f_285_123)">
<circle cx="61.5" cy="61.5" r="32.5" fill="#A92684"/>
</g>
<g filter="url(#filter1_f_285_123)">
<ellipse cx="118.5" cy="124" rx="27.5" ry="26" fill="#A92684"/>
</g>
<g filter="url(#filter2_f_285_123)">
<ellipse cx="50.5" cy="119" rx="15.5" ry="15" fill="#A92684"/>
</g>
<g filter="url(#filter3_f_285_123)">
<ellipse cx="153.5" cy="98" rx="32.5" ry="31" fill="#B73492"/>
</g>
<g filter="url(#filter4_f_285_123)">
<ellipse cx="153.5" cy="98" rx="32.5" ry="31" fill="#B73492"/>
</g>
<g filter="url(#filter5_f_285_123)">
<ellipse cx="213" cy="63.5" rx="36" ry="34.5" fill="#A92684"/>
</g>
<g filter="url(#filter6_f_285_123)">
<ellipse cx="203" cy="111" rx="57" ry="31" fill="#A92684"/>
</g>
<g filter="url(#filter7_f_285_123)">
<circle cx="81.5" cy="96.5" r="32.5" fill="#A92684"/>
</g>
<g filter="url(#filter8_f_285_123)">
<ellipse cx="131" cy="74.5" rx="46" ry="32.5" fill="#A92684"/>
</g>
<g filter="url(#filter9_f_285_123)">
<circle cx="92.5" cy="102.5" r="19.5" fill="#A92684"/>
</g>
<g filter="url(#filter10_f_285_123)">
<circle cx="181.5" cy="66.5" r="14.5" fill="#A92684"/>
</g>
<g filter="url(#filter11_f_285_123)">
<circle cx="149.5" cy="109.5" r="11.5" fill="#A92684"/>
</g>
<path d="M38.9297 128.394V126.979H40.1602V128.394H38.9297ZM38.9297 137V129.74H40.1602V137H38.9297ZM42.0127 137V126.979H43.2432V137H42.0127ZM50.1885 137H49.0469V126.979H50.2773V130.554C50.7969 129.902 51.46 129.576 52.2666 129.576C52.7132 129.576 53.1348 129.667 53.5312 129.85C53.9323 130.027 54.2604 130.28 54.5156 130.608C54.7754 130.932 54.9782 131.324 55.124 131.784C55.2699 132.244 55.3428 132.737 55.3428 133.261C55.3428 134.505 55.0352 135.466 54.4199 136.146C53.8047 136.825 53.0664 137.164 52.2051 137.164C51.3483 137.164 50.6761 136.806 50.1885 136.091V137ZM50.1748 133.315C50.1748 134.186 50.2933 134.815 50.5303 135.202C50.9176 135.836 51.4417 136.152 52.1025 136.152C52.6403 136.152 53.1051 135.92 53.4971 135.455C53.889 134.986 54.085 134.288 54.085 133.363C54.085 132.415 53.8958 131.716 53.5176 131.265C53.1439 130.813 52.6904 130.588 52.1572 130.588C51.6195 130.588 51.1546 130.823 50.7627 131.292C50.3708 131.757 50.1748 132.431 50.1748 133.315ZM61.6045 137V135.934C61.0394 136.754 60.2715 137.164 59.3008 137.164C58.8724 137.164 58.4714 137.082 58.0977 136.918C57.7285 136.754 57.4528 136.549 57.2705 136.303C57.0928 136.052 56.9674 135.747 56.8945 135.387C56.8444 135.145 56.8193 134.762 56.8193 134.238V129.74H58.0498V133.767C58.0498 134.409 58.0749 134.842 58.125 135.065C58.2025 135.389 58.3665 135.644 58.6172 135.831C58.8678 136.013 59.1777 136.104 59.5469 136.104C59.916 136.104 60.2624 136.011 60.5859 135.824C60.9095 135.633 61.1374 135.375 61.2695 135.052C61.4062 134.724 61.4746 134.25 61.4746 133.63V129.74H62.7051V137H61.6045ZM64.1475 134.833L65.3643 134.642C65.4326 135.129 65.6217 135.503 65.9316 135.763C66.2461 136.022 66.6836 136.152 67.2441 136.152C67.8092 136.152 68.2285 136.038 68.502 135.811C68.7754 135.578 68.9121 135.307 68.9121 134.997C68.9121 134.719 68.7913 134.5 68.5498 134.341C68.3812 134.231 67.9619 134.092 67.292 133.924C66.3896 133.696 65.763 133.5 65.4121 133.336C65.0658 133.167 64.8014 132.937 64.6191 132.646C64.4414 132.349 64.3525 132.023 64.3525 131.668C64.3525 131.344 64.4255 131.046 64.5713 130.772C64.7217 130.494 64.9245 130.264 65.1797 130.082C65.3711 129.941 65.6309 129.822 65.959 129.727C66.2917 129.626 66.6471 129.576 67.0254 129.576C67.5951 129.576 68.0941 129.658 68.5225 129.822C68.9554 129.986 69.2744 130.21 69.4795 130.492C69.6846 130.77 69.8258 131.144 69.9033 131.613L68.7002 131.777C68.6455 131.404 68.486 131.112 68.2217 130.902C67.9619 130.693 67.5928 130.588 67.1143 130.588C66.5492 130.588 66.1458 130.681 65.9043 130.868C65.6628 131.055 65.542 131.274 65.542 131.524C65.542 131.684 65.5921 131.827 65.6924 131.955C65.7926 132.087 65.9499 132.197 66.1641 132.283C66.2871 132.329 66.6494 132.434 67.251 132.598C68.1214 132.83 68.7275 133.021 69.0693 133.172C69.4157 133.318 69.6868 133.532 69.8828 133.814C70.0788 134.097 70.1768 134.448 70.1768 134.867C70.1768 135.277 70.056 135.665 69.8145 136.029C69.5775 136.389 69.2334 136.67 68.7822 136.87C68.3311 137.066 67.8206 137.164 67.251 137.164C66.3076 137.164 65.5876 136.968 65.0908 136.576C64.5986 136.184 64.2842 135.603 64.1475 134.833ZM71.6465 128.394V126.979H72.877V128.394H71.6465ZM71.6465 137V129.74H72.877V137H71.6465ZM74.7568 137V129.74H75.8643V130.772C76.3975 129.975 77.1676 129.576 78.1748 129.576C78.6123 129.576 79.0133 129.656 79.3779 129.815C79.7471 129.97 80.0228 130.175 80.2051 130.431C80.3874 130.686 80.515 130.989 80.5879 131.34C80.6335 131.568 80.6562 131.966 80.6562 132.536V137H79.4258V132.584C79.4258 132.083 79.3779 131.709 79.2822 131.463C79.1865 131.212 79.0156 131.014 78.7695 130.868C78.528 130.718 78.2432 130.643 77.915 130.643C77.391 130.643 76.9375 130.809 76.5547 131.142C76.1764 131.474 75.9873 132.105 75.9873 133.035V137H74.7568ZM87.5195 134.662L88.791 134.819C88.5905 135.562 88.2191 136.139 87.6768 136.549C87.1344 136.959 86.4417 137.164 85.5986 137.164C84.5368 137.164 83.6937 136.838 83.0693 136.187C82.4495 135.53 82.1396 134.612 82.1396 133.432C82.1396 132.21 82.4541 131.262 83.083 130.588C83.7119 129.913 84.5277 129.576 85.5303 129.576C86.501 129.576 87.2939 129.907 87.9092 130.567C88.5244 131.228 88.832 132.158 88.832 133.356C88.832 133.429 88.8298 133.539 88.8252 133.685H83.4111C83.4567 134.482 83.6823 135.093 84.0879 135.517C84.4935 135.94 84.9993 136.152 85.6055 136.152C86.0566 136.152 86.4417 136.034 86.7607 135.797C87.0798 135.56 87.3327 135.182 87.5195 134.662ZM83.4795 132.673H87.5332C87.4785 132.062 87.3236 131.604 87.0684 131.299C86.6764 130.825 86.1683 130.588 85.5439 130.588C84.9788 130.588 84.5026 130.777 84.1152 131.155C83.7324 131.534 83.5205 132.039 83.4795 132.673ZM89.8506 134.833L91.0674 134.642C91.1357 135.129 91.3249 135.503 91.6348 135.763C91.9492 136.022 92.3867 136.152 92.9473 136.152C93.5124 136.152 93.9316 136.038 94.2051 135.811C94.4785 135.578 94.6152 135.307 94.6152 134.997C94.6152 134.719 94.4945 134.5 94.2529 134.341C94.0843 134.231 93.665 134.092 92.9951 133.924C92.0928 133.696 91.4661 133.5 91.1152 133.336C90.7689 133.167 90.5046 132.937 90.3223 132.646C90.1445 132.349 90.0557 132.023 90.0557 131.668C90.0557 131.344 90.1286 131.046 90.2744 130.772C90.4248 130.494 90.6276 130.264 90.8828 130.082C91.0742 129.941 91.334 129.822 91.6621 129.727C91.9948 129.626 92.3503 129.576 92.7285 129.576C93.2982 129.576 93.7972 129.658 94.2256 129.822C94.6585 129.986 94.9775 130.21 95.1826 130.492C95.3877 130.77 95.529 131.144 95.6064 131.613L94.4033 131.777C94.3486 131.404 94.1891 131.112 93.9248 130.902C93.665 130.693 93.2959 130.588 92.8174 130.588C92.2523 130.588 91.849 130.681 91.6074 130.868C91.3659 131.055 91.2451 131.274 91.2451 131.524C91.2451 131.684 91.2952 131.827 91.3955 131.955C91.4958 132.087 91.653 132.197 91.8672 132.283C91.9902 132.329 92.3525 132.434 92.9541 132.598C93.8245 132.83 94.4307 133.021 94.7725 133.172C95.1188 133.318 95.39 133.532 95.5859 133.814C95.7819 134.097 95.8799 134.448 95.8799 134.867C95.8799 135.277 95.7591 135.665 95.5176 136.029C95.2806 136.389 94.9365 136.67 94.4854 136.87C94.0342 137.066 93.5238 137.164 92.9541 137.164C92.0107 137.164 91.2907 136.968 90.7939 136.576C90.3018 136.184 89.9873 135.603 89.8506 134.833ZM96.8506 134.833L98.0674 134.642C98.1357 135.129 98.3249 135.503 98.6348 135.763C98.9492 136.022 99.3867 136.152 99.9473 136.152C100.512 136.152 100.932 136.038 101.205 135.811C101.479 135.578 101.615 135.307 101.615 134.997C101.615 134.719 101.494 134.5 101.253 134.341C101.084 134.231 100.665 134.092 99.9951 133.924C99.0928 133.696 98.4661 133.5 98.1152 133.336C97.7689 133.167 97.5046 132.937 97.3223 132.646C97.1445 132.349 97.0557 132.023 97.0557 131.668C97.0557 131.344 97.1286 131.046 97.2744 130.772C97.4248 130.494 97.6276 130.264 97.8828 130.082C98.0742 129.941 98.334 129.822 98.6621 129.727C98.9948 129.626 99.3503 129.576 99.7285 129.576C100.298 129.576 100.797 129.658 101.226 129.822C101.659 129.986 101.978 130.21 102.183 130.492C102.388 130.77 102.529 131.144 102.606 131.613L101.403 131.777C101.349 131.404 101.189 131.112 100.925 130.902C100.665 130.693 100.296 130.588 99.8174 130.588C99.2523 130.588 98.849 130.681 98.6074 130.868C98.3659 131.055 98.2451 131.274 98.2451 131.524C98.2451 131.684 98.2952 131.827 98.3955 131.955C98.4958 132.087 98.653 132.197 98.8672 132.283C98.9902 132.329 99.3525 132.434 99.9541 132.598C100.825 132.83 101.431 133.021 101.772 133.172C102.119 133.318 102.39 133.532 102.586 133.814C102.782 134.097 102.88 134.448 102.88 134.867C102.88 135.277 102.759 135.665 102.518 136.029C102.281 136.389 101.937 136.67 101.485 136.87C101.034 137.066 100.524 137.164 99.9541 137.164C99.0107 137.164 98.2907 136.968 97.7939 136.576C97.3018 136.184 96.9873 135.603 96.8506 134.833ZM108.239 137V129.74H109.34V130.759C109.568 130.403 109.871 130.118 110.249 129.904C110.627 129.686 111.058 129.576 111.541 129.576C112.079 129.576 112.519 129.688 112.86 129.911C113.207 130.134 113.451 130.447 113.592 130.848C114.166 130 114.913 129.576 115.834 129.576C116.554 129.576 117.108 129.777 117.495 130.178C117.882 130.574 118.076 131.187 118.076 132.017V137H116.853V132.427C116.853 131.935 116.812 131.581 116.729 131.367C116.652 131.148 116.508 130.973 116.299 130.841C116.089 130.709 115.843 130.643 115.561 130.643C115.05 130.643 114.626 130.813 114.289 131.155C113.952 131.493 113.783 132.035 113.783 132.782V137H112.553V132.283C112.553 131.736 112.452 131.326 112.252 131.053C112.051 130.779 111.723 130.643 111.268 130.643C110.921 130.643 110.6 130.734 110.304 130.916C110.012 131.098 109.8 131.365 109.668 131.716C109.536 132.067 109.47 132.573 109.47 133.233V137H108.239ZM119.908 128.394V126.979H121.139V128.394H119.908ZM119.908 137V129.74H121.139V137H119.908ZM38.9229 153V142.979H40.1533V146.574C40.7275 145.909 41.4521 145.576 42.3271 145.576C42.8649 145.576 43.332 145.683 43.7285 145.897C44.125 146.107 44.4076 146.399 44.5762 146.772C44.7493 147.146 44.8359 147.688 44.8359 148.399V153H43.6055V148.399C43.6055 147.784 43.471 147.338 43.2021 147.06C42.9378 146.777 42.5618 146.636 42.0742 146.636C41.7096 146.636 41.3656 146.731 41.042 146.923C40.723 147.11 40.4951 147.365 40.3584 147.688C40.2217 148.012 40.1533 148.459 40.1533 149.028V153H38.9229ZM51.4531 152.104C50.9974 152.492 50.5576 152.765 50.1338 152.925C49.7145 153.084 49.2633 153.164 48.7803 153.164C47.9827 153.164 47.3698 152.97 46.9414 152.583C46.513 152.191 46.2988 151.692 46.2988 151.086C46.2988 150.73 46.3786 150.407 46.5381 150.115C46.7021 149.819 46.9141 149.582 47.1738 149.404C47.4382 149.227 47.7344 149.092 48.0625 149.001C48.304 148.937 48.6686 148.876 49.1562 148.816C50.1497 148.698 50.8812 148.557 51.3506 148.393C51.3551 148.224 51.3574 148.117 51.3574 148.071C51.3574 147.57 51.2412 147.217 51.0088 147.012C50.6943 146.734 50.2272 146.595 49.6074 146.595C49.0286 146.595 48.6003 146.697 48.3223 146.902C48.0488 147.103 47.846 147.461 47.7139 147.976L46.5107 147.812C46.6201 147.297 46.8001 146.882 47.0508 146.567C47.3014 146.248 47.6637 146.005 48.1377 145.836C48.6117 145.663 49.1608 145.576 49.7852 145.576C50.4049 145.576 50.9085 145.649 51.2959 145.795C51.6833 145.941 51.9681 146.125 52.1504 146.349C52.3327 146.567 52.4603 146.845 52.5332 147.183C52.5742 147.392 52.5947 147.771 52.5947 148.317V149.958C52.5947 151.102 52.6198 151.826 52.6699 152.132C52.7246 152.433 52.8294 152.722 52.9844 153H51.6992C51.5716 152.745 51.4896 152.446 51.4531 152.104ZM51.3506 149.356C50.904 149.539 50.234 149.694 49.3408 149.821C48.835 149.894 48.4772 149.976 48.2676 150.067C48.0579 150.159 47.8962 150.293 47.7822 150.471C47.6683 150.644 47.6113 150.838 47.6113 151.052C47.6113 151.38 47.7344 151.653 47.9805 151.872C48.2311 152.091 48.5957 152.2 49.0742 152.2C49.5482 152.2 49.9697 152.098 50.3389 151.893C50.708 151.683 50.9792 151.398 51.1523 151.038C51.2845 150.76 51.3506 150.35 51.3506 149.808V149.356ZM63.1426 150.341L64.3525 150.498C64.2204 151.332 63.8809 151.986 63.334 152.46C62.7917 152.929 62.124 153.164 61.3311 153.164C60.3376 153.164 59.5378 152.84 58.9316 152.193C58.3301 151.542 58.0293 150.61 58.0293 149.397C58.0293 148.614 58.1592 147.928 58.4189 147.34C58.6787 146.752 59.0729 146.312 59.6016 146.021C60.1348 145.724 60.7135 145.576 61.3379 145.576C62.1263 145.576 62.7712 145.777 63.2725 146.178C63.7738 146.574 64.0951 147.139 64.2363 147.873L63.04 148.058C62.9261 147.57 62.7233 147.203 62.4316 146.957C62.1445 146.711 61.7959 146.588 61.3857 146.588C60.766 146.588 60.2624 146.811 59.875 147.258C59.4876 147.7 59.2939 148.402 59.2939 149.363C59.2939 150.339 59.4808 151.047 59.8545 151.489C60.2282 151.931 60.7158 152.152 61.3174 152.152C61.8005 152.152 62.2038 152.004 62.5273 151.708C62.8509 151.412 63.056 150.956 63.1426 150.341ZM70.1426 152.104C69.6868 152.492 69.2471 152.765 68.8232 152.925C68.404 153.084 67.9528 153.164 67.4697 153.164C66.6722 153.164 66.0592 152.97 65.6309 152.583C65.2025 152.191 64.9883 151.692 64.9883 151.086C64.9883 150.73 65.068 150.407 65.2275 150.115C65.3916 149.819 65.6035 149.582 65.8633 149.404C66.1276 149.227 66.4238 149.092 66.752 149.001C66.9935 148.937 67.3581 148.876 67.8457 148.816C68.8392 148.698 69.5706 148.557 70.04 148.393C70.0446 148.224 70.0469 148.117 70.0469 148.071C70.0469 147.57 69.9307 147.217 69.6982 147.012C69.3838 146.734 68.9167 146.595 68.2969 146.595C67.7181 146.595 67.2897 146.697 67.0117 146.902C66.7383 147.103 66.5355 147.461 66.4033 147.976L65.2002 147.812C65.3096 147.297 65.4896 146.882 65.7402 146.567C65.9909 146.248 66.3532 146.005 66.8271 145.836C67.3011 145.663 67.8503 145.576 68.4746 145.576C69.0944 145.576 69.598 145.649 69.9854 145.795C70.3727 145.941 70.6576 146.125 70.8398 146.349C71.0221 146.567 71.1497 146.845 71.2227 147.183C71.2637 147.392 71.2842 147.771 71.2842 148.317V149.958C71.2842 151.102 71.3092 151.826 71.3594 152.132C71.4141 152.433 71.5189 152.722 71.6738 153H70.3887C70.2611 152.745 70.179 152.446 70.1426 152.104ZM70.04 149.356C69.5934 149.539 68.9235 149.694 68.0303 149.821C67.5244 149.894 67.1667 149.976 66.957 150.067C66.7474 150.159 66.5856 150.293 66.4717 150.471C66.3577 150.644 66.3008 150.838 66.3008 151.052C66.3008 151.38 66.4238 151.653 66.6699 151.872C66.9206 152.091 67.2852 152.2 67.7637 152.2C68.2376 152.2 68.6592 152.098 69.0283 151.893C69.3975 151.683 69.6686 151.398 69.8418 151.038C69.974 150.76 70.04 150.35 70.04 149.808V149.356ZM73.1982 153V145.74H74.2988V146.759C74.5267 146.403 74.8298 146.118 75.208 145.904C75.5863 145.686 76.0169 145.576 76.5 145.576C77.0378 145.576 77.4775 145.688 77.8193 145.911C78.1657 146.134 78.4095 146.447 78.5508 146.848C79.125 146 79.8724 145.576 80.793 145.576C81.513 145.576 82.0667 145.777 82.4541 146.178C82.8415 146.574 83.0352 147.187 83.0352 148.017V153H81.8115V148.427C81.8115 147.935 81.7705 147.581 81.6885 147.367C81.611 147.148 81.4674 146.973 81.2578 146.841C81.0482 146.709 80.8021 146.643 80.5195 146.643C80.0091 146.643 79.5853 146.813 79.248 147.155C78.9108 147.493 78.7422 148.035 78.7422 148.782V153H77.5117V148.283C77.5117 147.736 77.4115 147.326 77.2109 147.053C77.0104 146.779 76.6823 146.643 76.2266 146.643C75.8802 146.643 75.5589 146.734 75.2627 146.916C74.971 147.098 74.7591 147.365 74.627 147.716C74.4948 148.067 74.4287 148.573 74.4287 149.233V153H73.1982ZM85.9951 153H84.8535V142.979H86.084V146.554C86.6035 145.902 87.2666 145.576 88.0732 145.576C88.5199 145.576 88.9414 145.667 89.3379 145.85C89.7389 146.027 90.0671 146.28 90.3223 146.608C90.582 146.932 90.7848 147.324 90.9307 147.784C91.0765 148.244 91.1494 148.737 91.1494 149.261C91.1494 150.505 90.8418 151.466 90.2266 152.146C89.6113 152.825 88.873 153.164 88.0117 153.164C87.1549 153.164 86.4827 152.806 85.9951 152.091V153ZM85.9814 149.315C85.9814 150.186 86.0999 150.815 86.3369 151.202C86.7243 151.836 87.2484 152.152 87.9092 152.152C88.4469 152.152 88.9118 151.92 89.3037 151.455C89.6956 150.986 89.8916 150.288 89.8916 149.363C89.8916 148.415 89.7025 147.716 89.3242 147.265C88.9505 146.813 88.4971 146.588 87.9639 146.588C87.4261 146.588 86.9613 146.823 86.5693 147.292C86.1774 147.757 85.9814 148.431 85.9814 149.315ZM92.6602 144.394V142.979H93.8906V144.394H92.6602ZM92.6602 153V145.74H93.8906V153H92.6602ZM100.508 152.104C100.052 152.492 99.6123 152.765 99.1885 152.925C98.7692 153.084 98.318 153.164 97.835 153.164C97.0374 153.164 96.4245 152.97 95.9961 152.583C95.5677 152.191 95.3535 151.692 95.3535 151.086C95.3535 150.73 95.4333 150.407 95.5928 150.115C95.7568 149.819 95.9688 149.582 96.2285 149.404C96.4928 149.227 96.7891 149.092 97.1172 149.001C97.3587 148.937 97.7233 148.876 98.2109 148.816C99.2044 148.698 99.9359 148.557 100.405 148.393C100.41 148.224 100.412 148.117 100.412 148.071C100.412 147.57 100.296 147.217 100.063 147.012C99.749 146.734 99.2819 146.595 98.6621 146.595C98.0833 146.595 97.6549 146.697 97.377 146.902C97.1035 147.103 96.9007 147.461 96.7686 147.976L95.5654 147.812C95.6748 147.297 95.8548 146.882 96.1055 146.567C96.3561 146.248 96.7184 146.005 97.1924 145.836C97.6663 145.663 98.2155 145.576 98.8398 145.576C99.4596 145.576 99.9632 145.649 100.351 145.795C100.738 145.941 101.023 146.125 101.205 146.349C101.387 146.567 101.515 146.845 101.588 147.183C101.629 147.392 101.649 147.771 101.649 148.317V149.958C101.649 151.102 101.674 151.826 101.725 152.132C101.779 152.433 101.884 152.722 102.039 153H100.754C100.626 152.745 100.544 152.446 100.508 152.104ZM100.405 149.356C99.9587 149.539 99.2887 149.694 98.3955 149.821C97.8896 149.894 97.5319 149.976 97.3223 150.067C97.1126 150.159 96.9508 150.293 96.8369 150.471C96.723 150.644 96.666 150.838 96.666 151.052C96.666 151.38 96.7891 151.653 97.0352 151.872C97.2858 152.091 97.6504 152.2 98.1289 152.2C98.6029 152.2 99.0244 152.098 99.3936 151.893C99.7627 151.683 100.034 151.398 100.207 151.038C100.339 150.76 100.405 150.35 100.405 149.808V149.356ZM106.25 151.899L106.428 152.986C106.081 153.059 105.771 153.096 105.498 153.096C105.051 153.096 104.705 153.025 104.459 152.884C104.213 152.743 104.04 152.558 103.939 152.33C103.839 152.098 103.789 151.612 103.789 150.874V146.697H102.887V145.74H103.789V143.942L105.013 143.204V145.74H106.25V146.697H105.013V150.942C105.013 151.293 105.033 151.519 105.074 151.619C105.12 151.719 105.19 151.799 105.286 151.858C105.386 151.918 105.528 151.947 105.71 151.947C105.847 151.947 106.027 151.931 106.25 151.899ZM107.002 149.37C107.002 148.026 107.376 147.03 108.123 146.383C108.747 145.845 109.508 145.576 110.406 145.576C111.404 145.576 112.22 145.904 112.854 146.561C113.487 147.212 113.804 148.115 113.804 149.268C113.804 150.202 113.662 150.938 113.38 151.476C113.102 152.009 112.694 152.424 112.156 152.72C111.623 153.016 111.04 153.164 110.406 153.164C109.39 153.164 108.567 152.838 107.938 152.187C107.314 151.535 107.002 150.596 107.002 149.37ZM108.267 149.37C108.267 150.3 108.469 150.997 108.875 151.462C109.281 151.922 109.791 152.152 110.406 152.152C111.017 152.152 111.525 151.92 111.931 151.455C112.336 150.99 112.539 150.282 112.539 149.329C112.539 148.431 112.334 147.752 111.924 147.292C111.518 146.827 111.012 146.595 110.406 146.595C109.791 146.595 109.281 146.825 108.875 147.285C108.469 147.745 108.267 148.44 108.267 149.37ZM121.166 153L118.404 145.74H119.703L121.262 150.088C121.43 150.557 121.585 151.045 121.727 151.551C121.836 151.168 121.989 150.708 122.185 150.17L123.798 145.74H125.062L122.314 153H121.166ZM126.156 144.394V142.979H127.387V144.394H126.156ZM126.156 153V145.74H127.387V153H126.156ZM131.953 151.899L132.131 152.986C131.785 153.059 131.475 153.096 131.201 153.096C130.755 153.096 130.408 153.025 130.162 152.884C129.916 152.743 129.743 152.558 129.643 152.33C129.542 152.098 129.492 151.612 129.492 150.874V146.697H128.59V145.74H129.492V143.942L130.716 143.204V145.74H131.953V146.697H130.716V150.942C130.716 151.293 130.736 151.519 130.777 151.619C130.823 151.719 130.894 151.799 130.989 151.858C131.09 151.918 131.231 151.947 131.413 151.947C131.55 151.947 131.73 151.931 131.953 151.899ZM137.9 152.104C137.445 152.492 137.005 152.765 136.581 152.925C136.162 153.084 135.711 153.164 135.228 153.164C134.43 153.164 133.817 152.97 133.389 152.583C132.96 152.191 132.746 151.692 132.746 151.086C132.746 150.73 132.826 150.407 132.985 150.115C133.149 149.819 133.361 149.582 133.621 149.404C133.885 149.227 134.182 149.092 134.51 149.001C134.751 148.937 135.116 148.876 135.604 148.816C136.597 148.698 137.328 148.557 137.798 148.393C137.802 148.224 137.805 148.117 137.805 148.071C137.805 147.57 137.688 147.217 137.456 147.012C137.142 146.734 136.674 146.595 136.055 146.595C135.476 146.595 135.048 146.697 134.77 146.902C134.496 147.103 134.293 147.461 134.161 147.976L132.958 147.812C133.067 147.297 133.247 146.882 133.498 146.567C133.749 146.248 134.111 146.005 134.585 145.836C135.059 145.663 135.608 145.576 136.232 145.576C136.852 145.576 137.356 145.649 137.743 145.795C138.131 145.941 138.415 146.125 138.598 146.349C138.78 146.567 138.908 146.845 138.98 147.183C139.021 147.392 139.042 147.771 139.042 148.317V149.958C139.042 151.102 139.067 151.826 139.117 152.132C139.172 152.433 139.277 152.722 139.432 153H138.146C138.019 152.745 137.937 152.446 137.9 152.104ZM137.798 149.356C137.351 149.539 136.681 149.694 135.788 149.821C135.282 149.894 134.924 149.976 134.715 150.067C134.505 150.159 134.343 150.293 134.229 150.471C134.116 150.644 134.059 150.838 134.059 151.052C134.059 151.38 134.182 151.653 134.428 151.872C134.678 152.091 135.043 152.2 135.521 152.2C135.995 152.2 136.417 152.098 136.786 151.893C137.155 151.683 137.426 151.398 137.6 151.038C137.732 150.76 137.798 150.35 137.798 149.808V149.356ZM143.26 150.532C143.255 150.368 143.253 150.245 143.253 150.163C143.253 149.68 143.321 149.263 143.458 148.912C143.558 148.648 143.72 148.381 143.943 148.112C144.107 147.916 144.401 147.632 144.825 147.258C145.254 146.88 145.532 146.579 145.659 146.355C145.787 146.132 145.851 145.888 145.851 145.624C145.851 145.146 145.664 144.726 145.29 144.366C144.916 144.002 144.458 143.819 143.916 143.819C143.392 143.819 142.954 143.983 142.604 144.312C142.253 144.64 142.022 145.152 141.913 145.85L140.648 145.699C140.762 144.765 141.1 144.049 141.66 143.553C142.225 143.056 142.97 142.808 143.896 142.808C144.875 142.808 145.657 143.074 146.24 143.607C146.824 144.141 147.115 144.785 147.115 145.542C147.115 145.979 147.013 146.383 146.808 146.752C146.603 147.121 146.201 147.57 145.604 148.099C145.203 148.454 144.941 148.716 144.818 148.885C144.695 149.053 144.604 149.247 144.545 149.466C144.486 149.685 144.451 150.04 144.442 150.532H143.26ZM143.185 153V151.599H144.586V153H143.185Z" fill="white"/>
<line x1="131" y1="133.5" x2="148" y2="133.5" stroke="white"/>
<path d="M19.96 75.384C19.96 70.648 21.3893 66.3813 24.248 62.584C27.1493 58.7867 31.0747 55.8213 36.024 53.688C41.016 51.512 46.5413 50.424 52.6 50.424C58.2747 50.424 63.3307 51.32 67.768 53.112C72.248 54.8613 75.8533 57.336 78.584 60.536C81.3573 63.6933 83.0853 67.32 83.768 71.416H64.824C64.0133 69.1973 62.4133 67.4267 60.024 66.104C57.6773 64.7813 55.224 64.12 52.664 64.12C50.4027 64.12 48.2267 64.568 46.136 65.464C44.088 66.36 42.4027 67.6613 41.08 69.368C39.8 71.0747 39.16 73.08 39.16 75.384C39.16 77.688 39.8 79.6933 41.08 81.4C42.4027 83.064 44.088 84.344 46.136 85.24C48.2267 86.136 50.4027 86.584 52.664 86.584C55.48 86.584 57.9547 85.9653 60.088 84.728C62.2213 83.4907 63.7787 81.72 64.76 79.416H83.704C82.9787 83.4693 81.2507 87.0747 78.52 90.232C75.7893 93.3893 72.184 95.864 67.704 97.656C63.2667 99.4053 58.232 100.28 52.6 100.28C46.584 100.28 41.08 99.192 36.088 97.016C31.096 94.84 27.1493 91.8533 24.248 88.056C21.3893 84.2587 19.96 80.0347 19.96 75.384Z" fill="white"/>
<path d="M113.896 68.616C119.912 68.616 125.331 69.704 130.152 71.88C134.973 74.0133 138.749 76.9787 141.48 80.776C144.211 84.5307 145.576 88.776 145.576 93.512C145.576 98.2053 144.211 102.429 141.48 106.184C138.749 109.939 134.973 112.904 130.152 115.08C125.331 117.213 119.912 118.28 113.896 118.28C108.136 118.28 102.803 117.213 97.896 115.08C93.032 112.904 89.1493 109.939 86.248 106.184C83.3893 102.387 81.96 98.1627 81.96 93.512C81.96 88.8187 83.3893 84.5733 86.248 80.776C89.1493 76.9787 93.032 74.0133 97.896 71.88C102.803 69.704 108.136 68.616 113.896 68.616ZM113.96 104.712C116.008 104.712 117.971 104.264 119.848 103.368C121.768 102.472 123.325 101.171 124.52 99.464C125.715 97.7573 126.312 95.7733 126.312 93.512C126.312 91.208 125.715 89.224 124.52 87.56C123.325 85.8533 121.768 84.552 119.848 83.656C117.971 82.76 116.008 82.312 113.96 82.312C111.955 82.312 109.992 82.76 108.072 83.656C106.195 84.552 104.637 85.8533 103.4 87.56C102.205 89.224 101.608 91.208 101.608 93.512C101.608 95.7733 102.205 97.7573 103.4 99.464C104.637 101.171 106.195 102.472 108.072 103.368C109.992 104.264 111.955 104.712 113.96 104.712Z" fill="white"/>
<path d="M217.512 55.64V103H199.272V85.656L190.824 103H174.504L165.48 85.464V103H147.24V55.64H167.72L182.696 86.296L197.608 55.64H217.512Z" fill="white"/>
<path d="M265.704 108.464H237.48V113.392L271.08 113.2V126H219.24V78.64H271.08L271.144 91.44H237.48V95.984H265.704V108.464Z" fill="white"/>
<defs>
<filter id="filter0_f_285_123" x="0.799999" y="0.799999" width="121.4" height="121.4" filterUnits="userSpaceOnUse" color-interpolation-filters="sRGB">
<feFlood flood-opacity="0" result="BackgroundImageFix"/>
<feBlend mode="normal" in="SourceGraphic" in2="BackgroundImageFix" result="shape"/>
<feGaussianBlur stdDeviation="14.1" result="effect1_foregroundBlur_285_123"/>
</filter>
<filter id="filter1_f_285_123" x="55.7" y="62.7" width="125.6" height="122.6" filterUnits="userSpaceOnUse" color-interpolation-filters="sRGB">
<feFlood flood-opacity="0" result="BackgroundImageFix"/>
<feBlend mode="normal" in="SourceGraphic" in2="BackgroundImageFix" result="shape"/>
<feGaussianBlur stdDeviation="17.65" result="effect1_foregroundBlur_285_123"/>
</filter>
<filter id="filter2_f_285_123" x="6.8" y="75.8" width="87.4" height="86.4" filterUnits="userSpaceOnUse" color-interpolation-filters="sRGB">
<feFlood flood-opacity="0" result="BackgroundImageFix"/>
<feBlend mode="normal" in="SourceGraphic" in2="BackgroundImageFix" result="shape"/>
<feGaussianBlur stdDeviation="14.1" result="effect1_foregroundBlur_285_123"/>
</filter>
<filter id="filter3_f_285_123" x="108.1" y="54.1" width="90.8" height="87.8" filterUnits="userSpaceOnUse" color-interpolation-filters="sRGB">
<feFlood flood-opacity="0" result="BackgroundImageFix"/>
<feBlend mode="normal" in="SourceGraphic" in2="BackgroundImageFix" result="shape"/>
<feGaussianBlur stdDeviation="6.45" result="effect1_foregroundBlur_285_123"/>
</filter>
<filter id="filter4_f_285_123" x="108.1" y="54.1" width="90.8" height="87.8" filterUnits="userSpaceOnUse" color-interpolation-filters="sRGB">
<feFlood flood-opacity="0" result="BackgroundImageFix"/>
<feBlend mode="normal" in="SourceGraphic" in2="BackgroundImageFix" result="shape"/>
<feGaussianBlur stdDeviation="6.45" result="effect1_foregroundBlur_285_123"/>
</filter>
<filter id="filter5_f_285_123" x="148.8" y="0.799999" width="128.4" height="125.4" filterUnits="userSpaceOnUse" color-interpolation-filters="sRGB">
<feFlood flood-opacity="0" result="BackgroundImageFix"/>
<feBlend mode="normal" in="SourceGraphic" in2="BackgroundImageFix" result="shape"/>
<feGaussianBlur stdDeviation="14.1" result="effect1_foregroundBlur_285_123"/>
</filter>
<filter id="filter6_f_285_123" x="117.8" y="51.8" width="170.4" height="118.4" filterUnits="userSpaceOnUse" color-interpolation-filters="sRGB">
<feFlood flood-opacity="0" result="BackgroundImageFix"/>
<feBlend mode="normal" in="SourceGraphic" in2="BackgroundImageFix" result="shape"/>
<feGaussianBlur stdDeviation="14.1" result="effect1_foregroundBlur_285_123"/>
</filter>
<filter id="filter7_f_285_123" x="20.8" y="35.8" width="121.4" height="121.4" filterUnits="userSpaceOnUse" color-interpolation-filters="sRGB">
<feFlood flood-opacity="0" result="BackgroundImageFix"/>
<feBlend mode="normal" in="SourceGraphic" in2="BackgroundImageFix" result="shape"/>
<feGaussianBlur stdDeviation="14.1" result="effect1_foregroundBlur_285_123"/>
</filter>
<filter id="filter8_f_285_123" x="56.8" y="13.8" width="148.4" height="121.4" filterUnits="userSpaceOnUse" color-interpolation-filters="sRGB">
<feFlood flood-opacity="0" result="BackgroundImageFix"/>
<feBlend mode="normal" in="SourceGraphic" in2="BackgroundImageFix" result="shape"/>
<feGaussianBlur stdDeviation="14.1" result="effect1_foregroundBlur_285_123"/>
</filter>
<filter id="filter9_f_285_123" x="44.8" y="54.8" width="95.4" height="95.4" filterUnits="userSpaceOnUse" color-interpolation-filters="sRGB">
<feFlood flood-opacity="0" result="BackgroundImageFix"/>
<feBlend mode="normal" in="SourceGraphic" in2="BackgroundImageFix" result="shape"/>
<feGaussianBlur stdDeviation="14.1" result="effect1_foregroundBlur_285_123"/>
</filter>
<filter id="filter10_f_285_123" x="146.031" y="31.0308" width="70.9385" height="70.9385" filterUnits="userSpaceOnUse" color-interpolation-filters="sRGB">
<feFlood flood-opacity="0" result="BackgroundImageFix"/>
<feBlend mode="normal" in="SourceGraphic" in2="BackgroundImageFix" result="shape"/>
<feGaussianBlur stdDeviation="10.4846" result="effect1_foregroundBlur_285_123"/>
</filter>
<filter id="filter11_f_285_123" x="116.1" y="76.1" width="66.8" height="66.8" filterUnits="userSpaceOnUse" color-interpolation-filters="sRGB">
<feFlood flood-opacity="0" result="BackgroundImageFix"/>
<feBlend mode="normal" in="SourceGraphic" in2="BackgroundImageFix" result="shape"/>
<feGaussianBlur stdDeviation="10.95" result="effect1_foregroundBlur_285_123"/>
</filter>
</defs>
</svg>
