<svg width="269" height="227" viewBox="0 0 269 227" fill="none" xmlns="http://www.w3.org/2000/svg">
<g filter="url(#filter0_f_285_72)">
<circle cx="59" cy="150" r="28" fill="#A92684"/>
</g>
<g filter="url(#filter1_f_285_72)">
<circle cx="59" cy="150" r="20" fill="#A92684"/>
</g>
<g filter="url(#filter2_f_285_72)">
<ellipse cx="66.5" cy="101.5" rx="34.5" ry="36.5" fill="#A92684"/>
</g>
<g filter="url(#filter3_f_285_72)">
<ellipse cx="111.5" cy="132.5" rx="32.5" ry="34.5" fill="#A92684"/>
</g>
<g filter="url(#filter4_f_285_72)">
<circle cx="164" cy="159" r="37" fill="#A92684"/>
</g>
<g filter="url(#filter5_f_285_72)">
<circle cx="201" cy="113" r="37" fill="#A92684"/>
</g>
<g filter="url(#filter6_f_285_72)">
<circle cx="161" cy="78" r="47" fill="#A92684"/>
</g>
<g filter="url(#filter7_f_285_72)">
<circle cx="109" cy="101" r="38" fill="#A92684"/>
</g>
<g filter="url(#filter8_f_285_72)">
<circle cx="109" cy="101" r="38" fill="#A92684"/>
</g>
<path d="M194.582 166V153.555H196.469V155.301C196.859 154.691 197.379 154.203 198.027 153.836C198.676 153.461 199.414 153.273 200.242 153.273C201.164 153.273 201.918 153.465 202.504 153.848C203.098 154.23 203.516 154.766 203.758 155.453C204.742 154 206.023 153.273 207.602 153.273C208.836 153.273 209.785 153.617 210.449 154.305C211.113 154.984 211.445 156.035 211.445 157.457V166H209.348V158.16C209.348 157.316 209.277 156.711 209.137 156.344C209.004 155.969 208.758 155.668 208.398 155.441C208.039 155.215 207.617 155.102 207.133 155.102C206.258 155.102 205.531 155.395 204.953 155.98C204.375 156.559 204.086 157.488 204.086 158.77V166H201.977V157.914C201.977 156.977 201.805 156.273 201.461 155.805C201.117 155.336 200.555 155.102 199.773 155.102C199.18 155.102 198.629 155.258 198.121 155.57C197.621 155.883 197.258 156.34 197.031 156.941C196.805 157.543 196.691 158.41 196.691 159.543V166H194.582ZM223.094 161.992L225.273 162.262C224.93 163.535 224.293 164.523 223.363 165.227C222.434 165.93 221.246 166.281 219.801 166.281C217.98 166.281 216.535 165.723 215.465 164.605C214.402 163.48 213.871 161.906 213.871 159.883C213.871 157.789 214.41 156.164 215.488 155.008C216.566 153.852 217.965 153.273 219.684 153.273C221.348 153.273 222.707 153.84 223.762 154.973C224.816 156.105 225.344 157.699 225.344 159.754C225.344 159.879 225.34 160.066 225.332 160.316H216.051C216.129 161.684 216.516 162.73 217.211 163.457C217.906 164.184 218.773 164.547 219.812 164.547C220.586 164.547 221.246 164.344 221.793 163.938C222.34 163.531 222.773 162.883 223.094 161.992ZM216.168 158.582H223.117C223.023 157.535 222.758 156.75 222.32 156.227C221.648 155.414 220.777 155.008 219.707 155.008C218.738 155.008 217.922 155.332 217.258 155.98C216.602 156.629 216.238 157.496 216.168 158.582Z" fill="white"/>
<rect x="185" y="142" width="1" height="31" fill="white"/>
<rect x="186" y="143" width="1" height="31" transform="rotate(-90 186 143)" fill="white"/>
<g filter="url(#filter9_f_285_72)">
<circle cx="84" cy="104" r="20" fill="#A92684"/>
</g>
<g filter="url(#filter10_f_285_72)">
<circle cx="171" cy="117" r="17" fill="#A92684"/>
</g>
<g filter="url(#filter11_f_285_72)">
<circle cx="158" cy="62" r="14" fill="#A92684"/>
</g>
<path d="M105.178 77.696C107.29 77.608 108.94 77.564 110.128 77.564C116.508 77.564 121.678 78.466 125.638 80.27C129.642 82.074 131.644 85.616 131.644 90.896C131.644 97.804 128.586 102.468 122.47 104.888C116.354 107.308 109.468 108.518 101.812 108.518C94.112 108.518 87.05 107.308 80.626 104.888C74.202 102.468 70.99 97.804 70.99 90.896H90.394C90.394 93.448 91.516 95.076 93.76 95.78C96.004 96.484 98.688 96.836 101.812 96.836C104.76 96.836 107.29 96.374 109.402 95.45C111.514 94.526 112.57 93.096 112.57 91.16C112.57 89.532 111.448 88.476 109.204 87.992C107.004 87.464 104.43 87.2 101.482 87.2L94.882 87.266C90.482 87.266 86.566 86.958 83.134 86.342C79.746 85.682 76.864 84.34 74.488 82.316C72.156 80.248 70.99 77.234 70.99 73.274C70.99 68.478 72.684 64.87 76.072 62.45C79.504 59.986 83.42 58.424 87.82 57.764C92.22 57.06 96.884 56.708 101.812 56.708C109.468 56.708 116.354 57.918 122.47 60.338C128.586 62.714 131.644 67.378 131.644 74.33H112.57C112.57 72.482 111.514 71.096 109.402 70.172C107.334 69.248 104.804 68.742 101.812 68.654C98.644 68.654 95.938 69.006 93.694 69.71C91.494 70.414 90.394 71.536 90.394 73.076C90.394 74.836 91.516 76.046 93.76 76.706C96.004 77.366 98.534 77.718 101.35 77.762L105.178 77.696Z" fill="white"/>
<path d="M174.188 64.9628L192.616 59.55L199.572 83.2334C200.912 87.7928 200.803 92.3417 199.247 96.8802C197.721 101.364 195.079 105.327 191.321 108.77C187.55 112.171 183.09 114.627 177.939 116.14C172.282 117.802 166.864 118.247 161.685 117.475C156.505 116.704 152.068 114.866 148.371 111.962C144.705 109.003 142.175 105.229 140.781 100.64L133.787 76.8302L152.594 71.3057L159.532 94.9258C160.525 98.3031 162.269 100.496 164.767 101.505C167.294 102.46 170.268 102.435 173.687 101.43C176.474 100.612 178.644 99.1028 180.2 96.9033C181.785 94.6493 182.093 91.8758 181.126 88.5829L174.188 64.9628Z" fill="white"/>
<path d="M131.994 148.646C131.994 153.266 130.74 157.424 128.232 161.12C125.724 164.816 122.138 167.72 117.474 169.832C112.854 171.944 107.486 173 101.37 173V173.066H89.094V173H74.31V124.16H101.304C107.464 124.16 112.854 125.216 117.474 127.328C122.138 129.396 125.724 132.3 128.232 136.04C130.74 139.736 131.994 143.938 131.994 148.646ZM101.37 158.282C104.802 158.282 107.662 157.512 109.95 155.972C112.282 154.388 113.448 151.946 113.448 148.646C113.448 146.798 112.876 145.126 111.732 143.63C110.588 142.134 109.092 140.99 107.244 140.198C105.396 139.362 103.438 138.944 101.37 138.944H93.12V158.282H101.37ZM154.753 173H135.943V124.16H154.753V173Z" fill="white"/>
<defs>
<filter id="filter0_f_285_72" x="0.4" y="91.4" width="117.2" height="117.2" filterUnits="userSpaceOnUse" color-interpolation-filters="sRGB">
<feFlood flood-opacity="0" result="BackgroundImageFix"/>
<feBlend mode="normal" in="SourceGraphic" in2="BackgroundImageFix" result="shape"/>
<feGaussianBlur stdDeviation="15.3" result="effect1_foregroundBlur_285_72"/>
</filter>
<filter id="filter1_f_285_72" x="25.6" y="116.6" width="66.8" height="66.8" filterUnits="userSpaceOnUse" color-interpolation-filters="sRGB">
<feFlood flood-opacity="0" result="BackgroundImageFix"/>
<feBlend mode="normal" in="SourceGraphic" in2="BackgroundImageFix" result="shape"/>
<feGaussianBlur stdDeviation="6.7" result="effect1_foregroundBlur_285_72"/>
</filter>
<filter id="filter2_f_285_72" x="1.4" y="34.4" width="130.2" height="134.2" filterUnits="userSpaceOnUse" color-interpolation-filters="sRGB">
<feFlood flood-opacity="0" result="BackgroundImageFix"/>
<feBlend mode="normal" in="SourceGraphic" in2="BackgroundImageFix" result="shape"/>
<feGaussianBlur stdDeviation="15.3" result="effect1_foregroundBlur_285_72"/>
</filter>
<filter id="filter3_f_285_72" x="48.4" y="67.4" width="126.2" height="130.2" filterUnits="userSpaceOnUse" color-interpolation-filters="sRGB">
<feFlood flood-opacity="0" result="BackgroundImageFix"/>
<feBlend mode="normal" in="SourceGraphic" in2="BackgroundImageFix" result="shape"/>
<feGaussianBlur stdDeviation="15.3" result="effect1_foregroundBlur_285_72"/>
</filter>
<filter id="filter4_f_285_72" x="96.4" y="91.4" width="135.2" height="135.2" filterUnits="userSpaceOnUse" color-interpolation-filters="sRGB">
<feFlood flood-opacity="0" result="BackgroundImageFix"/>
<feBlend mode="normal" in="SourceGraphic" in2="BackgroundImageFix" result="shape"/>
<feGaussianBlur stdDeviation="15.3" result="effect1_foregroundBlur_285_72"/>
</filter>
<filter id="filter5_f_285_72" x="133.4" y="45.4" width="135.2" height="135.2" filterUnits="userSpaceOnUse" color-interpolation-filters="sRGB">
<feFlood flood-opacity="0" result="BackgroundImageFix"/>
<feBlend mode="normal" in="SourceGraphic" in2="BackgroundImageFix" result="shape"/>
<feGaussianBlur stdDeviation="15.3" result="effect1_foregroundBlur_285_72"/>
</filter>
<filter id="filter6_f_285_72" x="83.4" y="0.4" width="155.2" height="155.2" filterUnits="userSpaceOnUse" color-interpolation-filters="sRGB">
<feFlood flood-opacity="0" result="BackgroundImageFix"/>
<feBlend mode="normal" in="SourceGraphic" in2="BackgroundImageFix" result="shape"/>
<feGaussianBlur stdDeviation="15.3" result="effect1_foregroundBlur_285_72"/>
</filter>
<filter id="filter7_f_285_72" x="40.4" y="32.4" width="137.2" height="137.2" filterUnits="userSpaceOnUse" color-interpolation-filters="sRGB">
<feFlood flood-opacity="0" result="BackgroundImageFix"/>
<feBlend mode="normal" in="SourceGraphic" in2="BackgroundImageFix" result="shape"/>
<feGaussianBlur stdDeviation="15.3" result="effect1_foregroundBlur_285_72"/>
</filter>
<filter id="filter8_f_285_72" x="50" y="42" width="118" height="118" filterUnits="userSpaceOnUse" color-interpolation-filters="sRGB">
<feFlood flood-opacity="0" result="BackgroundImageFix"/>
<feBlend mode="normal" in="SourceGraphic" in2="BackgroundImageFix" result="shape"/>
<feGaussianBlur stdDeviation="10.5" result="effect1_foregroundBlur_285_72"/>
</filter>
<filter id="filter9_f_285_72" x="40.8" y="60.8" width="86.4" height="86.4" filterUnits="userSpaceOnUse" color-interpolation-filters="sRGB">
<feFlood flood-opacity="0" result="BackgroundImageFix"/>
<feBlend mode="normal" in="SourceGraphic" in2="BackgroundImageFix" result="shape"/>
<feGaussianBlur stdDeviation="11.6" result="effect1_foregroundBlur_285_72"/>
</filter>
<filter id="filter10_f_285_72" x="130.8" y="76.8" width="80.4" height="80.4" filterUnits="userSpaceOnUse" color-interpolation-filters="sRGB">
<feFlood flood-opacity="0" result="BackgroundImageFix"/>
<feBlend mode="normal" in="SourceGraphic" in2="BackgroundImageFix" result="shape"/>
<feGaussianBlur stdDeviation="11.6" result="effect1_foregroundBlur_285_72"/>
</filter>
<filter id="filter11_f_285_72" x="125.2" y="29.2" width="65.6" height="65.6" filterUnits="userSpaceOnUse" color-interpolation-filters="sRGB">
<feFlood flood-opacity="0" result="BackgroundImageFix"/>
<feBlend mode="normal" in="SourceGraphic" in2="BackgroundImageFix" result="shape"/>
<feGaussianBlur stdDeviation="9.4" result="effect1_foregroundBlur_285_72"/>
</filter>
</defs>
</svg>
