<svg width="288" height="132" viewBox="0 0 288 132" fill="none" xmlns="http://www.w3.org/2000/svg">
<g filter="url(#filter0_f_285_267)">
<circle cx="52.0002" cy="63.0002" r="28" fill="#A92684"/>
</g>
<g filter="url(#filter1_f_285_267)">
<ellipse cx="101" cy="54.0002" rx="37" ry="28" fill="#A92684"/>
</g>
<g filter="url(#filter2_f_285_267)">
<ellipse cx="31.0002" cy="89.0002" rx="16" ry="17" fill="#A92684"/>
</g>
<g filter="url(#filter3_f_285_267)">
<ellipse cx="34.0002" cy="86.0002" rx="11" ry="12" fill="#A92684"/>
</g>
<g filter="url(#filter4_f_285_267)">
<ellipse cx="29.0002" cy="43.0002" rx="16" ry="17" fill="#A92684"/>
</g>
<g filter="url(#filter5_f_285_267)">
<ellipse cx="160" cy="68.0002" rx="46" ry="35" fill="#A92684"/>
</g>
<g filter="url(#filter6_f_285_267)">
<circle cx="121.5" cy="71.5002" r="23.5" fill="#A92684"/>
</g>
<g filter="url(#filter7_f_285_267)">
<circle cx="214.5" cy="65.5" r="36.5" fill="#A92684"/>
</g>
<g filter="url(#filter8_f_285_267)">
<ellipse cx="82.0002" cy="81.5002" rx="30" ry="23.5" fill="#A92684"/>
</g>
<g filter="url(#filter9_f_285_267)">
<ellipse cx="88.0002" cy="81.0002" rx="11" ry="12" fill="#A92684"/>
</g>
<g filter="url(#filter10_f_285_267)">
<ellipse cx="68.5002" cy="43.0002" rx="19.5" ry="12" fill="#A92684"/>
</g>
<g filter="url(#filter11_f_285_267)">
<ellipse cx="146" cy="82.5002" rx="14" ry="15.5" fill="#A92684"/>
</g>
<path d="M33.9652 38.0602V54.3352H47.7602V61.0002H25.1302V38.0602H33.9652ZM80.997 61.0002H72.162L70.271 57.5282H58.026L56.135 61.0002H47.3L59.731 38.0602H68.566L80.997 61.0002ZM64.1641 46.2132L61.064 51.8862H67.233L64.1641 46.2132ZM84.3867 61.0002L97.3757 38.0602L84.3867 61.0002ZM88.9747 52.9092L97.3757 38.0602H106.211L93.8417 61.0002H83.7667L71.7077 38.0602H81.1627L88.9747 52.9092ZM118.88 37.5642C121.794 37.5642 124.419 38.0912 126.754 39.1452C129.09 40.1786 130.919 41.6149 132.241 43.4542C133.564 45.2729 134.225 47.3292 134.225 49.6232C134.225 51.8966 133.564 53.9426 132.241 55.7612C130.919 57.5799 129.09 59.0162 126.754 60.0702C124.419 61.1036 121.794 61.6202 118.88 61.6202C116.09 61.6202 113.507 61.1036 111.13 60.0702C108.774 59.0162 106.894 57.5799 105.488 55.7612C104.104 53.9219 103.411 51.8759 103.411 49.6232C103.411 47.3499 104.104 45.2936 105.488 43.4542C106.894 41.6149 108.774 40.1786 111.13 39.1452C113.507 38.0912 116.09 37.5642 118.88 37.5642ZM118.911 55.0482C119.903 55.0482 120.854 54.8312 121.763 54.3972C122.693 53.9632 123.448 53.3329 124.026 52.5062C124.605 51.6796 124.894 50.7186 124.894 49.6232C124.894 48.5072 124.605 47.5462 124.026 46.7402C123.448 45.9136 122.693 45.2832 121.763 44.8492C120.854 44.4152 119.903 44.1982 118.911 44.1982C117.94 44.1982 116.989 44.4152 116.059 44.8492C115.15 45.2832 114.396 45.9136 113.796 46.7402C113.218 47.5462 112.928 48.5072 112.928 49.6232C112.928 50.7186 113.218 51.6796 113.796 52.5062C114.396 53.3329 115.15 53.9632 116.059 54.3972C116.989 54.8312 117.94 55.0482 118.911 55.0482ZM153.21 61.0002L146.855 53.5912H143.848V61.0002H135.478V38.0602H153.334C155.256 38.0602 156.951 38.3806 158.418 39.0212C159.906 39.6619 161.053 40.5609 161.859 41.7182C162.686 42.8549 163.099 44.1776 163.099 45.6862V45.8102C163.099 47.7736 162.52 49.3959 161.363 50.6772C160.226 51.9586 158.645 52.8162 156.62 53.2502L163.285 61.0002H153.21ZM154.946 45.8102C154.946 45.1902 154.801 44.7459 154.512 44.4772C154.243 44.1879 153.871 44.0122 153.396 43.9502C152.941 43.8882 152.239 43.8572 151.288 43.8572H150.296C149.655 43.8779 147.506 43.8882 143.848 43.8882V47.6702H151.257H151.288C152.239 47.6702 152.941 47.6392 153.396 47.5772C153.871 47.5152 154.243 47.3602 154.512 47.1122C154.801 46.8436 154.946 46.4096 154.946 45.8102ZM195.129 61.0002H186.294L184.403 57.5282H172.158L170.267 61.0002H161.432L173.863 38.0602H182.698L195.129 61.0002ZM178.296 46.2132L175.196 51.8862H181.365L178.296 46.2132ZM212.865 61.0002L206.51 53.5912H203.503V61.0002H195.133V38.0602H212.989C214.911 38.0602 216.605 38.3806 218.073 39.0212C219.561 39.6619 220.708 40.5609 221.514 41.7182C222.34 42.8549 222.754 44.1776 222.754 45.6862V45.8102C222.754 47.7736 222.175 49.3959 221.018 50.6772C219.881 51.9586 218.3 52.8162 216.275 53.2502L222.94 61.0002H212.865ZM214.601 45.8102C214.601 45.1902 214.456 44.7459 214.167 44.4772C213.898 44.1879 213.526 44.0122 213.051 43.9502C212.596 43.8882 211.893 43.8572 210.943 43.8572H209.951C209.31 43.8779 207.161 43.8882 203.503 43.8882V47.6702H210.912H210.943C211.893 47.6702 212.596 47.6392 213.051 47.5772C213.526 47.5152 213.898 47.3602 214.167 47.1122C214.456 46.8436 214.601 46.4096 214.601 45.8102ZM246.694 52.5062H233.023V54.8932L249.298 54.8002V61.0002H224.188V38.0602H249.298L249.329 44.2602H233.023V46.4612H246.694V52.5062Z" fill="white"/>
<path d="M24.4893 79.5612C24.4893 77.2672 25.1816 75.2006 26.5663 73.3612C27.9716 71.5219 29.8729 70.0856 32.2703 69.0522C34.6883 67.9982 37.3646 67.4712 40.2993 67.4712C43.0479 67.4712 45.4969 67.9052 47.6463 68.7732C49.8163 69.6206 51.5626 70.8192 52.8853 72.3692C54.2286 73.8986 55.0656 75.6552 55.3963 77.6392H46.2203C45.8276 76.5646 45.0526 75.7069 43.8953 75.0662C42.7586 74.4256 41.5703 74.1052 40.3303 74.1052C39.2349 74.1052 38.1809 74.3222 37.1683 74.7562C36.1763 75.1902 35.3599 75.8206 34.7193 76.6472C34.0993 77.4739 33.7893 78.4452 33.7893 79.5612C33.7893 80.6772 34.0993 81.6486 34.7193 82.4752C35.3599 83.2812 36.1763 83.9012 37.1683 84.3352C38.1809 84.7692 39.2349 84.9862 40.3303 84.9862C41.6943 84.9862 42.8929 84.6866 43.9263 84.0872C44.9596 83.4879 45.7139 82.6302 46.1893 81.5142H55.3653C55.0139 83.4776 54.1769 85.2239 52.8543 86.7532C51.5316 88.2826 49.7853 89.4812 47.6153 90.3492C45.4659 91.1966 43.0273 91.6202 40.2993 91.6202C37.3853 91.6202 34.7193 91.0932 32.3013 90.0392C29.8833 88.9852 27.9716 87.5386 26.5663 85.6992C25.1816 83.8599 24.4893 81.8139 24.4893 79.5612ZM71.4959 67.5642C74.4099 67.5642 77.0346 68.0912 79.3699 69.1452C81.7053 70.1786 83.5343 71.6149 84.8569 73.4542C86.1796 75.2729 86.8409 77.3292 86.8409 79.6232C86.8409 81.8966 86.1796 83.9426 84.8569 85.7612C83.5343 87.5799 81.7053 89.0162 79.3699 90.0702C77.0346 91.1036 74.4099 91.6202 71.4959 91.6202C68.7059 91.6202 66.1226 91.1036 63.7459 90.0702C61.3899 89.0162 59.5093 87.5799 58.1039 85.7612C56.7193 83.9219 56.0269 81.8759 56.0269 79.6232C56.0269 77.3499 56.7193 75.2936 58.1039 73.4542C59.5093 71.6149 61.3899 70.1786 63.7459 69.1452C66.1226 68.0912 68.7059 67.5642 71.4959 67.5642ZM71.5269 85.0482C72.5189 85.0482 73.4696 84.8312 74.3789 84.3972C75.3089 83.9632 76.0633 83.3329 76.6419 82.5062C77.2206 81.6796 77.5099 80.7186 77.5099 79.6232C77.5099 78.5072 77.2206 77.5462 76.6419 76.7402C76.0633 75.9136 75.3089 75.2832 74.3789 74.8492C73.4696 74.4152 72.5189 74.1982 71.5269 74.1982C70.5556 74.1982 69.6049 74.4152 68.6749 74.8492C67.7656 75.2832 67.0113 75.9136 66.4119 76.7402C65.8333 77.5462 65.5439 78.5072 65.5439 79.6232C65.5439 80.7186 65.8333 81.6796 66.4119 82.5062C67.0113 83.3329 67.7656 83.9632 68.6749 84.3972C69.6049 84.8312 70.5556 85.0482 71.5269 85.0482ZM96.9288 91.0002H88.0938V68.0602L96.9288 91.0002ZM118.474 91.0002H109.639H118.474ZM109.639 80.9872V68.0602H118.474V91.0002H109.639L96.9288 78.0732V91.0002H88.0938V68.0602H96.9288L109.639 80.9872ZM163.35 68.0602V91.0002H154.515V82.5992L150.423 91.0002H142.518L138.147 82.5062V91.0002H129.312V68.0602H139.232L146.486 82.9092L153.709 68.0602H163.35ZM187.715 82.5062H174.044V84.8932L190.319 84.8002V91.0002H165.209V68.0602H190.319L190.35 74.2602H174.044V76.4612H187.715V82.5062Z" fill="white"/>
<g opacity="0.7" filter="url(#filter12_f_285_267)">
<circle cx="37.5002" cy="61.5002" r="9.5" fill="#A92684"/>
</g>
<g opacity="0.7" filter="url(#filter13_f_285_267)">
<ellipse cx="132.5" cy="37.5002" rx="10.5" ry="7.5" fill="#A92684"/>
</g>
<g filter="url(#filter14_f_285_267)">
<ellipse cx="192" cy="93.5002" rx="12" ry="8.5" fill="#A92684"/>
</g>
<path d="M211.448 79.9109L212.398 80.0344C212.294 80.6897 212.028 81.2035 211.598 81.5759C211.172 81.9447 210.647 82.1292 210.024 82.1292C209.244 82.1292 208.615 81.8749 208.139 81.3665C207.666 80.8544 207.43 80.1222 207.43 79.1697C207.43 78.5538 207.532 78.0149 207.736 77.553C207.94 77.0911 208.25 76.7455 208.665 76.5164C209.084 76.2836 209.539 76.1672 210.03 76.1672C210.649 76.1672 211.156 76.3248 211.55 76.6399C211.943 76.9514 212.196 77.3954 212.307 77.9719L211.367 78.1169C211.277 77.7338 211.118 77.4456 210.889 77.2522C210.663 77.0588 210.389 76.9622 210.067 76.9622C209.58 76.9622 209.184 77.1376 208.88 77.4885C208.576 77.8359 208.424 78.3873 208.424 79.1428C208.424 79.9091 208.57 80.4659 208.864 80.8132C209.158 81.1606 209.541 81.3342 210.013 81.3342C210.393 81.3342 210.71 81.2179 210.964 80.9851C211.218 80.7524 211.379 80.3943 211.448 79.9109ZM212.755 79.1482C212.755 78.0919 213.049 77.3095 213.636 76.801C214.127 76.3785 214.725 76.1672 215.43 76.1672C216.214 76.1672 216.855 76.425 217.353 76.9407C217.851 77.4527 218.1 78.1617 218.1 79.0676C218.1 79.8017 217.989 80.38 217.767 80.8025C217.548 81.2214 217.228 81.5473 216.805 81.78C216.386 82.0128 215.928 82.1292 215.43 82.1292C214.632 82.1292 213.985 81.8731 213.491 81.3611C213.001 80.849 212.755 80.1114 212.755 79.1482ZM213.749 79.1482C213.749 79.8787 213.908 80.4265 214.227 80.7917C214.546 81.1534 214.947 81.3342 215.43 81.3342C215.91 81.3342 216.309 81.1516 216.628 80.7864C216.947 80.4211 217.106 79.8643 217.106 79.116C217.106 78.4106 216.945 77.877 216.623 77.5154C216.304 77.1501 215.907 76.9675 215.43 76.9675C214.947 76.9675 214.546 77.1484 214.227 77.51C213.908 77.8717 213.749 78.4177 213.749 79.1482ZM219.128 82.0002V76.2961H219.993V77.0964C220.172 76.8171 220.41 76.5933 220.707 76.425C221.005 76.2532 221.343 76.1672 221.723 76.1672C222.145 76.1672 222.491 76.255 222.759 76.4304C223.031 76.6059 223.223 76.8512 223.334 77.1663C223.785 76.5002 224.372 76.1672 225.096 76.1672C225.661 76.1672 226.096 76.3248 226.401 76.6399C226.705 76.9514 226.857 77.433 226.857 78.0847V82.0002H225.896V78.407C225.896 78.0203 225.864 77.7428 225.799 77.5745C225.738 77.4026 225.626 77.2647 225.461 77.1609C225.296 77.057 225.103 77.0051 224.881 77.0051C224.48 77.0051 224.147 77.1394 223.882 77.408C223.617 77.6729 223.484 78.099 223.484 78.6863V82.0002H222.518V78.2942C222.518 77.8645 222.439 77.5422 222.281 77.3274C222.124 77.1125 221.866 77.0051 221.508 77.0051C221.236 77.0051 220.983 77.0767 220.75 77.22C220.521 77.3632 220.355 77.5727 220.251 77.8484C220.147 78.1241 220.095 78.5216 220.095 79.0408V82.0002H219.128ZM232.086 80.1633L233.085 80.2869C232.928 80.8705 232.636 81.3235 232.21 81.6458C231.784 81.968 231.239 82.1292 230.577 82.1292C229.743 82.1292 229.08 81.8731 228.59 81.3611C228.103 80.8455 227.859 80.1239 227.859 79.1965C227.859 78.2369 228.106 77.4921 228.6 76.9622C229.095 76.4322 229.736 76.1672 230.523 76.1672C231.286 76.1672 231.909 76.4268 232.392 76.946C232.876 77.4653 233.118 78.1957 233.118 79.1375C233.118 79.1947 233.116 79.2807 233.112 79.3953H228.858C228.894 80.0219 229.071 80.5017 229.39 80.8347C229.709 81.1677 230.106 81.3342 230.582 81.3342C230.937 81.3342 231.239 81.2411 231.49 81.0549C231.741 80.8687 231.939 80.5715 232.086 80.1633ZM228.912 78.6003H232.097C232.054 78.1205 231.932 77.7607 231.732 77.5208C231.424 77.1484 231.025 76.9622 230.534 76.9622C230.09 76.9622 229.716 77.1108 229.411 77.408C229.111 77.7052 228.944 78.1026 228.912 78.6003ZM239.257 81.1355L239.397 81.9895C239.124 82.0468 238.881 82.0754 238.666 82.0754C238.315 82.0754 238.043 82.0199 237.85 81.9089C237.656 81.7979 237.52 81.6529 237.441 81.4739C237.363 81.2913 237.323 80.9099 237.323 80.3298V77.0481H236.614V76.2961H237.323V74.8835L238.285 74.3035V76.2961H239.257V77.0481H238.285V80.3835C238.285 80.6593 238.301 80.8365 238.333 80.9153C238.369 80.9941 238.424 81.0567 238.5 81.1033C238.578 81.1498 238.689 81.1731 238.833 81.1731C238.94 81.1731 239.081 81.1606 239.257 81.1355ZM244.002 80.1633L245.001 80.2869C244.844 80.8705 244.552 81.3235 244.126 81.6458C243.7 81.968 243.156 82.1292 242.493 82.1292C241.659 82.1292 240.996 81.8731 240.506 81.3611C240.019 80.8455 239.775 80.1239 239.775 79.1965C239.775 78.2369 240.022 77.4921 240.517 76.9622C241.011 76.4322 241.652 76.1672 242.439 76.1672C243.202 76.1672 243.825 76.4268 244.309 76.946C244.792 77.4653 245.034 78.1957 245.034 79.1375C245.034 79.1947 245.032 79.2807 245.028 79.3953H240.774C240.81 80.0219 240.987 80.5017 241.306 80.8347C241.625 81.1677 242.022 81.3342 242.498 81.3342C242.853 81.3342 243.156 81.2411 243.406 81.0549C243.657 80.8687 243.856 80.5715 244.002 80.1633ZM240.828 78.6003H244.013C243.97 78.1205 243.848 77.7607 243.648 77.5208C243.34 77.1484 242.941 76.9622 242.45 76.9622C242.006 76.9622 241.632 77.1108 241.328 77.408C241.027 77.7052 240.86 78.1026 240.828 78.6003ZM249.833 81.2966C249.475 81.601 249.129 81.8158 248.796 81.9412C248.467 82.0665 248.112 82.1292 247.733 82.1292C247.106 82.1292 246.624 81.977 246.288 81.6726C245.951 81.3647 245.783 80.9726 245.783 80.4963C245.783 80.217 245.846 79.9628 245.971 79.7336C246.1 79.5009 246.266 79.3147 246.47 79.175C246.678 79.0354 246.911 78.9298 247.169 78.8582C247.358 78.808 247.645 78.7597 248.028 78.7131C248.809 78.62 249.383 78.509 249.752 78.3801C249.756 78.2476 249.758 78.1635 249.758 78.1277C249.758 77.7338 249.666 77.4563 249.484 77.2952C249.237 77.0767 248.87 76.9675 248.383 76.9675C247.928 76.9675 247.591 77.0481 247.373 77.2092C247.158 77.3668 246.999 77.6479 246.895 78.0525L245.949 77.9236C246.035 77.519 246.177 77.1931 246.374 76.946C246.571 76.6954 246.855 76.5038 247.228 76.3713C247.6 76.2353 248.032 76.1672 248.522 76.1672C249.009 76.1672 249.405 76.2245 249.709 76.3391C250.014 76.4537 250.237 76.5987 250.381 76.7742C250.524 76.946 250.624 77.1645 250.681 77.4294C250.714 77.5942 250.73 77.8914 250.73 78.321V79.6101C250.73 80.5089 250.749 81.0782 250.789 81.3181C250.832 81.5544 250.914 81.7818 251.036 82.0002H250.026C249.926 81.7997 249.861 81.5652 249.833 81.2966ZM249.752 79.1375C249.401 79.2807 248.875 79.4024 248.173 79.5027C247.776 79.56 247.495 79.6244 247.33 79.696C247.165 79.7677 247.038 79.8733 246.949 80.0129C246.859 80.149 246.814 80.3012 246.814 80.4695C246.814 80.7273 246.911 80.9421 247.104 81.114C247.301 81.2859 247.588 81.3718 247.964 81.3718C248.336 81.3718 248.667 81.2913 248.957 81.1301C249.247 80.9654 249.46 80.7416 249.596 80.4587C249.7 80.2403 249.752 79.9181 249.752 79.4919V79.1375ZM252.124 82.0002V76.2961H252.988V77.0964C253.167 76.8171 253.406 76.5933 253.703 76.425C254 76.2532 254.338 76.1672 254.718 76.1672C255.14 76.1672 255.486 76.255 255.755 76.4304C256.027 76.6059 256.218 76.8512 256.329 77.1663C256.78 76.5002 257.368 76.1672 258.091 76.1672C258.657 76.1672 259.092 76.3248 259.396 76.6399C259.7 76.9514 259.853 77.433 259.853 78.0847V82.0002H258.891V78.407C258.891 78.0203 258.859 77.7428 258.795 77.5745C258.734 77.4026 258.621 77.2647 258.456 77.1609C258.291 77.057 258.098 77.0051 257.876 77.0051C257.475 77.0051 257.142 77.1394 256.877 77.408C256.612 77.6729 256.48 78.099 256.48 78.6863V82.0002H255.513V78.2942C255.513 77.8645 255.434 77.5422 255.276 77.3274C255.119 77.1125 254.861 77.0051 254.503 77.0051C254.231 77.0051 253.978 77.0767 253.746 77.22C253.517 77.3632 253.35 77.5727 253.246 77.8484C253.142 78.1241 253.09 78.5216 253.09 79.0408V82.0002H252.124ZM268.033 80.1633L269.032 80.2869C268.875 80.8705 268.583 81.3235 268.157 81.6458C267.73 81.968 267.186 82.1292 266.524 82.1292C265.689 82.1292 265.027 81.8731 264.536 81.3611C264.049 80.8455 263.806 80.1239 263.806 79.1965C263.806 78.2369 264.053 77.4921 264.547 76.9622C265.041 76.4322 265.682 76.1672 266.47 76.1672C267.233 76.1672 267.856 76.4268 268.339 76.946C268.823 77.4653 269.064 78.1957 269.064 79.1375C269.064 79.1947 269.063 79.2807 269.059 79.3953H264.805C264.841 80.0219 265.018 80.5017 265.337 80.8347C265.655 81.1677 266.053 81.3342 266.529 81.3342C266.884 81.3342 267.186 81.2411 267.437 81.0549C267.688 80.8687 267.886 80.5715 268.033 80.1633ZM264.859 78.6003H268.044C268.001 78.1205 267.879 77.7607 267.679 77.5208C267.371 77.1484 266.971 76.9622 266.481 76.9622C266.037 76.9622 265.663 77.1108 265.358 77.408C265.057 77.7052 264.891 78.1026 264.859 78.6003ZM267.088 75.5872H266.309L265.068 74.0833H266.363L267.088 75.5872ZM207.725 96.1863V88.2961H208.606V89.0374C208.814 88.7473 209.048 88.5307 209.31 88.3875C209.571 88.2406 209.888 88.1672 210.26 88.1672C210.747 88.1672 211.177 88.2926 211.55 88.5432C211.922 88.7939 212.203 89.1484 212.393 89.6067C212.583 90.0614 212.677 90.561 212.677 91.1052C212.677 91.6889 212.572 92.2153 212.361 92.6843C212.153 93.1498 211.849 93.5079 211.448 93.7585C211.05 94.0056 210.631 94.1292 210.191 94.1292C209.868 94.1292 209.578 94.0611 209.321 93.925C209.066 93.789 208.857 93.6171 208.692 93.4094V96.1863H207.725ZM208.601 91.1804C208.601 91.9145 208.749 92.4569 209.047 92.8079C209.344 93.1588 209.704 93.3342 210.126 93.3342C210.556 93.3342 210.923 93.1534 211.227 92.7917C211.535 92.4265 211.689 91.8625 211.689 91.0999C211.689 90.373 211.539 89.8287 211.238 89.467C210.941 89.1054 210.585 88.9246 210.169 88.9246C209.757 88.9246 209.392 89.1179 209.073 89.5046C208.758 89.8878 208.601 90.4464 208.601 91.1804ZM217.643 92.1633L218.642 92.2869C218.485 92.8705 218.193 93.3235 217.767 93.6458C217.341 93.968 216.796 94.1292 216.134 94.1292C215.3 94.1292 214.637 93.8731 214.147 93.3611C213.66 92.8455 213.416 92.1239 213.416 91.1965C213.416 90.2369 213.663 89.4921 214.157 88.9622C214.651 88.4322 215.292 88.1672 216.08 88.1672C216.843 88.1672 217.466 88.4268 217.949 88.946C218.433 89.4653 218.674 90.1957 218.674 91.1375C218.674 91.1947 218.673 91.2807 218.669 91.3953H214.415C214.451 92.0219 214.628 92.5017 214.947 92.8347C215.266 93.1677 215.663 93.3342 216.139 93.3342C216.494 93.3342 216.796 93.2411 217.047 93.0549C217.298 92.8687 217.496 92.5715 217.643 92.1633ZM214.469 90.6003H217.654C217.611 90.1205 217.489 89.7607 217.289 89.5208C216.981 89.1484 216.581 88.9622 216.091 88.9622C215.647 88.9622 215.273 89.1108 214.968 89.408C214.668 89.7052 214.501 90.1026 214.469 90.6003ZM219.741 94.0002V88.2961H220.611V89.1609C220.833 88.7563 221.037 88.4895 221.223 88.3606C221.413 88.2317 221.621 88.1672 221.846 88.1672C222.172 88.1672 222.503 88.2711 222.84 88.4788L222.507 89.3757C222.27 89.2361 222.034 89.1663 221.798 89.1663C221.587 89.1663 221.397 89.2307 221.228 89.3596C221.06 89.4849 220.94 89.6604 220.869 89.886C220.761 90.2297 220.707 90.6057 220.707 91.0139V94.0002H219.741ZM228.367 93.1355L228.507 93.9895C228.234 94.0468 227.991 94.0754 227.776 94.0754C227.425 94.0754 227.153 94.0199 226.96 93.9089C226.766 93.7979 226.63 93.6529 226.551 93.4739C226.473 93.2913 226.433 92.9099 226.433 92.3298V89.0481H225.724V88.2961H226.433V86.8835L227.395 86.3035V88.2961H228.367V89.0481H227.395V92.3835C227.395 92.6593 227.411 92.8365 227.443 92.9153C227.479 92.9941 227.534 93.0567 227.61 93.1033C227.688 93.1498 227.799 93.1731 227.943 93.1731C228.05 93.1731 228.191 93.1606 228.367 93.1355ZM233.112 92.1633L234.111 92.2869C233.954 92.8705 233.662 93.3235 233.236 93.6458C232.81 93.968 232.266 94.1292 231.603 94.1292C230.769 94.1292 230.106 93.8731 229.616 93.3611C229.129 92.8455 228.885 92.1239 228.885 91.1965C228.885 90.2369 229.132 89.4921 229.627 88.9622C230.121 88.4322 230.762 88.1672 231.549 88.1672C232.312 88.1672 232.935 88.4268 233.419 88.946C233.902 89.4653 234.144 90.1957 234.144 91.1375C234.144 91.1947 234.142 91.2807 234.138 91.3953H229.884C229.92 92.0219 230.097 92.5017 230.416 92.8347C230.735 93.1677 231.132 93.3342 231.608 93.3342C231.963 93.3342 232.266 93.2411 232.516 93.0549C232.767 92.8687 232.966 92.5715 233.112 92.1633ZM229.938 90.6003H233.123C233.08 90.1205 232.958 89.7607 232.758 89.5208C232.45 89.1484 232.051 88.9622 231.56 88.9622C231.116 88.9622 230.742 89.1108 230.438 89.408C230.137 89.7052 229.97 90.1026 229.938 90.6003ZM237.785 92.2976L238.741 92.1472C238.795 92.5304 238.944 92.824 239.187 93.0281C239.434 93.2322 239.778 93.3342 240.219 93.3342C240.663 93.3342 240.992 93.2447 241.207 93.0657C241.422 92.8831 241.529 92.67 241.529 92.4265C241.529 92.2081 241.434 92.0362 241.244 91.9109C241.112 91.825 240.782 91.7157 240.256 91.5833C239.547 91.4042 239.055 91.2502 238.779 91.1213C238.507 90.9889 238.299 90.808 238.156 90.5789C238.016 90.3461 237.947 90.0901 237.947 89.8108C237.947 89.5566 238.004 89.322 238.118 89.1072C238.237 88.8888 238.396 88.7079 238.596 88.5647C238.747 88.4537 238.951 88.3606 239.209 88.2854C239.47 88.2066 239.749 88.1672 240.047 88.1672C240.494 88.1672 240.886 88.2317 241.223 88.3606C241.563 88.4895 241.814 88.665 241.975 88.887C242.136 89.1054 242.247 89.399 242.308 89.7678L241.363 89.8967C241.32 89.6031 241.194 89.3739 240.987 89.2092C240.782 89.0445 240.492 88.9622 240.116 88.9622C239.672 88.9622 239.356 89.0356 239.166 89.1824C238.976 89.3292 238.881 89.5011 238.881 89.698C238.881 89.8233 238.921 89.9361 238.999 90.0364C239.078 90.1402 239.202 90.2262 239.37 90.2942C239.467 90.33 239.751 90.4124 240.224 90.5413C240.908 90.7239 241.384 90.8743 241.653 90.9924C241.925 91.107 242.138 91.2753 242.292 91.4973C242.446 91.7193 242.523 91.995 242.523 92.3245C242.523 92.6467 242.428 92.9511 242.238 93.2375C242.052 93.5204 241.782 93.7406 241.427 93.8982C241.073 94.0522 240.671 94.1292 240.224 94.1292C239.483 94.1292 238.917 93.9752 238.527 93.6672C238.14 93.3593 237.893 92.9028 237.785 92.2976ZM247.467 92.1633L248.466 92.2869C248.308 92.8705 248.017 93.3235 247.59 93.6458C247.164 93.968 246.62 94.1292 245.958 94.1292C245.123 94.1292 244.461 93.8731 243.97 93.3611C243.483 92.8455 243.24 92.1239 243.24 91.1965C243.24 90.2369 243.487 89.4921 243.981 88.9622C244.475 88.4322 245.116 88.1672 245.904 88.1672C246.667 88.1672 247.29 88.4268 247.773 88.946C248.256 89.4653 248.498 90.1957 248.498 91.1375C248.498 91.1947 248.496 91.2807 248.493 91.3953H244.239C244.275 92.0219 244.452 92.5017 244.771 92.8347C245.089 93.1677 245.487 93.3342 245.963 93.3342C246.318 93.3342 246.62 93.2411 246.871 93.0549C247.121 92.8687 247.32 92.5715 247.467 92.1633ZM244.293 90.6003H247.478C247.435 90.1205 247.313 89.7607 247.112 89.5208C246.804 89.1484 246.405 88.9622 245.915 88.9622C245.471 88.9622 245.096 89.1108 244.792 89.408C244.491 89.7052 244.325 90.1026 244.293 90.6003ZM252.527 94.0002V86.1262H253.494V88.9514C253.945 88.4286 254.514 88.1672 255.202 88.1672C255.624 88.1672 255.991 88.2514 256.303 88.4197C256.614 88.5844 256.836 88.8136 256.969 89.1072C257.105 89.4008 257.173 89.8269 257.173 90.3855V94.0002H256.206V90.3855C256.206 89.9021 256.1 89.5512 255.889 89.3328C255.681 89.1108 255.386 88.9998 255.003 88.9998C254.716 88.9998 254.446 89.075 254.192 89.2253C253.941 89.3722 253.762 89.5727 253.655 89.8269C253.547 90.0811 253.494 90.432 253.494 90.8796V94.0002H252.527ZM262.262 93.2966C261.904 93.601 261.558 93.8158 261.225 93.9412C260.896 94.0665 260.541 94.1292 260.162 94.1292C259.535 94.1292 259.054 93.977 258.717 93.6726C258.38 93.3647 258.212 92.9726 258.212 92.4963C258.212 92.217 258.275 91.9628 258.4 91.7336C258.529 91.5009 258.696 91.3147 258.9 91.175C259.107 91.0354 259.34 90.9298 259.598 90.8582C259.788 90.808 260.074 90.7597 260.457 90.7131C261.238 90.62 261.813 90.509 262.181 90.3801C262.185 90.2476 262.187 90.1635 262.187 90.1277C262.187 89.7338 262.095 89.4563 261.913 89.2952C261.666 89.0767 261.299 88.9675 260.812 88.9675C260.357 88.9675 260.02 89.0481 259.802 89.2092C259.587 89.3668 259.428 89.6479 259.324 90.0525L258.379 89.9236C258.465 89.519 258.606 89.1931 258.803 88.946C259 88.6954 259.285 88.5038 259.657 88.3713C260.029 88.2353 260.461 88.1672 260.951 88.1672C261.438 88.1672 261.834 88.2245 262.138 88.3391C262.443 88.4537 262.667 88.5987 262.81 88.7742C262.953 88.946 263.053 89.1645 263.111 89.4294C263.143 89.5942 263.159 89.8914 263.159 90.321V91.6101C263.159 92.5089 263.179 93.0782 263.218 93.3181C263.261 93.5544 263.343 93.7818 263.465 94.0002H262.455C262.355 93.7997 262.291 93.5652 262.262 93.2966ZM262.181 91.1375C261.83 91.2807 261.304 91.4024 260.602 91.5027C260.205 91.56 259.924 91.6244 259.759 91.696C259.594 91.7677 259.467 91.8733 259.378 92.0129C259.288 92.149 259.243 92.3012 259.243 92.4695C259.243 92.7273 259.34 92.9421 259.533 93.114C259.73 93.2859 260.017 93.3718 260.393 93.3718C260.765 93.3718 261.096 93.2913 261.386 93.1301C261.676 92.9654 261.89 92.7416 262.026 92.4587C262.129 92.2403 262.181 91.9181 262.181 91.4919V91.1375ZM264.558 87.238V86.1262H265.525V87.238H264.558ZM264.558 94.0002V88.2961H265.525V94.0002H264.558ZM269.849 87.238V86.1262H270.816V87.238H269.849ZM269.849 94.0002V88.2961H270.816V94.0002H269.849ZM207.339 104.298L208.295 104.147C208.348 104.53 208.497 104.824 208.74 105.028C208.988 105.232 209.331 105.334 209.772 105.334C210.216 105.334 210.545 105.245 210.76 105.066C210.975 104.883 211.082 104.67 211.082 104.427C211.082 104.208 210.987 104.036 210.798 103.911C210.665 103.825 210.336 103.716 209.809 103.583C209.1 103.404 208.608 103.25 208.332 103.121C208.06 102.989 207.852 102.808 207.709 102.579C207.57 102.346 207.5 102.09 207.5 101.811C207.5 101.557 207.557 101.322 207.672 101.107C207.79 100.889 207.949 100.708 208.15 100.565C208.3 100.454 208.504 100.361 208.762 100.285C209.023 100.207 209.303 100.167 209.6 100.167C210.047 100.167 210.44 100.232 210.776 100.361C211.116 100.49 211.367 100.665 211.528 100.887C211.689 101.105 211.8 101.399 211.861 101.768L210.916 101.897C210.873 101.603 210.747 101.374 210.54 101.209C210.336 101.045 210.046 100.962 209.67 100.962C209.226 100.962 208.909 101.036 208.719 101.182C208.529 101.329 208.434 101.501 208.434 101.698C208.434 101.823 208.474 101.936 208.552 102.036C208.631 102.14 208.755 102.226 208.923 102.294C209.02 102.33 209.304 102.412 209.777 102.541C210.461 102.724 210.937 102.874 211.206 102.992C211.478 103.107 211.691 103.275 211.845 103.497C211.999 103.719 212.076 103.995 212.076 104.324C212.076 104.647 211.981 104.951 211.791 105.238C211.605 105.52 211.335 105.741 210.98 105.898C210.626 106.052 210.225 106.129 209.777 106.129C209.036 106.129 208.47 105.975 208.08 105.667C207.693 105.359 207.446 104.903 207.339 104.298ZM217.02 104.163L218.019 104.287C217.862 104.871 217.57 105.323 217.144 105.646C216.718 105.968 216.173 106.129 215.511 106.129C214.677 106.129 214.014 105.873 213.524 105.361C213.037 104.845 212.793 104.124 212.793 103.197C212.793 102.237 213.04 101.492 213.534 100.962C214.028 100.432 214.669 100.167 215.457 100.167C216.22 100.167 216.843 100.427 217.326 100.946C217.81 101.465 218.051 102.196 218.051 103.137C218.051 103.195 218.05 103.281 218.046 103.395H213.792C213.828 104.022 214.005 104.502 214.324 104.835C214.643 105.168 215.04 105.334 215.516 105.334C215.871 105.334 216.173 105.241 216.424 105.055C216.675 104.869 216.873 104.572 217.02 104.163ZM213.846 102.6H217.031C216.988 102.121 216.866 101.761 216.666 101.521C216.358 101.148 215.958 100.962 215.468 100.962C215.024 100.962 214.65 101.111 214.345 101.408C214.045 101.705 213.878 102.103 213.846 102.6ZM218.951 106.473L219.891 106.613C219.93 106.903 220.04 107.114 220.219 107.246C220.459 107.425 220.786 107.515 221.202 107.515C221.649 107.515 221.995 107.425 222.238 107.246C222.482 107.067 222.646 106.817 222.732 106.494C222.783 106.297 222.806 105.884 222.802 105.254C222.38 105.751 221.853 106 221.223 106C220.439 106 219.832 105.717 219.402 105.152C218.973 104.586 218.758 103.907 218.758 103.116C218.758 102.572 218.856 102.07 219.053 101.612C219.25 101.15 219.535 100.794 219.907 100.543C220.283 100.293 220.724 100.167 221.228 100.167C221.902 100.167 222.457 100.439 222.894 100.984V100.296H223.785V105.227C223.785 106.115 223.694 106.743 223.511 107.112C223.332 107.484 223.046 107.778 222.652 107.993C222.262 108.208 221.78 108.315 221.207 108.315C220.527 108.315 219.977 108.161 219.558 107.853C219.139 107.549 218.937 107.089 218.951 106.473ZM219.751 103.046C219.751 103.795 219.9 104.341 220.197 104.684C220.494 105.028 220.867 105.2 221.314 105.2C221.758 105.2 222.131 105.03 222.432 104.69C222.732 104.346 222.883 103.809 222.883 103.078C222.883 102.38 222.727 101.854 222.415 101.499C222.108 101.145 221.735 100.968 221.298 100.968C220.869 100.968 220.503 101.143 220.203 101.494C219.902 101.841 219.751 102.359 219.751 103.046ZM228.88 106V105.162C228.436 105.807 227.832 106.129 227.07 106.129C226.733 106.129 226.418 106.065 226.124 105.936C225.834 105.807 225.618 105.646 225.474 105.452C225.335 105.255 225.236 105.016 225.179 104.733C225.14 104.543 225.12 104.242 225.12 103.83V100.296H226.087V103.46C226.087 103.965 226.106 104.305 226.146 104.48C226.207 104.734 226.336 104.935 226.533 105.082C226.729 105.225 226.973 105.297 227.263 105.297C227.553 105.297 227.825 105.223 228.079 105.076C228.334 104.926 228.513 104.724 228.617 104.469C228.724 104.212 228.778 103.839 228.778 103.352V100.296H229.744V106H228.88ZM235.059 104.163L236.058 104.287C235.901 104.871 235.609 105.323 235.183 105.646C234.757 105.968 234.212 106.129 233.55 106.129C232.716 106.129 232.053 105.873 231.563 105.361C231.076 104.845 230.832 104.124 230.832 103.197C230.832 102.237 231.079 101.492 231.573 100.962C232.068 100.432 232.709 100.167 233.496 100.167C234.259 100.167 234.882 100.427 235.365 100.946C235.849 101.465 236.091 102.196 236.091 103.137C236.091 103.195 236.089 103.281 236.085 103.395H231.831C231.867 104.022 232.044 104.502 232.363 104.835C232.682 105.168 233.079 105.334 233.555 105.334C233.91 105.334 234.212 105.241 234.463 105.055C234.714 104.869 234.912 104.572 235.059 104.163ZM231.885 102.6H235.07C235.027 102.121 234.905 101.761 234.705 101.521C234.397 101.148 233.998 100.962 233.507 100.962C233.063 100.962 232.689 101.111 232.384 101.408C232.084 101.705 231.917 102.103 231.885 102.6ZM237.168 106V100.296H238.038V101.107C238.457 100.481 239.062 100.167 239.853 100.167C240.197 100.167 240.512 100.23 240.798 100.355C241.088 100.477 241.305 100.638 241.448 100.839C241.592 101.039 241.692 101.277 241.749 101.553C241.785 101.732 241.803 102.045 241.803 102.493V106H240.836V102.531C240.836 102.137 240.798 101.843 240.723 101.65C240.648 101.453 240.514 101.297 240.32 101.182C240.131 101.064 239.907 101.005 239.649 101.005C239.237 101.005 238.881 101.136 238.58 101.397C238.283 101.659 238.134 102.155 238.134 102.885V106H237.168ZM245.291 105.135L245.431 105.99C245.159 106.047 244.915 106.075 244.701 106.075C244.35 106.075 244.078 106.02 243.884 105.909C243.691 105.798 243.555 105.653 243.476 105.474C243.397 105.291 243.358 104.91 243.358 104.33V101.048H242.649V100.296H243.358V98.8835L244.319 98.3035V100.296H245.291V101.048H244.319V104.384C244.319 104.659 244.335 104.837 244.368 104.915C244.403 104.994 244.459 105.057 244.534 105.103C244.613 105.15 244.724 105.173 244.867 105.173C244.975 105.173 245.116 105.161 245.291 105.135ZM246.137 99.238V98.1262H247.104V99.238H246.137ZM246.137 106V100.296H247.104V106H246.137ZM251.063 103.148C251.063 102.092 251.357 101.309 251.944 100.801C252.434 100.378 253.032 100.167 253.738 100.167C254.522 100.167 255.163 100.425 255.661 100.941C256.158 101.453 256.407 102.162 256.407 103.068C256.407 103.802 256.296 104.38 256.074 104.802C255.856 105.221 255.535 105.547 255.113 105.78C254.694 106.013 254.236 106.129 253.738 106.129C252.939 106.129 252.293 105.873 251.799 105.361C251.308 104.849 251.063 104.111 251.063 103.148ZM252.057 103.148C252.057 103.879 252.216 104.427 252.535 104.792C252.853 105.153 253.254 105.334 253.738 105.334C254.218 105.334 254.617 105.152 254.936 104.786C255.254 104.421 255.414 103.864 255.414 103.116C255.414 102.411 255.252 101.877 254.93 101.515C254.611 101.15 254.214 100.968 253.738 100.968C253.254 100.968 252.853 101.148 252.535 101.51C252.216 101.872 252.057 102.418 252.057 103.148ZM258.327 106H257.431V98.1262H258.397V100.935C258.806 100.423 259.327 100.167 259.96 100.167C260.311 100.167 260.642 100.239 260.954 100.382C261.269 100.522 261.527 100.72 261.727 100.978C261.931 101.233 262.091 101.54 262.205 101.902C262.32 102.264 262.377 102.65 262.377 103.062C262.377 104.04 262.136 104.795 261.652 105.329C261.169 105.862 260.589 106.129 259.912 106.129C259.239 106.129 258.711 105.848 258.327 105.286V106ZM258.317 103.105C258.317 103.789 258.41 104.283 258.596 104.588C258.9 105.085 259.312 105.334 259.831 105.334C260.254 105.334 260.619 105.152 260.927 104.786C261.235 104.418 261.389 103.87 261.389 103.143C261.389 102.398 261.24 101.848 260.943 101.494C260.65 101.139 260.293 100.962 259.874 100.962C259.452 100.962 259.087 101.147 258.779 101.515C258.471 101.881 258.317 102.411 258.317 103.105ZM263.454 99.238V98.1262H264.421V99.238H263.454ZM263.454 106V100.296H264.421V106H263.454ZM269.693 104.163L270.692 104.287C270.534 104.871 270.243 105.323 269.816 105.646C269.39 105.968 268.846 106.129 268.184 106.129C267.349 106.129 266.687 105.873 266.196 105.361C265.709 104.845 265.466 104.124 265.466 103.197C265.466 102.237 265.713 101.492 266.207 100.962C266.701 100.432 267.342 100.167 268.13 100.167C268.893 100.167 269.516 100.427 269.999 100.946C270.482 101.465 270.724 102.196 270.724 103.137C270.724 103.195 270.722 103.281 270.719 103.395H266.465C266.501 104.022 266.678 104.502 266.997 104.835C267.315 105.168 267.713 105.334 268.189 105.334C268.544 105.334 268.846 105.241 269.097 105.055C269.347 104.869 269.546 104.572 269.693 104.163ZM266.519 102.6H269.704C269.661 102.121 269.539 101.761 269.338 101.521C269.031 101.148 268.631 100.962 268.141 100.962C267.697 100.962 267.322 101.111 267.018 101.408C266.717 101.705 266.551 102.103 266.519 102.6ZM273.912 105.135L274.052 105.99C273.78 106.047 273.536 106.075 273.321 106.075C272.97 106.075 272.698 106.02 272.505 105.909C272.311 105.798 272.175 105.653 272.097 105.474C272.018 105.291 271.978 104.91 271.978 104.33V101.048H271.269V100.296H271.978V98.8835L272.94 98.3035V100.296H273.912V101.048H272.94V104.384C272.94 104.659 272.956 104.837 272.988 104.915C273.024 104.994 273.08 105.057 273.155 105.103C273.233 105.15 273.344 105.173 273.488 105.173C273.595 105.173 273.737 105.161 273.912 105.135ZM276.864 105.135L277.003 105.99C276.731 106.047 276.488 106.075 276.273 106.075C275.922 106.075 275.65 106.02 275.456 105.909C275.263 105.798 275.127 105.653 275.048 105.474C274.969 105.291 274.93 104.91 274.93 104.33V101.048H274.221V100.296H274.93V98.8835L275.891 98.3035V100.296H276.864V101.048H275.891V104.384C275.891 104.659 275.908 104.837 275.94 104.915C275.976 104.994 276.031 105.057 276.106 105.103C276.185 105.15 276.296 105.173 276.439 105.173C276.547 105.173 276.688 105.161 276.864 105.135ZM277.71 99.238V98.1262H278.676V99.238H277.71ZM277.71 106V100.296H278.676V106H277.71ZM281.628 106L279.458 100.296H280.479L281.703 103.712C281.836 104.081 281.957 104.464 282.068 104.862C282.154 104.561 282.274 104.199 282.428 103.777L283.696 100.296H284.689L282.53 106H281.628ZM285.439 99.238V98.1262H286.406V99.238H285.439ZM285.439 106V100.296H286.406V106H285.439Z" fill="white"/>
<rect x="200" y="74" width="1" height="34" fill="white"/>
<defs>
<filter id="filter0_f_285_267" x="-1.49976" y="9.50024" width="107" height="107" filterUnits="userSpaceOnUse" color-interpolation-filters="sRGB">
<feFlood flood-opacity="0" result="BackgroundImageFix"/>
<feBlend mode="normal" in="SourceGraphic" in2="BackgroundImageFix" result="shape"/>
<feGaussianBlur stdDeviation="12.75" result="effect1_foregroundBlur_285_267"/>
</filter>
<filter id="filter1_f_285_267" x="38.5002" y="0.500244" width="125" height="107" filterUnits="userSpaceOnUse" color-interpolation-filters="sRGB">
<feFlood flood-opacity="0" result="BackgroundImageFix"/>
<feBlend mode="normal" in="SourceGraphic" in2="BackgroundImageFix" result="shape"/>
<feGaussianBlur stdDeviation="12.75" result="effect1_foregroundBlur_285_267"/>
</filter>
<filter id="filter2_f_285_267" x="-10.4998" y="46.5002" width="83" height="85" filterUnits="userSpaceOnUse" color-interpolation-filters="sRGB">
<feFlood flood-opacity="0" result="BackgroundImageFix"/>
<feBlend mode="normal" in="SourceGraphic" in2="BackgroundImageFix" result="shape"/>
<feGaussianBlur stdDeviation="12.75" result="effect1_foregroundBlur_285_267"/>
</filter>
<filter id="filter3_f_285_267" x="15.4002" y="66.4002" width="37.2" height="39.2" filterUnits="userSpaceOnUse" color-interpolation-filters="sRGB">
<feFlood flood-opacity="0" result="BackgroundImageFix"/>
<feBlend mode="normal" in="SourceGraphic" in2="BackgroundImageFix" result="shape"/>
<feGaussianBlur stdDeviation="3.8" result="effect1_foregroundBlur_285_267"/>
</filter>
<filter id="filter4_f_285_267" x="-12.4998" y="0.500244" width="83" height="85" filterUnits="userSpaceOnUse" color-interpolation-filters="sRGB">
<feFlood flood-opacity="0" result="BackgroundImageFix"/>
<feBlend mode="normal" in="SourceGraphic" in2="BackgroundImageFix" result="shape"/>
<feGaussianBlur stdDeviation="12.75" result="effect1_foregroundBlur_285_267"/>
</filter>
<filter id="filter5_f_285_267" x="88.5002" y="7.50024" width="143" height="121" filterUnits="userSpaceOnUse" color-interpolation-filters="sRGB">
<feFlood flood-opacity="0" result="BackgroundImageFix"/>
<feBlend mode="normal" in="SourceGraphic" in2="BackgroundImageFix" result="shape"/>
<feGaussianBlur stdDeviation="12.75" result="effect1_foregroundBlur_285_267"/>
</filter>
<filter id="filter6_f_285_267" x="82.2002" y="32.2002" width="78.6" height="78.6" filterUnits="userSpaceOnUse" color-interpolation-filters="sRGB">
<feFlood flood-opacity="0" result="BackgroundImageFix"/>
<feBlend mode="normal" in="SourceGraphic" in2="BackgroundImageFix" result="shape"/>
<feGaussianBlur stdDeviation="7.9" result="effect1_foregroundBlur_285_267"/>
</filter>
<filter id="filter7_f_285_267" x="162.2" y="13.2" width="104.6" height="104.6" filterUnits="userSpaceOnUse" color-interpolation-filters="sRGB">
<feFlood flood-opacity="0" result="BackgroundImageFix"/>
<feBlend mode="normal" in="SourceGraphic" in2="BackgroundImageFix" result="shape"/>
<feGaussianBlur stdDeviation="7.9" result="effect1_foregroundBlur_285_267"/>
</filter>
<filter id="filter8_f_285_267" x="26.5002" y="32.5002" width="111" height="98" filterUnits="userSpaceOnUse" color-interpolation-filters="sRGB">
<feFlood flood-opacity="0" result="BackgroundImageFix"/>
<feBlend mode="normal" in="SourceGraphic" in2="BackgroundImageFix" result="shape"/>
<feGaussianBlur stdDeviation="12.75" result="effect1_foregroundBlur_285_267"/>
</filter>
<filter id="filter9_f_285_267" x="69.4002" y="61.4002" width="37.2" height="39.2" filterUnits="userSpaceOnUse" color-interpolation-filters="sRGB">
<feFlood flood-opacity="0" result="BackgroundImageFix"/>
<feBlend mode="normal" in="SourceGraphic" in2="BackgroundImageFix" result="shape"/>
<feGaussianBlur stdDeviation="3.8" result="effect1_foregroundBlur_285_267"/>
</filter>
<filter id="filter10_f_285_267" x="41.4002" y="23.4002" width="54.2" height="39.2" filterUnits="userSpaceOnUse" color-interpolation-filters="sRGB">
<feFlood flood-opacity="0" result="BackgroundImageFix"/>
<feBlend mode="normal" in="SourceGraphic" in2="BackgroundImageFix" result="shape"/>
<feGaussianBlur stdDeviation="3.8" result="effect1_foregroundBlur_285_267"/>
</filter>
<filter id="filter11_f_285_267" x="124.4" y="59.4002" width="43.2" height="46.2" filterUnits="userSpaceOnUse" color-interpolation-filters="sRGB">
<feFlood flood-opacity="0" result="BackgroundImageFix"/>
<feBlend mode="normal" in="SourceGraphic" in2="BackgroundImageFix" result="shape"/>
<feGaussianBlur stdDeviation="3.8" result="effect1_foregroundBlur_285_267"/>
</filter>
<filter id="filter12_f_285_267" x="14.3002" y="38.3002" width="46.4" height="46.4" filterUnits="userSpaceOnUse" color-interpolation-filters="sRGB">
<feFlood flood-opacity="0" result="BackgroundImageFix"/>
<feBlend mode="normal" in="SourceGraphic" in2="BackgroundImageFix" result="shape"/>
<feGaussianBlur stdDeviation="6.85" result="effect1_foregroundBlur_285_267"/>
</filter>
<filter id="filter13_f_285_267" x="108.3" y="16.3002" width="48.4" height="42.4" filterUnits="userSpaceOnUse" color-interpolation-filters="sRGB">
<feFlood flood-opacity="0" result="BackgroundImageFix"/>
<feBlend mode="normal" in="SourceGraphic" in2="BackgroundImageFix" result="shape"/>
<feGaussianBlur stdDeviation="6.85" result="effect1_foregroundBlur_285_267"/>
</filter>
<filter id="filter14_f_285_267" x="166.3" y="71.3002" width="51.4" height="44.4" filterUnits="userSpaceOnUse" color-interpolation-filters="sRGB">
<feFlood flood-opacity="0" result="BackgroundImageFix"/>
<feBlend mode="normal" in="SourceGraphic" in2="BackgroundImageFix" result="shape"/>
<feGaussianBlur stdDeviation="6.85" result="effect1_foregroundBlur_285_267"/>
</filter>
</defs>
</svg>
