<svg width="236" height="234" viewBox="0 0 236 234" fill="none" xmlns="http://www.w3.org/2000/svg">
<g filter="url(#filter0_f_285_157)">
<circle cx="85.2466" cy="69.3887" r="38.9041" fill="#A92684" fill-opacity="0.9"/>
</g>
<g filter="url(#filter1_f_285_157)">
<ellipse cx="113.487" cy="157.829" rx="21.7719" ry="29.492" transform="rotate(-97.4821 113.487 157.829)" fill="#A92684"/>
</g>
<g filter="url(#filter2_f_285_157)">
<ellipse cx="132.117" cy="177.555" rx="21.7719" ry="23.9834" transform="rotate(-97.4821 132.117 177.555)" fill="#A92684" fill-opacity="0.9"/>
</g>
<g filter="url(#filter3_f_285_157)">
<circle cx="77.5753" cy="152.676" r="24.6575" fill="#A92684"/>
</g>
<g filter="url(#filter4_f_285_157)">
<circle cx="83.0548" cy="152.676" r="19.1781" fill="#A92684"/>
</g>
<g filter="url(#filter5_f_285_157)">
<ellipse cx="54.0137" cy="114.32" rx="23.0137" ry="19.1781" fill="#A92684" fill-opacity="0.6"/>
</g>
<g filter="url(#filter6_f_285_157)">
<circle cx="152.096" cy="84.7313" r="38.9041" fill="#A92684" fill-opacity="0.6"/>
</g>
<g filter="url(#filter7_f_285_157)">
<circle cx="104.973" cy="114.32" r="38.9041" fill="#A92684"/>
</g>
<g filter="url(#filter8_f_285_157)">
<circle cx="101.685" cy="91.3065" r="19.1781" fill="#CD4FA9"/>
</g>
<g filter="url(#filter9_f_285_157)">
<ellipse cx="138.724" cy="140.124" rx="22.4658" ry="19.1781" transform="rotate(-27.8271 138.724 140.124)" fill="#A92684"/>
</g>
<path d="M151.365 43.1479C151.365 42.0916 151.659 41.3092 152.246 40.8008C152.737 40.3783 153.335 40.167 154.04 40.167C154.824 40.167 155.465 40.4248 155.963 40.9404C156.461 41.4525 156.709 42.1615 156.709 43.0674C156.709 43.8014 156.598 44.3797 156.376 44.8022C156.158 45.2212 155.838 45.547 155.415 45.7798C154.996 46.0125 154.538 46.1289 154.04 46.1289C153.242 46.1289 152.595 45.8729 152.101 45.3608C151.611 44.8488 151.365 44.1112 151.365 43.1479ZM152.359 43.1479C152.359 43.8784 152.518 44.4263 152.837 44.7915C153.156 45.1532 153.557 45.334 154.04 45.334C154.52 45.334 154.919 45.1514 155.238 44.7861C155.556 44.4209 155.716 43.8641 155.716 43.1157C155.716 42.4103 155.555 41.8768 155.232 41.5151C154.914 41.1499 154.516 40.9673 154.04 40.9673C153.557 40.9673 153.156 41.1481 152.837 41.5098C152.518 41.8714 152.359 42.4175 152.359 43.1479ZM159.849 45.1353L159.989 45.9893C159.716 46.0465 159.473 46.0752 159.258 46.0752C158.907 46.0752 158.635 46.0197 158.442 45.9087C158.248 45.7977 158.112 45.6527 158.034 45.4736C157.955 45.291 157.915 44.9097 157.915 44.3296V41.0479H157.206V40.2959H157.915V38.8833L158.877 38.3032V40.2959H159.849V41.0479H158.877V44.3833C158.877 44.659 158.893 44.8363 158.925 44.915C158.961 44.9938 159.016 45.0565 159.092 45.103C159.17 45.1496 159.281 45.1729 159.425 45.1729C159.532 45.1729 159.674 45.1603 159.849 45.1353ZM162.801 45.1353L162.94 45.9893C162.668 46.0465 162.425 46.0752 162.21 46.0752C161.859 46.0752 161.587 46.0197 161.393 45.9087C161.2 45.7977 161.064 45.6527 160.985 45.4736C160.906 45.291 160.867 44.9097 160.867 44.3296V41.0479H160.158V40.2959H160.867V38.8833L161.828 38.3032V40.2959H162.801V41.0479H161.828V44.3833C161.828 44.659 161.844 44.8363 161.877 44.915C161.912 44.9938 161.968 45.0565 162.043 45.103C162.122 45.1496 162.233 45.1729 162.376 45.1729C162.484 45.1729 162.625 45.1603 162.801 45.1353ZM167.546 44.1631L168.545 44.2866C168.387 44.8703 168.096 45.3232 167.67 45.6455C167.243 45.9678 166.699 46.1289 166.037 46.1289C165.202 46.1289 164.54 45.8729 164.049 45.3608C163.562 44.8452 163.319 44.1237 163.319 43.1963C163.319 42.2367 163.566 41.4919 164.06 40.9619C164.554 40.432 165.195 40.167 165.983 40.167C166.746 40.167 167.369 40.4266 167.852 40.9458C168.336 41.465 168.577 42.1955 168.577 43.1372C168.577 43.1945 168.575 43.2804 168.572 43.395H164.318C164.354 44.0216 164.531 44.5015 164.85 44.8345C165.168 45.1675 165.566 45.334 166.042 45.334C166.397 45.334 166.699 45.2409 166.95 45.0547C167.2 44.8685 167.399 44.5713 167.546 44.1631ZM164.372 42.6001H167.557C167.514 42.1203 167.392 41.7604 167.191 41.5205C166.884 41.1481 166.484 40.9619 165.994 40.9619C165.55 40.9619 165.176 41.1105 164.871 41.4077C164.57 41.7049 164.404 42.1024 164.372 42.6001ZM169.643 46V40.2959H170.514V41.1606C170.736 40.756 170.94 40.4893 171.126 40.3604C171.316 40.2314 171.523 40.167 171.749 40.167C172.075 40.167 172.406 40.2708 172.743 40.4785L172.41 41.3755C172.173 41.2358 171.937 41.166 171.701 41.166C171.489 41.166 171.3 41.2305 171.131 41.3594C170.963 41.4847 170.843 41.6602 170.771 41.8857C170.664 42.2295 170.61 42.6055 170.61 43.0137V46H169.643ZM173.197 46V40.2959H174.067V41.1606C174.289 40.756 174.493 40.4893 174.679 40.3604C174.869 40.2314 175.076 40.167 175.302 40.167C175.628 40.167 175.959 40.2708 176.296 40.4785L175.963 41.3755C175.726 41.2358 175.49 41.166 175.254 41.166C175.042 41.166 174.853 41.2305 174.684 41.3594C174.516 41.4847 174.396 41.6602 174.325 41.8857C174.217 42.2295 174.163 42.6055 174.163 43.0137V46H173.197ZM180.665 44.1631L181.664 44.2866C181.507 44.8703 181.215 45.3232 180.789 45.6455C180.363 45.9678 179.818 46.1289 179.156 46.1289C178.322 46.1289 177.659 45.8729 177.169 45.3608C176.682 44.8452 176.438 44.1237 176.438 43.1963C176.438 42.2367 176.685 41.4919 177.179 40.9619C177.673 40.432 178.314 40.167 179.102 40.167C179.865 40.167 180.488 40.4266 180.971 40.9458C181.455 41.465 181.696 42.1955 181.696 43.1372C181.696 43.1945 181.695 43.2804 181.691 43.395H177.437C177.473 44.0216 177.65 44.5015 177.969 44.8345C178.288 45.1675 178.685 45.334 179.161 45.334C179.516 45.334 179.818 45.2409 180.069 45.0547C180.32 44.8685 180.518 44.5713 180.665 44.1631ZM177.491 42.6001H180.676C180.633 42.1203 180.511 41.7604 180.311 41.5205C180.003 41.1481 179.604 40.9619 179.113 40.9619C178.669 40.9619 178.295 41.1105 177.99 41.4077C177.69 41.7049 177.523 42.1024 177.491 42.6001ZM184.884 45.1353L185.024 45.9893C184.752 46.0465 184.508 46.0752 184.293 46.0752C183.943 46.0752 183.67 46.0197 183.477 45.9087C183.284 45.7977 183.148 45.6527 183.069 45.4736C182.99 45.291 182.951 44.9097 182.951 44.3296V41.0479H182.242V40.2959H182.951V38.8833L183.912 38.3032V40.2959H184.884V41.0479H183.912V44.3833C183.912 44.659 183.928 44.8363 183.96 44.915C183.996 44.9938 184.052 45.0565 184.127 45.103C184.206 45.1496 184.317 45.1729 184.46 45.1729C184.567 45.1729 184.709 45.1603 184.884 45.1353ZM189.63 44.1631L190.629 44.2866C190.471 44.8703 190.179 45.3232 189.753 45.6455C189.327 45.9678 188.783 46.1289 188.12 46.1289C187.286 46.1289 186.624 45.8729 186.133 45.3608C185.646 44.8452 185.403 44.1237 185.403 43.1963C185.403 42.2367 185.65 41.4919 186.144 40.9619C186.638 40.432 187.279 40.167 188.067 40.167C188.829 40.167 189.453 40.4266 189.936 40.9458C190.419 41.465 190.661 42.1955 190.661 43.1372C190.661 43.1945 190.659 43.2804 190.656 43.395H186.402C186.438 44.0216 186.615 44.5015 186.933 44.8345C187.252 45.1675 187.65 45.334 188.126 45.334C188.48 45.334 188.783 45.2409 189.034 45.0547C189.284 44.8685 189.483 44.5713 189.63 44.1631ZM186.455 42.6001H189.641C189.598 42.1203 189.476 41.7604 189.275 41.5205C188.967 41.1481 188.568 40.9619 188.078 40.9619C187.634 40.9619 187.259 41.1105 186.955 41.4077C186.654 41.7049 186.488 42.1024 186.455 42.6001ZM151.338 57.2974L152.294 57.147C152.348 57.5301 152.497 57.8237 152.74 58.0278C152.987 58.2319 153.331 58.334 153.771 58.334C154.215 58.334 154.545 58.2445 154.76 58.0654C154.975 57.8828 155.082 57.6698 155.082 57.4263C155.082 57.2078 154.987 57.036 154.797 56.9106C154.665 56.8247 154.335 56.7155 153.809 56.583C153.1 56.404 152.608 56.25 152.332 56.1211C152.06 55.9886 151.852 55.8078 151.709 55.5786C151.569 55.3459 151.5 55.0898 151.5 54.8105C151.5 54.5563 151.557 54.3218 151.671 54.1069C151.79 53.8885 151.949 53.7077 152.149 53.5645C152.3 53.4535 152.504 53.3604 152.762 53.2852C153.023 53.2064 153.302 53.167 153.6 53.167C154.047 53.167 154.439 53.2314 154.776 53.3604C155.116 53.4893 155.367 53.6647 155.528 53.8867C155.689 54.1051 155.8 54.3988 155.861 54.7676L154.916 54.8965C154.873 54.6029 154.747 54.3737 154.54 54.209C154.335 54.0443 154.045 53.9619 153.669 53.9619C153.225 53.9619 152.909 54.0353 152.719 54.1821C152.529 54.3289 152.434 54.5008 152.434 54.6978C152.434 54.8231 152.473 54.9359 152.552 55.0361C152.631 55.14 152.755 55.2259 152.923 55.2939C153.02 55.3298 153.304 55.4121 153.777 55.541C154.461 55.7236 154.937 55.874 155.206 55.9922C155.478 56.1068 155.691 56.2751 155.845 56.4971C155.999 56.7191 156.076 56.9948 156.076 57.3242C156.076 57.6465 155.981 57.9508 155.791 58.2373C155.605 58.5202 155.334 58.7404 154.98 58.8979C154.625 59.0519 154.224 59.1289 153.777 59.1289C153.036 59.1289 152.47 58.9749 152.08 58.667C151.693 58.359 151.446 57.9025 151.338 57.2974ZM161.02 57.1631L162.019 57.2866C161.861 57.8703 161.57 58.3232 161.143 58.6455C160.717 58.9678 160.173 59.1289 159.511 59.1289C158.676 59.1289 158.014 58.8729 157.523 58.3608C157.036 57.8452 156.793 57.1237 156.793 56.1963C156.793 55.2367 157.04 54.4919 157.534 53.9619C158.028 53.432 158.669 53.167 159.457 53.167C160.22 53.167 160.843 53.4266 161.326 53.9458C161.809 54.465 162.051 55.1955 162.051 56.1372C162.051 56.1945 162.049 56.2804 162.046 56.395H157.792C157.828 57.0216 158.005 57.5015 158.324 57.8345C158.642 58.1675 159.04 58.334 159.516 58.334C159.87 58.334 160.173 58.2409 160.424 58.0547C160.674 57.8685 160.873 57.5713 161.02 57.1631ZM157.846 55.6001H161.031C160.988 55.1203 160.866 54.7604 160.665 54.5205C160.357 54.1481 159.958 53.9619 159.468 53.9619C159.024 53.9619 158.649 54.1105 158.345 54.4077C158.044 54.7049 157.878 55.1024 157.846 55.6001ZM162.951 59.4727L163.891 59.6123C163.93 59.9023 164.039 60.1136 164.218 60.2461C164.458 60.4251 164.786 60.5146 165.201 60.5146C165.649 60.5146 165.995 60.4251 166.238 60.2461C166.481 60.0671 166.646 59.8164 166.732 59.4941C166.782 59.2972 166.806 58.8836 166.802 58.2534C166.379 58.7511 165.853 59 165.223 59C164.439 59 163.832 58.7171 163.402 58.1514C162.972 57.5856 162.758 56.9071 162.758 56.1157C162.758 55.5715 162.856 55.0701 163.053 54.6118C163.25 54.1499 163.535 53.7936 163.907 53.543C164.283 53.2923 164.723 53.167 165.228 53.167C165.901 53.167 166.456 53.4391 166.893 53.9834V53.2959H167.785V58.2266C167.785 59.1146 167.694 59.743 167.511 60.1118C167.332 60.4842 167.045 60.7778 166.652 60.9927C166.261 61.2075 165.78 61.3149 165.207 61.3149C164.526 61.3149 163.977 61.161 163.558 60.853C163.139 60.5487 162.937 60.0885 162.951 59.4727ZM163.751 56.0459C163.751 56.7943 163.9 57.3403 164.197 57.6841C164.494 58.0278 164.867 58.1997 165.314 58.1997C165.758 58.1997 166.131 58.0296 166.431 57.6895C166.732 57.3457 166.883 56.8086 166.883 56.0781C166.883 55.3799 166.727 54.8535 166.415 54.499C166.107 54.1445 165.735 53.9673 165.298 53.9673C164.868 53.9673 164.503 54.1427 164.202 54.4937C163.902 54.841 163.751 55.3584 163.751 56.0459ZM172.879 59V58.1621C172.435 58.8066 171.832 59.1289 171.069 59.1289C170.733 59.1289 170.418 59.0645 170.124 58.9355C169.834 58.8066 169.617 58.6455 169.474 58.4521C169.335 58.2552 169.236 58.0153 169.179 57.7324C169.139 57.5426 169.12 57.2419 169.12 56.8301V53.2959H170.087V56.4595C170.087 56.9644 170.106 57.3045 170.146 57.48C170.206 57.7342 170.335 57.9347 170.532 58.0815C170.729 58.2248 170.973 58.2964 171.263 58.2964C171.553 58.2964 171.825 58.223 172.079 58.0762C172.333 57.9258 172.512 57.7235 172.616 57.4692C172.724 57.2114 172.777 56.839 172.777 56.3521V53.2959H173.744V59H172.879ZM179.059 57.1631L180.058 57.2866C179.9 57.8703 179.609 58.3232 179.183 58.6455C178.756 58.9678 178.212 59.1289 177.55 59.1289C176.715 59.1289 176.053 58.8729 175.562 58.3608C175.075 57.8452 174.832 57.1237 174.832 56.1963C174.832 55.2367 175.079 54.4919 175.573 53.9619C176.067 53.432 176.708 53.167 177.496 53.167C178.259 53.167 178.882 53.4266 179.365 53.9458C179.849 54.465 180.09 55.1955 180.09 56.1372C180.09 56.1945 180.088 56.2804 180.085 56.395H175.831C175.867 57.0216 176.044 57.5015 176.363 57.8345C176.681 58.1675 177.079 58.334 177.555 58.334C177.91 58.334 178.212 58.2409 178.463 58.0547C178.713 57.8685 178.912 57.5713 179.059 57.1631ZM175.885 55.6001H179.07C179.027 55.1203 178.905 54.7604 178.705 54.5205C178.397 54.1481 177.997 53.9619 177.507 53.9619C177.063 53.9619 176.689 54.1105 176.384 54.4077C176.083 54.7049 175.917 55.1024 175.885 55.6001ZM181.167 59V53.2959H182.037V54.1069C182.456 53.4803 183.061 53.167 183.853 53.167C184.197 53.167 184.512 53.2297 184.798 53.355C185.088 53.4767 185.305 53.6379 185.448 53.8384C185.591 54.0389 185.692 54.277 185.749 54.5527C185.785 54.7318 185.803 55.0451 185.803 55.4927V59H184.836V55.5303C184.836 55.1364 184.798 54.8428 184.723 54.6494C184.648 54.4525 184.513 54.2967 184.32 54.1821C184.13 54.064 183.907 54.0049 183.649 54.0049C183.237 54.0049 182.881 54.1356 182.58 54.397C182.283 54.6584 182.134 55.1543 182.134 55.8848V59H181.167ZM190.881 59V58.2803C190.519 58.846 189.988 59.1289 189.286 59.1289C188.831 59.1289 188.412 59.0036 188.029 58.7529C187.649 58.5023 187.354 58.1532 187.143 57.7056C186.935 57.2544 186.831 56.737 186.831 56.1533C186.831 55.584 186.926 55.0684 187.116 54.6064C187.306 54.141 187.59 53.7847 187.97 53.5376C188.349 53.2905 188.774 53.167 189.243 53.167C189.587 53.167 189.893 53.2404 190.161 53.3872C190.43 53.5304 190.648 53.7184 190.817 53.9512V51.126H191.778V59H190.881ZM187.825 56.1533C187.825 56.8838 187.979 57.4299 188.287 57.7915C188.595 58.1532 188.958 58.334 189.377 58.334C189.8 58.334 190.158 58.1621 190.451 57.8184C190.749 57.471 190.897 56.9429 190.897 56.2339C190.897 55.4533 190.747 54.8804 190.446 54.5151C190.145 54.1499 189.775 53.9673 189.334 53.9673C188.904 53.9673 188.545 54.1427 188.255 54.4937C187.968 54.8446 187.825 55.3978 187.825 56.1533ZM192.834 56.1479C192.834 55.0916 193.127 54.3092 193.714 53.8008C194.205 53.3783 194.803 53.167 195.508 53.167C196.292 53.167 196.933 53.4248 197.431 53.9404C197.929 54.4525 198.178 55.1615 198.178 56.0674C198.178 56.8014 198.067 57.3797 197.845 57.8022C197.626 58.2212 197.306 58.547 196.883 58.7798C196.464 59.0125 196.006 59.1289 195.508 59.1289C194.71 59.1289 194.063 58.8729 193.569 58.3608C193.079 57.8488 192.834 57.1112 192.834 56.1479ZM193.827 56.1479C193.827 56.8784 193.987 57.4263 194.305 57.7915C194.624 58.1532 195.025 58.334 195.508 58.334C195.988 58.334 196.387 58.1514 196.706 57.7861C197.025 57.4209 197.184 56.8641 197.184 56.1157C197.184 55.4103 197.023 54.8768 196.701 54.5151C196.382 54.1499 195.985 53.9673 195.508 53.9673C195.025 53.9673 194.624 54.1481 194.305 54.5098C193.987 54.8714 193.827 55.4175 193.827 56.1479ZM202.136 59V51.126H203.103V59H202.136ZM208.219 58.2964C207.861 58.6007 207.516 58.8156 207.183 58.9409C206.853 59.0662 206.499 59.1289 206.119 59.1289C205.493 59.1289 205.011 58.9767 204.674 58.6724C204.338 58.3644 204.17 57.9723 204.17 57.4961C204.17 57.2168 204.232 56.9626 204.358 56.7334C204.486 56.5007 204.653 56.3145 204.857 56.1748C205.065 56.0352 205.297 55.9295 205.555 55.8579C205.745 55.8078 206.032 55.7594 206.415 55.7129C207.195 55.6198 207.77 55.5088 208.139 55.3799C208.142 55.2474 208.144 55.1632 208.144 55.1274C208.144 54.7336 208.053 54.4561 207.87 54.2949C207.623 54.0765 207.256 53.9673 206.769 53.9673C206.314 53.9673 205.978 54.0479 205.759 54.209C205.545 54.3665 205.385 54.6476 205.281 55.0522L204.336 54.9233C204.422 54.5187 204.563 54.1929 204.76 53.9458C204.957 53.6951 205.242 53.5036 205.614 53.3711C205.987 53.235 206.418 53.167 206.909 53.167C207.396 53.167 207.791 53.2243 208.096 53.3389C208.4 53.4535 208.624 53.5985 208.767 53.7739C208.91 53.9458 209.011 54.1642 209.068 54.4292C209.1 54.5939 209.116 54.8911 209.116 55.3208V56.6099C209.116 57.5086 209.136 58.078 209.175 58.3179C209.218 58.5542 209.301 58.7816 209.422 59H208.413C208.312 58.7995 208.248 58.5649 208.219 58.2964ZM208.139 56.1372C207.788 56.2804 207.261 56.4022 206.56 56.5024C206.162 56.5597 205.881 56.6242 205.716 56.6958C205.552 56.7674 205.425 56.873 205.335 57.0127C205.246 57.1488 205.201 57.3009 205.201 57.4692C205.201 57.7271 205.297 57.9419 205.491 58.1138C205.688 58.2856 205.974 58.3716 206.35 58.3716C206.723 58.3716 207.054 58.291 207.344 58.1299C207.634 57.9652 207.847 57.7414 207.983 57.4585C208.087 57.2401 208.139 56.9178 208.139 56.4917V56.1372ZM151.725 72V66.2959H152.59V67.0962C152.769 66.8169 153.007 66.5931 153.304 66.4248C153.601 66.2529 153.94 66.167 154.319 66.167C154.742 66.167 155.087 66.2547 155.356 66.4302C155.628 66.6056 155.82 66.8509 155.931 67.166C156.382 66.5 156.969 66.167 157.692 66.167C158.258 66.167 158.693 66.3245 158.998 66.6396C159.302 66.9512 159.454 67.4328 159.454 68.0845V72H158.493V68.4067C158.493 68.02 158.46 67.7425 158.396 67.5742C158.335 67.4023 158.222 67.2645 158.058 67.1606C157.893 67.0568 157.7 67.0049 157.478 67.0049C157.076 67.0049 156.743 67.1392 156.479 67.4077C156.214 67.6727 156.081 68.0988 156.081 68.686V72H155.114V68.2939C155.114 67.8643 155.035 67.542 154.878 67.3271C154.72 67.1123 154.463 67.0049 154.104 67.0049C153.832 67.0049 153.58 67.0765 153.347 67.2197C153.118 67.363 152.951 67.5724 152.848 67.8481C152.744 68.1239 152.692 68.5213 152.692 69.0405V72H151.725ZM160.784 65.2378V64.126H161.75V65.2378H160.784ZM160.784 72V66.2959H161.75V72H160.784ZM166.84 71.2964C166.481 71.6007 166.136 71.8156 165.803 71.9409C165.474 72.0662 165.119 72.1289 164.739 72.1289C164.113 72.1289 163.631 71.9767 163.295 71.6724C162.958 71.3644 162.79 70.9723 162.79 70.4961C162.79 70.2168 162.852 69.9626 162.978 69.7334C163.107 69.5007 163.273 69.3145 163.477 69.1748C163.685 69.0352 163.918 68.9295 164.176 68.8579C164.365 68.8078 164.652 68.7594 165.035 68.7129C165.815 68.6198 166.39 68.5088 166.759 68.3799C166.763 68.2474 166.764 68.1632 166.764 68.1274C166.764 67.7336 166.673 67.4561 166.49 67.2949C166.243 67.0765 165.876 66.9673 165.389 66.9673C164.935 66.9673 164.598 67.0479 164.38 67.209C164.165 67.3665 164.005 67.6476 163.902 68.0522L162.956 67.9233C163.042 67.5187 163.184 67.1929 163.381 66.9458C163.578 66.6951 163.862 66.5036 164.235 66.3711C164.607 66.235 165.038 66.167 165.529 66.167C166.016 66.167 166.412 66.2243 166.716 66.3389C167.02 66.4535 167.244 66.5985 167.387 66.7739C167.531 66.9458 167.631 67.1642 167.688 67.4292C167.72 67.5939 167.737 67.8911 167.737 68.3208V69.6099C167.737 70.5086 167.756 71.078 167.796 71.3179C167.839 71.5542 167.921 71.7816 168.043 72H167.033C166.933 71.7995 166.868 71.5649 166.84 71.2964ZM166.759 69.1372C166.408 69.2804 165.882 69.4022 165.18 69.5024C164.782 69.5597 164.501 69.6242 164.337 69.6958C164.172 69.7674 164.045 69.873 163.955 70.0127C163.866 70.1488 163.821 70.3009 163.821 70.4692C163.821 70.7271 163.918 70.9419 164.111 71.1138C164.308 71.2856 164.594 71.3716 164.97 71.3716C165.343 71.3716 165.674 71.291 165.964 71.1299C166.254 70.9652 166.467 70.7414 166.603 70.4585C166.707 70.2401 166.759 69.9178 166.759 69.4917V69.1372ZM175.987 70.1631L176.986 70.2866C176.828 70.8703 176.536 71.3232 176.11 71.6455C175.684 71.9678 175.14 72.1289 174.477 72.1289C173.643 72.1289 172.981 71.8729 172.49 71.3608C172.003 70.8452 171.76 70.1237 171.76 69.1963C171.76 68.2367 172.007 67.4919 172.501 66.9619C172.995 66.432 173.636 66.167 174.424 66.167C175.186 66.167 175.81 66.4266 176.293 66.9458C176.776 67.465 177.018 68.1955 177.018 69.1372C177.018 69.1945 177.016 69.2804 177.013 69.395H172.759C172.795 70.0216 172.972 70.5015 173.29 70.8345C173.609 71.1675 174.007 71.334 174.483 71.334C174.837 71.334 175.14 71.2409 175.391 71.0547C175.641 70.8685 175.84 70.5713 175.987 70.1631ZM172.812 68.6001H175.997C175.955 68.1203 175.833 67.7604 175.632 67.5205C175.324 67.1481 174.925 66.9619 174.435 66.9619C173.991 66.9619 173.616 67.1105 173.312 67.4077C173.011 67.7049 172.845 68.1024 172.812 68.6001ZM177.708 70.2974L178.664 70.147C178.718 70.5301 178.867 70.8237 179.11 71.0278C179.357 71.2319 179.701 71.334 180.141 71.334C180.585 71.334 180.915 71.2445 181.13 71.0654C181.345 70.8828 181.452 70.6698 181.452 70.4263C181.452 70.2078 181.357 70.036 181.167 69.9106C181.035 69.8247 180.705 69.7155 180.179 69.583C179.47 69.404 178.978 69.25 178.702 69.1211C178.43 68.9886 178.222 68.8078 178.079 68.5786C177.939 68.3459 177.869 68.0898 177.869 67.8105C177.869 67.5563 177.927 67.3218 178.041 67.1069C178.159 66.8885 178.319 66.7077 178.519 66.5645C178.67 66.4535 178.874 66.3604 179.132 66.2852C179.393 66.2064 179.672 66.167 179.97 66.167C180.417 66.167 180.809 66.2314 181.146 66.3604C181.486 66.4893 181.737 66.6647 181.898 66.8867C182.059 67.1051 182.17 67.3988 182.231 67.7676L181.285 67.8965C181.242 67.6029 181.117 67.3737 180.909 67.209C180.705 67.0443 180.415 66.9619 180.039 66.9619C179.595 66.9619 179.278 67.0353 179.089 67.1821C178.899 67.3289 178.804 67.5008 178.804 67.6978C178.804 67.8231 178.843 67.9359 178.922 68.0361C179.001 68.14 179.124 68.2259 179.293 68.2939C179.389 68.3298 179.674 68.4121 180.147 68.541C180.831 68.7236 181.307 68.874 181.575 68.9922C181.848 69.1068 182.061 69.2751 182.215 69.4971C182.369 69.7191 182.446 69.9948 182.446 70.3242C182.446 70.6465 182.351 70.9508 182.161 71.2373C181.975 71.5202 181.704 71.7404 181.35 71.8979C180.995 72.0519 180.594 72.1289 180.147 72.1289C179.406 72.1289 178.84 71.9749 178.45 71.667C178.063 71.359 177.816 70.9025 177.708 70.2974ZM183.485 74.186V66.2959H184.366V67.0371C184.574 66.7471 184.808 66.5304 185.069 66.3872C185.331 66.2404 185.648 66.167 186.02 66.167C186.507 66.167 186.937 66.2923 187.309 66.543C187.682 66.7936 187.963 67.1481 188.153 67.6064C188.342 68.0612 188.437 68.5607 188.437 69.105C188.437 69.6886 188.332 70.215 188.12 70.6841C187.913 71.1496 187.608 71.5076 187.207 71.7583C186.81 72.0054 186.391 72.1289 185.95 72.1289C185.628 72.1289 185.338 72.0609 185.08 71.9248C184.826 71.7887 184.617 71.6169 184.452 71.4092V74.186H183.485ZM184.361 69.1802C184.361 69.9142 184.509 70.4567 184.806 70.8076C185.104 71.1585 185.463 71.334 185.886 71.334C186.316 71.334 186.683 71.1532 186.987 70.7915C187.295 70.4263 187.449 69.8623 187.449 69.0996C187.449 68.3727 187.298 67.8285 186.998 67.4668C186.701 67.1051 186.344 66.9243 185.929 66.9243C185.517 66.9243 185.152 67.1177 184.833 67.5044C184.518 67.8875 184.361 68.4461 184.361 69.1802ZM193.403 70.1631L194.402 70.2866C194.244 70.8703 193.952 71.3232 193.526 71.6455C193.1 71.9678 192.556 72.1289 191.894 72.1289C191.059 72.1289 190.397 71.8729 189.906 71.3608C189.419 70.8452 189.176 70.1237 189.176 69.1963C189.176 68.2367 189.423 67.4919 189.917 66.9619C190.411 66.432 191.052 66.167 191.84 66.167C192.603 66.167 193.226 66.4266 193.709 66.9458C194.192 67.465 194.434 68.1955 194.434 69.1372C194.434 69.1945 194.432 69.2804 194.429 69.395H190.175C190.211 70.0216 190.388 70.5015 190.707 70.8345C191.025 71.1675 191.423 71.334 191.899 71.334C192.253 71.334 192.556 71.2409 192.807 71.0547C193.057 70.8685 193.256 70.5713 193.403 70.1631ZM190.229 68.6001H193.414C193.371 68.1203 193.249 67.7604 193.048 67.5205C192.74 67.1481 192.341 66.9619 191.851 66.9619C191.407 66.9619 191.032 67.1105 190.728 67.4077C190.427 67.7049 190.261 68.1024 190.229 68.6001ZM195.5 72V66.2959H196.37V67.1606C196.592 66.756 196.797 66.4893 196.983 66.3604C197.173 66.2314 197.38 66.167 197.606 66.167C197.932 66.167 198.263 66.2708 198.599 66.4785L198.266 67.3755C198.03 67.2358 197.794 67.166 197.557 67.166C197.346 67.166 197.156 67.2305 196.988 67.3594C196.82 67.4847 196.7 67.6602 196.628 67.8857C196.521 68.2295 196.467 68.6055 196.467 69.0137V72H195.5ZM199.07 65.2378V64.126H200.036V65.2378H199.07ZM199.07 72V66.2959H200.036V72H199.07ZM205.308 70.1631L206.307 70.2866C206.15 70.8703 205.858 71.3232 205.432 71.6455C205.006 71.9678 204.461 72.1289 203.799 72.1289C202.965 72.1289 202.302 71.8729 201.812 71.3608C201.325 70.8452 201.081 70.1237 201.081 69.1963C201.081 68.2367 201.328 67.4919 201.822 66.9619C202.317 66.432 202.957 66.167 203.745 66.167C204.508 66.167 205.131 66.4266 205.614 66.9458C206.098 67.465 206.339 68.1955 206.339 69.1372C206.339 69.1945 206.338 69.2804 206.334 69.395H202.08C202.116 70.0216 202.293 70.5015 202.612 70.8345C202.931 71.1675 203.328 71.334 203.804 71.334C204.159 71.334 204.461 71.2409 204.712 71.0547C204.963 70.8685 205.161 70.5713 205.308 70.1631ZM202.134 68.6001H205.319C205.276 68.1203 205.154 67.7604 204.954 67.5205C204.646 67.1481 204.247 66.9619 203.756 66.9619C203.312 66.9619 202.938 67.1105 202.633 67.4077C202.333 67.7049 202.166 68.1024 202.134 68.6001ZM207.416 72V66.2959H208.287V67.1069C208.706 66.4803 209.311 66.167 210.102 66.167C210.446 66.167 210.761 66.2297 211.047 66.355C211.337 66.4767 211.554 66.6379 211.697 66.8384C211.84 67.0389 211.941 67.277 211.998 67.5527C212.034 67.7318 212.052 68.0451 212.052 68.4927V72H211.085V68.5303C211.085 68.1364 211.047 67.8428 210.972 67.6494C210.897 67.4525 210.763 67.2967 210.569 67.1821C210.38 67.064 210.156 67.0049 209.898 67.0049C209.486 67.0049 209.13 67.1356 208.829 67.397C208.532 67.6584 208.383 68.1543 208.383 68.8848V72H207.416ZM212.919 72V71.2158L216.55 67.0479C216.138 67.0693 215.775 67.0801 215.46 67.0801H213.134V66.2959H217.796V66.9351L214.708 70.5552L214.112 71.2158C214.545 71.1836 214.951 71.1675 215.331 71.1675H217.968V72H212.919ZM222.542 71.2964C222.184 71.6007 221.838 71.8156 221.505 71.9409C221.176 72.0662 220.821 72.1289 220.442 72.1289C219.815 72.1289 219.333 71.9767 218.997 71.6724C218.66 71.3644 218.492 70.9723 218.492 70.4961C218.492 70.2168 218.555 69.9626 218.68 69.7334C218.809 69.5007 218.975 69.3145 219.179 69.1748C219.387 69.0352 219.62 68.9295 219.878 68.8579C220.067 68.8078 220.354 68.7594 220.737 68.7129C221.518 68.6198 222.092 68.5088 222.461 68.3799C222.465 68.2474 222.466 68.1632 222.466 68.1274C222.466 67.7336 222.375 67.4561 222.193 67.2949C221.945 67.0765 221.578 66.9673 221.091 66.9673C220.637 66.9673 220.3 67.0479 220.082 67.209C219.867 67.3665 219.708 67.6476 219.604 68.0522L218.658 67.9233C218.744 67.5187 218.886 67.1929 219.083 66.9458C219.28 66.6951 219.564 66.5036 219.937 66.3711C220.309 66.235 220.741 66.167 221.231 66.167C221.718 66.167 222.114 66.2243 222.418 66.3389C222.723 66.4535 222.946 66.5985 223.09 66.7739C223.233 66.9458 223.333 67.1642 223.39 67.4292C223.423 67.5939 223.439 67.8911 223.439 68.3208V69.6099C223.439 70.5086 223.458 71.078 223.498 71.3179C223.541 71.5542 223.623 71.7816 223.745 72H222.735C222.635 71.7995 222.57 71.5649 222.542 71.2964ZM222.461 69.1372C222.11 69.2804 221.584 69.4022 220.882 69.5024C220.485 69.5597 220.203 69.6242 220.039 69.6958C219.874 69.7674 219.747 69.873 219.657 70.0127C219.568 70.1488 219.523 70.3009 219.523 70.4692C219.523 70.7271 219.62 70.9419 219.813 71.1138C220.01 71.2856 220.297 71.3716 220.673 71.3716C221.045 71.3716 221.376 71.291 221.666 71.1299C221.956 70.9652 222.169 70.7414 222.305 70.4585C222.409 70.2401 222.461 69.9178 222.461 69.4917V69.1372ZM226.643 70.061C226.639 69.9321 226.637 69.8354 226.637 69.771C226.637 69.3914 226.691 69.0638 226.798 68.7881C226.877 68.5804 227.004 68.3709 227.18 68.1597C227.309 68.0057 227.54 67.7819 227.873 67.4883C228.209 67.1911 228.428 66.9548 228.528 66.7793C228.628 66.6038 228.678 66.4123 228.678 66.2046C228.678 65.8286 228.531 65.4992 228.238 65.2163C227.944 64.9299 227.584 64.7866 227.158 64.7866C226.746 64.7866 226.403 64.9155 226.127 65.1733C225.851 65.4312 225.67 65.834 225.585 66.3818L224.591 66.2637C224.68 65.5296 224.945 64.9674 225.386 64.5771C225.83 64.1868 226.415 63.9917 227.142 63.9917C227.912 63.9917 228.526 64.2012 228.984 64.6201C229.443 65.0391 229.672 65.5457 229.672 66.1401C229.672 66.4839 229.591 66.8008 229.43 67.0908C229.269 67.3809 228.954 67.7336 228.485 68.1489C228.17 68.4282 227.964 68.6341 227.867 68.7666C227.771 68.8991 227.699 69.0513 227.652 69.2231C227.606 69.395 227.579 69.6743 227.572 70.061H226.643ZM226.584 72V70.8989H227.685V72H226.584Z" fill="white"/>
<line x1="235.5" y1="73" x2="235.5" y2="37" stroke="white"/>
<g filter="url(#filter10_f_285_157)">
<ellipse cx="63.9007" cy="113.03" rx="21.5" ry="27.5" transform="rotate(-50.8928 63.9007 113.03)" fill="#A92684"/>
</g>
<g filter="url(#filter11_f_285_157)">
<ellipse cx="136" cy="124.5" rx="21" ry="17.5" fill="#A92684"/>
</g>
<path d="M42.005 70.277C42.005 65.319 43.5013 60.8523 46.494 56.877C49.5313 52.9017 53.6407 49.7973 58.822 47.564C64.048 45.286 69.8323 44.147 76.175 44.147C82.1157 44.147 87.4087 45.085 92.054 46.961C96.744 48.7923 100.518 51.383 103.377 54.733C106.28 58.0383 108.089 61.835 108.804 66.123H88.972C88.1233 63.8003 86.4483 61.9467 83.947 60.562C81.4903 59.1773 78.922 58.485 76.242 58.485C73.8747 58.485 71.5967 58.954 69.408 59.892C67.264 60.83 65.4997 62.1923 64.115 63.979C62.775 65.7657 62.105 67.865 62.105 70.277C62.105 72.689 62.775 74.7883 64.115 76.575C65.4997 78.317 67.264 79.657 69.408 80.595C71.5967 81.533 73.8747 82.002 76.242 82.002C79.19 82.002 81.7807 81.3543 84.014 80.059C86.2473 78.7637 87.8777 76.91 88.905 74.498H108.737C107.978 78.7413 106.169 82.5157 103.31 85.821C100.451 89.1263 96.677 91.717 91.987 93.593C87.3417 95.4243 82.071 96.34 76.175 96.34C69.877 96.34 64.115 95.201 58.889 92.923C53.663 90.645 49.5313 87.5183 46.494 83.543C43.5013 79.5677 42.005 75.1457 42.005 70.277Z" fill="white"/>
<path d="M135.438 74.348C141.736 74.348 147.409 75.487 152.456 77.765C157.503 79.9983 161.456 83.1027 164.315 87.078C167.174 91.0087 168.603 95.453 168.603 100.411C168.603 105.324 167.174 109.746 164.315 113.677C161.456 117.608 157.503 120.712 152.456 122.99C147.409 125.223 141.736 126.34 135.438 126.34C129.408 126.34 123.825 125.223 118.688 122.99C113.596 120.712 109.531 117.608 106.494 113.677C103.501 109.702 102.005 105.28 102.005 100.411C102.005 95.4977 103.501 91.0533 106.494 87.078C109.531 83.1027 113.596 79.9983 118.688 77.765C123.825 75.487 129.408 74.348 135.438 74.348ZM135.505 112.136C137.649 112.136 139.704 111.667 141.669 110.729C143.679 109.791 145.309 108.429 146.56 106.642C147.811 104.855 148.436 102.778 148.436 100.411C148.436 97.999 147.811 95.922 146.56 94.18C145.309 92.3933 143.679 91.031 141.669 90.093C139.704 89.155 137.649 88.686 135.505 88.686C133.406 88.686 131.351 89.155 129.341 90.093C127.376 91.031 125.745 92.3933 124.45 94.18C123.199 95.922 122.574 97.999 122.574 100.411C122.574 102.778 123.199 104.855 124.45 106.642C125.745 108.429 127.376 109.791 129.341 110.729C131.351 111.667 133.406 112.136 135.505 112.136Z" fill="white"/>
<path d="M76.711 124.252C78.855 124.163 80.53 124.118 81.736 124.118C88.2127 124.118 93.461 125.034 97.481 126.865C101.546 128.696 103.578 132.292 103.578 137.652C103.578 144.665 100.474 149.399 94.265 151.856C88.0563 154.313 81.066 155.541 73.294 155.541C65.4773 155.541 58.3083 154.313 51.787 151.856C45.2657 149.399 42.005 144.665 42.005 137.652H61.703C61.703 140.243 62.842 141.895 65.12 142.61C67.398 143.325 70.1227 143.682 73.294 143.682C76.2867 143.682 78.855 143.213 80.999 142.275C83.143 141.337 84.215 139.885 84.215 137.92C84.215 136.267 83.076 135.195 80.798 134.704C78.5647 134.168 75.9517 133.9 72.959 133.9L66.259 133.967C61.7923 133.967 57.817 133.654 54.333 133.029C50.8937 132.359 47.968 130.997 45.556 128.942C43.1887 126.843 42.005 123.783 42.005 119.763C42.005 114.894 43.7247 111.232 47.164 108.775C50.648 106.274 54.6233 104.688 59.09 104.018C63.5567 103.303 68.2913 102.946 73.294 102.946C81.066 102.946 88.0563 104.174 94.265 106.631C100.474 109.043 103.578 113.778 103.578 120.835H84.215C84.215 118.959 83.143 117.552 80.999 116.614C78.8997 115.676 76.3313 115.162 73.294 115.073C70.078 115.073 67.331 115.43 65.053 116.145C62.8197 116.86 61.703 117.999 61.703 119.562C61.703 121.349 62.842 122.577 65.12 123.247C67.398 123.917 69.9663 124.274 72.825 124.319L76.711 124.252Z" fill="white"/>
<path d="M160.154 180H141.059L136.972 172.496H110.507L106.42 180H87.325L114.192 130.42H133.287L160.154 180ZM123.773 148.041L117.073 160.302H130.406L123.773 148.041Z" fill="white"/>
<defs>
<filter id="filter0_f_285_157" x="16.3151" y="0.457222" width="137.863" height="137.863" filterUnits="userSpaceOnUse" color-interpolation-filters="sRGB">
<feFlood flood-opacity="0" result="BackgroundImageFix"/>
<feBlend mode="normal" in="SourceGraphic" in2="BackgroundImageFix" result="shape"/>
<feGaussianBlur stdDeviation="15.0137" result="effect1_foregroundBlur_285_157"/>
</filter>
<filter id="filter1_f_285_157" x="49.6957" y="101.489" width="127.582" height="112.68" filterUnits="userSpaceOnUse" color-interpolation-filters="sRGB">
<feFlood flood-opacity="0" result="BackgroundImageFix"/>
<feBlend mode="normal" in="SourceGraphic" in2="BackgroundImageFix" result="shape"/>
<feGaussianBlur stdDeviation="17.2055" result="effect1_foregroundBlur_285_157"/>
</filter>
<filter id="filter2_f_285_157" x="73.7563" y="121.33" width="116.722" height="112.45" filterUnits="userSpaceOnUse" color-interpolation-filters="sRGB">
<feFlood flood-opacity="0" result="BackgroundImageFix"/>
<feBlend mode="normal" in="SourceGraphic" in2="BackgroundImageFix" result="shape"/>
<feGaussianBlur stdDeviation="17.2055" result="effect1_foregroundBlur_285_157"/>
</filter>
<filter id="filter3_f_285_157" x="15.4383" y="90.5393" width="124.274" height="124.274" filterUnits="userSpaceOnUse" color-interpolation-filters="sRGB">
<feFlood flood-opacity="0" result="BackgroundImageFix"/>
<feBlend mode="normal" in="SourceGraphic" in2="BackgroundImageFix" result="shape"/>
<feGaussianBlur stdDeviation="18.7397" result="effect1_foregroundBlur_285_157"/>
</filter>
<filter id="filter4_f_285_157" x="54.3425" y="123.964" width="57.4247" height="57.4247" filterUnits="userSpaceOnUse" color-interpolation-filters="sRGB">
<feFlood flood-opacity="0" result="BackgroundImageFix"/>
<feBlend mode="normal" in="SourceGraphic" in2="BackgroundImageFix" result="shape"/>
<feGaussianBlur stdDeviation="4.76712" result="effect1_foregroundBlur_285_157"/>
</filter>
<filter id="filter5_f_285_157" x="0.972603" y="65.1147" width="106.082" height="98.411" filterUnits="userSpaceOnUse" color-interpolation-filters="sRGB">
<feFlood flood-opacity="0" result="BackgroundImageFix"/>
<feBlend mode="normal" in="SourceGraphic" in2="BackgroundImageFix" result="shape"/>
<feGaussianBlur stdDeviation="15.0137" result="effect1_foregroundBlur_285_157"/>
</filter>
<filter id="filter6_f_285_157" x="83.1645" y="15.7998" width="137.863" height="137.863" filterUnits="userSpaceOnUse" color-interpolation-filters="sRGB">
<feFlood flood-opacity="0" result="BackgroundImageFix"/>
<feBlend mode="normal" in="SourceGraphic" in2="BackgroundImageFix" result="shape"/>
<feGaussianBlur stdDeviation="15.0137" result="effect1_foregroundBlur_285_157"/>
</filter>
<filter id="filter7_f_285_157" x="49.4111" y="58.7586" width="111.123" height="111.123" filterUnits="userSpaceOnUse" color-interpolation-filters="sRGB">
<feFlood flood-opacity="0" result="BackgroundImageFix"/>
<feBlend mode="normal" in="SourceGraphic" in2="BackgroundImageFix" result="shape"/>
<feGaussianBlur stdDeviation="8.32877" result="effect1_foregroundBlur_285_157"/>
</filter>
<filter id="filter8_f_285_157" x="68.4794" y="58.101" width="66.411" height="66.411" filterUnits="userSpaceOnUse" color-interpolation-filters="sRGB">
<feFlood flood-opacity="0" result="BackgroundImageFix"/>
<feBlend mode="normal" in="SourceGraphic" in2="BackgroundImageFix" result="shape"/>
<feGaussianBlur stdDeviation="7.0137" result="effect1_foregroundBlur_285_157"/>
</filter>
<filter id="filter9_f_285_157" x="107.393" y="110.646" width="62.6625" height="58.9556" filterUnits="userSpaceOnUse" color-interpolation-filters="sRGB">
<feFlood flood-opacity="0" result="BackgroundImageFix"/>
<feBlend mode="normal" in="SourceGraphic" in2="BackgroundImageFix" result="shape"/>
<feGaussianBlur stdDeviation="4.76712" result="effect1_foregroundBlur_285_157"/>
</filter>
<filter id="filter10_f_285_157" x="12.7135" y="63.0624" width="102.374" height="99.9343" filterUnits="userSpaceOnUse" color-interpolation-filters="sRGB">
<feFlood flood-opacity="0" result="BackgroundImageFix"/>
<feBlend mode="normal" in="SourceGraphic" in2="BackgroundImageFix" result="shape"/>
<feGaussianBlur stdDeviation="12.95" result="effect1_foregroundBlur_285_157"/>
</filter>
<filter id="filter11_f_285_157" x="90" y="82" width="92" height="85" filterUnits="userSpaceOnUse" color-interpolation-filters="sRGB">
<feFlood flood-opacity="0" result="BackgroundImageFix"/>
<feBlend mode="normal" in="SourceGraphic" in2="BackgroundImageFix" result="shape"/>
<feGaussianBlur stdDeviation="12.5" result="effect1_foregroundBlur_285_157"/>
</filter>
</defs>
</svg>
