<svg width="227" height="234" viewBox="0 0 227 234" fill="none" xmlns="http://www.w3.org/2000/svg">
<g filter="url(#filter0_f_285_157)">
<circle cx="76.2466" cy="69.3887" r="38.9041" fill="#A92684" fill-opacity="0.9"/>
</g>
<g filter="url(#filter1_f_285_157)">
<ellipse cx="104.487" cy="157.829" rx="21.7719" ry="29.492" transform="rotate(-97.4821 104.487 157.829)" fill="#A92684"/>
</g>
<g filter="url(#filter2_f_285_157)">
<ellipse cx="123.117" cy="177.555" rx="21.7719" ry="23.9834" transform="rotate(-97.4821 123.117 177.555)" fill="#A92684" fill-opacity="0.9"/>
</g>
<g filter="url(#filter3_f_285_157)">
<circle cx="68.5753" cy="152.676" r="24.6575" fill="#A92684"/>
</g>
<g filter="url(#filter4_f_285_157)">
<circle cx="74.0548" cy="152.676" r="19.1781" fill="#A92684"/>
</g>
<g filter="url(#filter5_f_285_157)">
<ellipse cx="45.0137" cy="114.32" rx="23.0137" ry="19.1781" fill="#A92684" fill-opacity="0.6"/>
</g>
<g filter="url(#filter6_f_285_157)">
<circle cx="143.096" cy="84.7313" r="38.9041" fill="#A92684" fill-opacity="0.6"/>
</g>
<g filter="url(#filter7_f_285_157)">
<circle cx="95.9727" cy="114.32" r="38.9041" fill="#A92684"/>
</g>
<g filter="url(#filter8_f_285_157)">
<circle cx="92.6849" cy="91.3065" r="19.1781" fill="#CD4FA9"/>
</g>
<g filter="url(#filter9_f_285_157)">
<ellipse cx="129.724" cy="140.124" rx="22.4658" ry="19.1781" transform="rotate(-27.8271 129.724 140.124)" fill="#A92684"/>
</g>
<path d="M142.365 43.1479C142.365 42.0916 142.659 41.3092 143.246 40.8008C143.737 40.3783 144.335 40.167 145.04 40.167C145.824 40.167 146.465 40.4248 146.963 40.9404C147.461 41.4525 147.709 42.1615 147.709 43.0674C147.709 43.8014 147.598 44.3797 147.376 44.8022C147.158 45.2212 146.838 45.547 146.415 45.7798C145.996 46.0125 145.538 46.1289 145.04 46.1289C144.242 46.1289 143.595 45.8729 143.101 45.3608C142.611 44.8488 142.365 44.1112 142.365 43.1479ZM143.359 43.1479C143.359 43.8784 143.518 44.4263 143.837 44.7915C144.156 45.1532 144.557 45.334 145.04 45.334C145.52 45.334 145.919 45.1514 146.238 44.7861C146.556 44.4209 146.716 43.8641 146.716 43.1157C146.716 42.4103 146.555 41.8768 146.232 41.5151C145.914 41.1499 145.516 40.9673 145.04 40.9673C144.557 40.9673 144.156 41.1481 143.837 41.5098C143.518 41.8714 143.359 42.4175 143.359 43.1479ZM150.849 45.1353L150.989 45.9893C150.716 46.0465 150.473 46.0752 150.258 46.0752C149.907 46.0752 149.635 46.0197 149.442 45.9087C149.248 45.7977 149.112 45.6527 149.034 45.4736C148.955 45.291 148.915 44.9097 148.915 44.3296V41.0479H148.206V40.2959H148.915V38.8833L149.877 38.3032V40.2959H150.849V41.0479H149.877V44.3833C149.877 44.659 149.893 44.8363 149.925 44.915C149.961 44.9938 150.016 45.0565 150.092 45.103C150.17 45.1496 150.281 45.1729 150.425 45.1729C150.532 45.1729 150.674 45.1603 150.849 45.1353ZM153.801 45.1353L153.94 45.9893C153.668 46.0465 153.425 46.0752 153.21 46.0752C152.859 46.0752 152.587 46.0197 152.393 45.9087C152.2 45.7977 152.064 45.6527 151.985 45.4736C151.906 45.291 151.867 44.9097 151.867 44.3296V41.0479H151.158V40.2959H151.867V38.8833L152.828 38.3032V40.2959H153.801V41.0479H152.828V44.3833C152.828 44.659 152.844 44.8363 152.877 44.915C152.912 44.9938 152.968 45.0565 153.043 45.103C153.122 45.1496 153.233 45.1729 153.376 45.1729C153.484 45.1729 153.625 45.1603 153.801 45.1353ZM158.546 44.1631L159.545 44.2866C159.387 44.8703 159.096 45.3232 158.67 45.6455C158.243 45.9678 157.699 46.1289 157.037 46.1289C156.202 46.1289 155.54 45.8729 155.049 45.3608C154.562 44.8452 154.319 44.1237 154.319 43.1963C154.319 42.2367 154.566 41.4919 155.06 40.9619C155.554 40.432 156.195 40.167 156.983 40.167C157.746 40.167 158.369 40.4266 158.852 40.9458C159.336 41.465 159.577 42.1955 159.577 43.1372C159.577 43.1945 159.575 43.2804 159.572 43.395H155.318C155.354 44.0216 155.531 44.5015 155.85 44.8345C156.168 45.1675 156.566 45.334 157.042 45.334C157.397 45.334 157.699 45.2409 157.95 45.0547C158.2 44.8685 158.399 44.5713 158.546 44.1631ZM155.372 42.6001H158.557C158.514 42.1203 158.392 41.7604 158.191 41.5205C157.884 41.1481 157.484 40.9619 156.994 40.9619C156.55 40.9619 156.176 41.1105 155.871 41.4077C155.57 41.7049 155.404 42.1024 155.372 42.6001ZM160.643 46V40.2959H161.514V41.1606C161.736 40.756 161.94 40.4893 162.126 40.3604C162.316 40.2314 162.523 40.167 162.749 40.167C163.075 40.167 163.406 40.2708 163.743 40.4785L163.41 41.3755C163.173 41.2358 162.937 41.166 162.701 41.166C162.489 41.166 162.3 41.2305 162.131 41.3594C161.963 41.4847 161.843 41.6602 161.771 41.8857C161.664 42.2295 161.61 42.6055 161.61 43.0137V46H160.643ZM164.197 46V40.2959H165.067V41.1606C165.289 40.756 165.493 40.4893 165.679 40.3604C165.869 40.2314 166.076 40.167 166.302 40.167C166.628 40.167 166.959 40.2708 167.296 40.4785L166.963 41.3755C166.726 41.2358 166.49 41.166 166.254 41.166C166.042 41.166 165.853 41.2305 165.684 41.3594C165.516 41.4847 165.396 41.6602 165.325 41.8857C165.217 42.2295 165.163 42.6055 165.163 43.0137V46H164.197ZM171.665 44.1631L172.664 44.2866C172.507 44.8703 172.215 45.3232 171.789 45.6455C171.363 45.9678 170.818 46.1289 170.156 46.1289C169.322 46.1289 168.659 45.8729 168.169 45.3608C167.682 44.8452 167.438 44.1237 167.438 43.1963C167.438 42.2367 167.685 41.4919 168.179 40.9619C168.673 40.432 169.314 40.167 170.102 40.167C170.865 40.167 171.488 40.4266 171.971 40.9458C172.455 41.465 172.696 42.1955 172.696 43.1372C172.696 43.1945 172.695 43.2804 172.691 43.395H168.437C168.473 44.0216 168.65 44.5015 168.969 44.8345C169.288 45.1675 169.685 45.334 170.161 45.334C170.516 45.334 170.818 45.2409 171.069 45.0547C171.32 44.8685 171.518 44.5713 171.665 44.1631ZM168.491 42.6001H171.676C171.633 42.1203 171.511 41.7604 171.311 41.5205C171.003 41.1481 170.604 40.9619 170.113 40.9619C169.669 40.9619 169.295 41.1105 168.99 41.4077C168.69 41.7049 168.523 42.1024 168.491 42.6001ZM175.884 45.1353L176.024 45.9893C175.752 46.0465 175.508 46.0752 175.293 46.0752C174.943 46.0752 174.67 46.0197 174.477 45.9087C174.284 45.7977 174.148 45.6527 174.069 45.4736C173.99 45.291 173.951 44.9097 173.951 44.3296V41.0479H173.242V40.2959H173.951V38.8833L174.912 38.3032V40.2959H175.884V41.0479H174.912V44.3833C174.912 44.659 174.928 44.8363 174.96 44.915C174.996 44.9938 175.052 45.0565 175.127 45.103C175.206 45.1496 175.317 45.1729 175.46 45.1729C175.567 45.1729 175.709 45.1603 175.884 45.1353ZM180.63 44.1631L181.629 44.2866C181.471 44.8703 181.179 45.3232 180.753 45.6455C180.327 45.9678 179.783 46.1289 179.12 46.1289C178.286 46.1289 177.624 45.8729 177.133 45.3608C176.646 44.8452 176.403 44.1237 176.403 43.1963C176.403 42.2367 176.65 41.4919 177.144 40.9619C177.638 40.432 178.279 40.167 179.067 40.167C179.829 40.167 180.453 40.4266 180.936 40.9458C181.419 41.465 181.661 42.1955 181.661 43.1372C181.661 43.1945 181.659 43.2804 181.656 43.395H177.402C177.438 44.0216 177.615 44.5015 177.933 44.8345C178.252 45.1675 178.65 45.334 179.126 45.334C179.48 45.334 179.783 45.2409 180.034 45.0547C180.284 44.8685 180.483 44.5713 180.63 44.1631ZM177.455 42.6001H180.641C180.598 42.1203 180.476 41.7604 180.275 41.5205C179.967 41.1481 179.568 40.9619 179.078 40.9619C178.634 40.9619 178.259 41.1105 177.955 41.4077C177.654 41.7049 177.488 42.1024 177.455 42.6001ZM142.338 57.2974L143.294 57.147C143.348 57.5301 143.497 57.8237 143.74 58.0278C143.987 58.2319 144.331 58.334 144.771 58.334C145.215 58.334 145.545 58.2445 145.76 58.0654C145.975 57.8828 146.082 57.6698 146.082 57.4263C146.082 57.2078 145.987 57.036 145.797 56.9106C145.665 56.8247 145.335 56.7155 144.809 56.583C144.1 56.404 143.608 56.25 143.332 56.1211C143.06 55.9886 142.852 55.8078 142.709 55.5786C142.569 55.3459 142.5 55.0898 142.5 54.8105C142.5 54.5563 142.557 54.3218 142.671 54.1069C142.79 53.8885 142.949 53.7077 143.149 53.5645C143.3 53.4535 143.504 53.3604 143.762 53.2852C144.023 53.2064 144.302 53.167 144.6 53.167C145.047 53.167 145.439 53.2314 145.776 53.3604C146.116 53.4893 146.367 53.6647 146.528 53.8867C146.689 54.1051 146.8 54.3988 146.861 54.7676L145.916 54.8965C145.873 54.6029 145.747 54.3737 145.54 54.209C145.335 54.0443 145.045 53.9619 144.669 53.9619C144.225 53.9619 143.909 54.0353 143.719 54.1821C143.529 54.3289 143.434 54.5008 143.434 54.6978C143.434 54.8231 143.473 54.9359 143.552 55.0361C143.631 55.14 143.755 55.2259 143.923 55.2939C144.02 55.3298 144.304 55.4121 144.777 55.541C145.461 55.7236 145.937 55.874 146.206 55.9922C146.478 56.1068 146.691 56.2751 146.845 56.4971C146.999 56.7191 147.076 56.9948 147.076 57.3242C147.076 57.6465 146.981 57.9508 146.791 58.2373C146.605 58.5202 146.334 58.7404 145.98 58.8979C145.625 59.0519 145.224 59.1289 144.777 59.1289C144.036 59.1289 143.47 58.9749 143.08 58.667C142.693 58.359 142.446 57.9025 142.338 57.2974ZM152.02 57.1631L153.019 57.2866C152.861 57.8703 152.57 58.3232 152.143 58.6455C151.717 58.9678 151.173 59.1289 150.511 59.1289C149.676 59.1289 149.014 58.8729 148.523 58.3608C148.036 57.8452 147.793 57.1237 147.793 56.1963C147.793 55.2367 148.04 54.4919 148.534 53.9619C149.028 53.432 149.669 53.167 150.457 53.167C151.22 53.167 151.843 53.4266 152.326 53.9458C152.809 54.465 153.051 55.1955 153.051 56.1372C153.051 56.1945 153.049 56.2804 153.046 56.395H148.792C148.828 57.0216 149.005 57.5015 149.324 57.8345C149.642 58.1675 150.04 58.334 150.516 58.334C150.87 58.334 151.173 58.2409 151.424 58.0547C151.674 57.8685 151.873 57.5713 152.02 57.1631ZM148.846 55.6001H152.031C151.988 55.1203 151.866 54.7604 151.665 54.5205C151.357 54.1481 150.958 53.9619 150.468 53.9619C150.024 53.9619 149.649 54.1105 149.345 54.4077C149.044 54.7049 148.878 55.1024 148.846 55.6001ZM153.951 59.4727L154.891 59.6123C154.93 59.9023 155.039 60.1136 155.218 60.2461C155.458 60.4251 155.786 60.5146 156.201 60.5146C156.649 60.5146 156.995 60.4251 157.238 60.2461C157.481 60.0671 157.646 59.8164 157.732 59.4941C157.782 59.2972 157.806 58.8836 157.802 58.2534C157.379 58.7511 156.853 59 156.223 59C155.439 59 154.832 58.7171 154.402 58.1514C153.972 57.5856 153.758 56.9071 153.758 56.1157C153.758 55.5715 153.856 55.0701 154.053 54.6118C154.25 54.1499 154.535 53.7936 154.907 53.543C155.283 53.2923 155.723 53.167 156.228 53.167C156.901 53.167 157.456 53.4391 157.893 53.9834V53.2959H158.785V58.2266C158.785 59.1146 158.694 59.743 158.511 60.1118C158.332 60.4842 158.045 60.7778 157.652 60.9927C157.261 61.2075 156.78 61.3149 156.207 61.3149C155.526 61.3149 154.977 61.161 154.558 60.853C154.139 60.5487 153.937 60.0885 153.951 59.4727ZM154.751 56.0459C154.751 56.7943 154.9 57.3403 155.197 57.6841C155.494 58.0278 155.867 58.1997 156.314 58.1997C156.758 58.1997 157.131 58.0296 157.431 57.6895C157.732 57.3457 157.883 56.8086 157.883 56.0781C157.883 55.3799 157.727 54.8535 157.415 54.499C157.107 54.1445 156.735 53.9673 156.298 53.9673C155.868 53.9673 155.503 54.1427 155.202 54.4937C154.902 54.841 154.751 55.3584 154.751 56.0459ZM163.879 59V58.1621C163.435 58.8066 162.832 59.1289 162.069 59.1289C161.733 59.1289 161.418 59.0645 161.124 58.9355C160.834 58.8066 160.617 58.6455 160.474 58.4521C160.335 58.2552 160.236 58.0153 160.179 57.7324C160.139 57.5426 160.12 57.2419 160.12 56.8301V53.2959H161.087V56.4595C161.087 56.9644 161.106 57.3045 161.146 57.48C161.206 57.7342 161.335 57.9347 161.532 58.0815C161.729 58.2248 161.973 58.2964 162.263 58.2964C162.553 58.2964 162.825 58.223 163.079 58.0762C163.333 57.9258 163.512 57.7235 163.616 57.4692C163.724 57.2114 163.777 56.839 163.777 56.3521V53.2959H164.744V59H163.879ZM170.059 57.1631L171.058 57.2866C170.9 57.8703 170.609 58.3232 170.183 58.6455C169.756 58.9678 169.212 59.1289 168.55 59.1289C167.715 59.1289 167.053 58.8729 166.562 58.3608C166.075 57.8452 165.832 57.1237 165.832 56.1963C165.832 55.2367 166.079 54.4919 166.573 53.9619C167.067 53.432 167.708 53.167 168.496 53.167C169.259 53.167 169.882 53.4266 170.365 53.9458C170.849 54.465 171.09 55.1955 171.09 56.1372C171.09 56.1945 171.088 56.2804 171.085 56.395H166.831C166.867 57.0216 167.044 57.5015 167.363 57.8345C167.681 58.1675 168.079 58.334 168.555 58.334C168.91 58.334 169.212 58.2409 169.463 58.0547C169.713 57.8685 169.912 57.5713 170.059 57.1631ZM166.885 55.6001H170.07C170.027 55.1203 169.905 54.7604 169.705 54.5205C169.397 54.1481 168.997 53.9619 168.507 53.9619C168.063 53.9619 167.689 54.1105 167.384 54.4077C167.083 54.7049 166.917 55.1024 166.885 55.6001ZM172.167 59V53.2959H173.037V54.1069C173.456 53.4803 174.061 53.167 174.853 53.167C175.197 53.167 175.512 53.2297 175.798 53.355C176.088 53.4767 176.305 53.6379 176.448 53.8384C176.591 54.0389 176.692 54.277 176.749 54.5527C176.785 54.7318 176.803 55.0451 176.803 55.4927V59H175.836V55.5303C175.836 55.1364 175.798 54.8428 175.723 54.6494C175.648 54.4525 175.513 54.2967 175.32 54.1821C175.13 54.064 174.907 54.0049 174.649 54.0049C174.237 54.0049 173.881 54.1356 173.58 54.397C173.283 54.6584 173.134 55.1543 173.134 55.8848V59H172.167ZM181.881 59V58.2803C181.519 58.846 180.988 59.1289 180.286 59.1289C179.831 59.1289 179.412 59.0036 179.029 58.7529C178.649 58.5023 178.354 58.1532 178.143 57.7056C177.935 57.2544 177.831 56.737 177.831 56.1533C177.831 55.584 177.926 55.0684 178.116 54.6064C178.306 54.141 178.59 53.7847 178.97 53.5376C179.349 53.2905 179.774 53.167 180.243 53.167C180.587 53.167 180.893 53.2404 181.161 53.3872C181.43 53.5304 181.648 53.7184 181.817 53.9512V51.126H182.778V59H181.881ZM178.825 56.1533C178.825 56.8838 178.979 57.4299 179.287 57.7915C179.595 58.1532 179.958 58.334 180.377 58.334C180.8 58.334 181.158 58.1621 181.451 57.8184C181.749 57.471 181.897 56.9429 181.897 56.2339C181.897 55.4533 181.747 54.8804 181.446 54.5151C181.145 54.1499 180.775 53.9673 180.334 53.9673C179.904 53.9673 179.545 54.1427 179.255 54.4937C178.968 54.8446 178.825 55.3978 178.825 56.1533ZM183.834 56.1479C183.834 55.0916 184.127 54.3092 184.714 53.8008C185.205 53.3783 185.803 53.167 186.508 53.167C187.292 53.167 187.933 53.4248 188.431 53.9404C188.929 54.4525 189.178 55.1615 189.178 56.0674C189.178 56.8014 189.067 57.3797 188.845 57.8022C188.626 58.2212 188.306 58.547 187.883 58.7798C187.464 59.0125 187.006 59.1289 186.508 59.1289C185.71 59.1289 185.063 58.8729 184.569 58.3608C184.079 57.8488 183.834 57.1112 183.834 56.1479ZM184.827 56.1479C184.827 56.8784 184.987 57.4263 185.305 57.7915C185.624 58.1532 186.025 58.334 186.508 58.334C186.988 58.334 187.387 58.1514 187.706 57.7861C188.025 57.4209 188.184 56.8641 188.184 56.1157C188.184 55.4103 188.023 54.8768 187.701 54.5151C187.382 54.1499 186.985 53.9673 186.508 53.9673C186.025 53.9673 185.624 54.1481 185.305 54.5098C184.987 54.8714 184.827 55.4175 184.827 56.1479ZM193.136 59V51.126H194.103V59H193.136ZM199.219 58.2964C198.861 58.6007 198.516 58.8156 198.183 58.9409C197.853 59.0662 197.499 59.1289 197.119 59.1289C196.493 59.1289 196.011 58.9767 195.674 58.6724C195.338 58.3644 195.17 57.9723 195.17 57.4961C195.17 57.2168 195.232 56.9626 195.358 56.7334C195.486 56.5007 195.653 56.3145 195.857 56.1748C196.065 56.0352 196.297 55.9295 196.555 55.8579C196.745 55.8078 197.032 55.7594 197.415 55.7129C198.195 55.6198 198.77 55.5088 199.139 55.3799C199.142 55.2474 199.144 55.1632 199.144 55.1274C199.144 54.7336 199.053 54.4561 198.87 54.2949C198.623 54.0765 198.256 53.9673 197.769 53.9673C197.314 53.9673 196.978 54.0479 196.759 54.209C196.545 54.3665 196.385 54.6476 196.281 55.0522L195.336 54.9233C195.422 54.5187 195.563 54.1929 195.76 53.9458C195.957 53.6951 196.242 53.5036 196.614 53.3711C196.987 53.235 197.418 53.167 197.909 53.167C198.396 53.167 198.791 53.2243 199.096 53.3389C199.4 53.4535 199.624 53.5985 199.767 53.7739C199.91 53.9458 200.011 54.1642 200.068 54.4292C200.1 54.5939 200.116 54.8911 200.116 55.3208V56.6099C200.116 57.5086 200.136 58.078 200.175 58.3179C200.218 58.5542 200.301 58.7816 200.422 59H199.413C199.312 58.7995 199.248 58.5649 199.219 58.2964ZM199.139 56.1372C198.788 56.2804 198.261 56.4022 197.56 56.5024C197.162 56.5597 196.881 56.6242 196.716 56.6958C196.552 56.7674 196.425 56.873 196.335 57.0127C196.246 57.1488 196.201 57.3009 196.201 57.4692C196.201 57.7271 196.297 57.9419 196.491 58.1138C196.688 58.2856 196.974 58.3716 197.35 58.3716C197.723 58.3716 198.054 58.291 198.344 58.1299C198.634 57.9652 198.847 57.7414 198.983 57.4585C199.087 57.2401 199.139 56.9178 199.139 56.4917V56.1372ZM142.725 72V66.2959H143.59V67.0962C143.769 66.8169 144.007 66.5931 144.304 66.4248C144.601 66.2529 144.94 66.167 145.319 66.167C145.742 66.167 146.087 66.2547 146.356 66.4302C146.628 66.6056 146.82 66.8509 146.931 67.166C147.382 66.5 147.969 66.167 148.692 66.167C149.258 66.167 149.693 66.3245 149.998 66.6396C150.302 66.9512 150.454 67.4328 150.454 68.0845V72H149.493V68.4067C149.493 68.02 149.46 67.7425 149.396 67.5742C149.335 67.4023 149.222 67.2645 149.058 67.1606C148.893 67.0568 148.7 67.0049 148.478 67.0049C148.076 67.0049 147.743 67.1392 147.479 67.4077C147.214 67.6727 147.081 68.0988 147.081 68.686V72H146.114V68.2939C146.114 67.8643 146.035 67.542 145.878 67.3271C145.72 67.1123 145.463 67.0049 145.104 67.0049C144.832 67.0049 144.58 67.0765 144.347 67.2197C144.118 67.363 143.951 67.5724 143.848 67.8481C143.744 68.1239 143.692 68.5213 143.692 69.0405V72H142.725ZM151.784 65.2378V64.126H152.75V65.2378H151.784ZM151.784 72V66.2959H152.75V72H151.784ZM157.84 71.2964C157.481 71.6007 157.136 71.8156 156.803 71.9409C156.474 72.0662 156.119 72.1289 155.739 72.1289C155.113 72.1289 154.631 71.9767 154.295 71.6724C153.958 71.3644 153.79 70.9723 153.79 70.4961C153.79 70.2168 153.852 69.9626 153.978 69.7334C154.107 69.5007 154.273 69.3145 154.477 69.1748C154.685 69.0352 154.918 68.9295 155.176 68.8579C155.365 68.8078 155.652 68.7594 156.035 68.7129C156.815 68.6198 157.39 68.5088 157.759 68.3799C157.763 68.2474 157.764 68.1632 157.764 68.1274C157.764 67.7336 157.673 67.4561 157.49 67.2949C157.243 67.0765 156.876 66.9673 156.389 66.9673C155.935 66.9673 155.598 67.0479 155.38 67.209C155.165 67.3665 155.005 67.6476 154.902 68.0522L153.956 67.9233C154.042 67.5187 154.184 67.1929 154.381 66.9458C154.578 66.6951 154.862 66.5036 155.235 66.3711C155.607 66.235 156.038 66.167 156.529 66.167C157.016 66.167 157.412 66.2243 157.716 66.3389C158.02 66.4535 158.244 66.5985 158.387 66.7739C158.531 66.9458 158.631 67.1642 158.688 67.4292C158.72 67.5939 158.737 67.8911 158.737 68.3208V69.6099C158.737 70.5086 158.756 71.078 158.796 71.3179C158.839 71.5542 158.921 71.7816 159.043 72H158.033C157.933 71.7995 157.868 71.5649 157.84 71.2964ZM157.759 69.1372C157.408 69.2804 156.882 69.4022 156.18 69.5024C155.782 69.5597 155.501 69.6242 155.337 69.6958C155.172 69.7674 155.045 69.873 154.955 70.0127C154.866 70.1488 154.821 70.3009 154.821 70.4692C154.821 70.7271 154.918 70.9419 155.111 71.1138C155.308 71.2856 155.594 71.3716 155.97 71.3716C156.343 71.3716 156.674 71.291 156.964 71.1299C157.254 70.9652 157.467 70.7414 157.603 70.4585C157.707 70.2401 157.759 69.9178 157.759 69.4917V69.1372ZM166.987 70.1631L167.986 70.2866C167.828 70.8703 167.536 71.3232 167.11 71.6455C166.684 71.9678 166.14 72.1289 165.477 72.1289C164.643 72.1289 163.981 71.8729 163.49 71.3608C163.003 70.8452 162.76 70.1237 162.76 69.1963C162.76 68.2367 163.007 67.4919 163.501 66.9619C163.995 66.432 164.636 66.167 165.424 66.167C166.186 66.167 166.81 66.4266 167.293 66.9458C167.776 67.465 168.018 68.1955 168.018 69.1372C168.018 69.1945 168.016 69.2804 168.013 69.395H163.759C163.795 70.0216 163.972 70.5015 164.29 70.8345C164.609 71.1675 165.007 71.334 165.483 71.334C165.837 71.334 166.14 71.2409 166.391 71.0547C166.641 70.8685 166.84 70.5713 166.987 70.1631ZM163.812 68.6001H166.997C166.955 68.1203 166.833 67.7604 166.632 67.5205C166.324 67.1481 165.925 66.9619 165.435 66.9619C164.991 66.9619 164.616 67.1105 164.312 67.4077C164.011 67.7049 163.845 68.1024 163.812 68.6001ZM168.708 70.2974L169.664 70.147C169.718 70.5301 169.867 70.8237 170.11 71.0278C170.357 71.2319 170.701 71.334 171.141 71.334C171.585 71.334 171.915 71.2445 172.13 71.0654C172.345 70.8828 172.452 70.6698 172.452 70.4263C172.452 70.2078 172.357 70.036 172.167 69.9106C172.035 69.8247 171.705 69.7155 171.179 69.583C170.47 69.404 169.978 69.25 169.702 69.1211C169.43 68.9886 169.222 68.8078 169.079 68.5786C168.939 68.3459 168.869 68.0898 168.869 67.8105C168.869 67.5563 168.927 67.3218 169.041 67.1069C169.159 66.8885 169.319 66.7077 169.519 66.5645C169.67 66.4535 169.874 66.3604 170.132 66.2852C170.393 66.2064 170.672 66.167 170.97 66.167C171.417 66.167 171.809 66.2314 172.146 66.3604C172.486 66.4893 172.737 66.6647 172.898 66.8867C173.059 67.1051 173.17 67.3988 173.231 67.7676L172.285 67.8965C172.242 67.6029 172.117 67.3737 171.909 67.209C171.705 67.0443 171.415 66.9619 171.039 66.9619C170.595 66.9619 170.278 67.0353 170.089 67.1821C169.899 67.3289 169.804 67.5008 169.804 67.6978C169.804 67.8231 169.843 67.9359 169.922 68.0361C170.001 68.14 170.124 68.2259 170.293 68.2939C170.389 68.3298 170.674 68.4121 171.147 68.541C171.831 68.7236 172.307 68.874 172.575 68.9922C172.848 69.1068 173.061 69.2751 173.215 69.4971C173.369 69.7191 173.446 69.9948 173.446 70.3242C173.446 70.6465 173.351 70.9508 173.161 71.2373C172.975 71.5202 172.704 71.7404 172.35 71.8979C171.995 72.0519 171.594 72.1289 171.147 72.1289C170.406 72.1289 169.84 71.9749 169.45 71.667C169.063 71.359 168.816 70.9025 168.708 70.2974ZM174.485 74.186V66.2959H175.366V67.0371C175.574 66.7471 175.808 66.5304 176.069 66.3872C176.331 66.2404 176.648 66.167 177.02 66.167C177.507 66.167 177.937 66.2923 178.309 66.543C178.682 66.7936 178.963 67.1481 179.153 67.6064C179.342 68.0612 179.437 68.5607 179.437 69.105C179.437 69.6886 179.332 70.215 179.12 70.6841C178.913 71.1496 178.608 71.5076 178.207 71.7583C177.81 72.0054 177.391 72.1289 176.95 72.1289C176.628 72.1289 176.338 72.0609 176.08 71.9248C175.826 71.7887 175.617 71.6169 175.452 71.4092V74.186H174.485ZM175.361 69.1802C175.361 69.9142 175.509 70.4567 175.806 70.8076C176.104 71.1585 176.463 71.334 176.886 71.334C177.316 71.334 177.683 71.1532 177.987 70.7915C178.295 70.4263 178.449 69.8623 178.449 69.0996C178.449 68.3727 178.298 67.8285 177.998 67.4668C177.701 67.1051 177.344 66.9243 176.929 66.9243C176.517 66.9243 176.152 67.1177 175.833 67.5044C175.518 67.8875 175.361 68.4461 175.361 69.1802ZM184.403 70.1631L185.402 70.2866C185.244 70.8703 184.952 71.3232 184.526 71.6455C184.1 71.9678 183.556 72.1289 182.894 72.1289C182.059 72.1289 181.397 71.8729 180.906 71.3608C180.419 70.8452 180.176 70.1237 180.176 69.1963C180.176 68.2367 180.423 67.4919 180.917 66.9619C181.411 66.432 182.052 66.167 182.84 66.167C183.603 66.167 184.226 66.4266 184.709 66.9458C185.192 67.465 185.434 68.1955 185.434 69.1372C185.434 69.1945 185.432 69.2804 185.429 69.395H181.175C181.211 70.0216 181.388 70.5015 181.707 70.8345C182.025 71.1675 182.423 71.334 182.899 71.334C183.253 71.334 183.556 71.2409 183.807 71.0547C184.057 70.8685 184.256 70.5713 184.403 70.1631ZM181.229 68.6001H184.414C184.371 68.1203 184.249 67.7604 184.048 67.5205C183.74 67.1481 183.341 66.9619 182.851 66.9619C182.407 66.9619 182.032 67.1105 181.728 67.4077C181.427 67.7049 181.261 68.1024 181.229 68.6001ZM186.5 72V66.2959H187.37V67.1606C187.592 66.756 187.797 66.4893 187.983 66.3604C188.173 66.2314 188.38 66.167 188.606 66.167C188.932 66.167 189.263 66.2708 189.599 66.4785L189.266 67.3755C189.03 67.2358 188.794 67.166 188.557 67.166C188.346 67.166 188.156 67.2305 187.988 67.3594C187.82 67.4847 187.7 67.6602 187.628 67.8857C187.521 68.2295 187.467 68.6055 187.467 69.0137V72H186.5ZM190.07 65.2378V64.126H191.036V65.2378H190.07ZM190.07 72V66.2959H191.036V72H190.07ZM196.308 70.1631L197.307 70.2866C197.15 70.8703 196.858 71.3232 196.432 71.6455C196.006 71.9678 195.461 72.1289 194.799 72.1289C193.965 72.1289 193.302 71.8729 192.812 71.3608C192.325 70.8452 192.081 70.1237 192.081 69.1963C192.081 68.2367 192.328 67.4919 192.822 66.9619C193.317 66.432 193.957 66.167 194.745 66.167C195.508 66.167 196.131 66.4266 196.614 66.9458C197.098 67.465 197.339 68.1955 197.339 69.1372C197.339 69.1945 197.338 69.2804 197.334 69.395H193.08C193.116 70.0216 193.293 70.5015 193.612 70.8345C193.931 71.1675 194.328 71.334 194.804 71.334C195.159 71.334 195.461 71.2409 195.712 71.0547C195.963 70.8685 196.161 70.5713 196.308 70.1631ZM193.134 68.6001H196.319C196.276 68.1203 196.154 67.7604 195.954 67.5205C195.646 67.1481 195.247 66.9619 194.756 66.9619C194.312 66.9619 193.938 67.1105 193.633 67.4077C193.333 67.7049 193.166 68.1024 193.134 68.6001ZM198.416 72V66.2959H199.287V67.1069C199.706 66.4803 200.311 66.167 201.102 66.167C201.446 66.167 201.761 66.2297 202.047 66.355C202.337 66.4767 202.554 66.6379 202.697 66.8384C202.84 67.0389 202.941 67.277 202.998 67.5527C203.034 67.7318 203.052 68.0451 203.052 68.4927V72H202.085V68.5303C202.085 68.1364 202.047 67.8428 201.972 67.6494C201.897 67.4525 201.763 67.2967 201.569 67.1821C201.38 67.064 201.156 67.0049 200.898 67.0049C200.486 67.0049 200.13 67.1356 199.829 67.397C199.532 67.6584 199.383 68.1543 199.383 68.8848V72H198.416ZM203.919 72V71.2158L207.55 67.0479C207.138 67.0693 206.775 67.0801 206.46 67.0801H204.134V66.2959H208.796V66.9351L205.708 70.5552L205.112 71.2158C205.545 71.1836 205.951 71.1675 206.331 71.1675H208.968V72H203.919ZM213.542 71.2964C213.184 71.6007 212.838 71.8156 212.505 71.9409C212.176 72.0662 211.821 72.1289 211.442 72.1289C210.815 72.1289 210.333 71.9767 209.997 71.6724C209.66 71.3644 209.492 70.9723 209.492 70.4961C209.492 70.2168 209.555 69.9626 209.68 69.7334C209.809 69.5007 209.975 69.3145 210.179 69.1748C210.387 69.0352 210.62 68.9295 210.878 68.8579C211.067 68.8078 211.354 68.7594 211.737 68.7129C212.518 68.6198 213.092 68.5088 213.461 68.3799C213.465 68.2474 213.466 68.1632 213.466 68.1274C213.466 67.7336 213.375 67.4561 213.193 67.2949C212.945 67.0765 212.578 66.9673 212.091 66.9673C211.637 66.9673 211.3 67.0479 211.082 67.209C210.867 67.3665 210.708 67.6476 210.604 68.0522L209.658 67.9233C209.744 67.5187 209.886 67.1929 210.083 66.9458C210.28 66.6951 210.564 66.5036 210.937 66.3711C211.309 66.235 211.741 66.167 212.231 66.167C212.718 66.167 213.114 66.2243 213.418 66.3389C213.723 66.4535 213.946 66.5985 214.09 66.7739C214.233 66.9458 214.333 67.1642 214.39 67.4292C214.423 67.5939 214.439 67.8911 214.439 68.3208V69.6099C214.439 70.5086 214.458 71.078 214.498 71.3179C214.541 71.5542 214.623 71.7816 214.745 72H213.735C213.635 71.7995 213.57 71.5649 213.542 71.2964ZM213.461 69.1372C213.11 69.2804 212.584 69.4022 211.882 69.5024C211.485 69.5597 211.203 69.6242 211.039 69.6958C210.874 69.7674 210.747 69.873 210.657 70.0127C210.568 70.1488 210.523 70.3009 210.523 70.4692C210.523 70.7271 210.62 70.9419 210.813 71.1138C211.01 71.2856 211.297 71.3716 211.673 71.3716C212.045 71.3716 212.376 71.291 212.666 71.1299C212.956 70.9652 213.169 70.7414 213.305 70.4585C213.409 70.2401 213.461 69.9178 213.461 69.4917V69.1372ZM217.643 70.061C217.639 69.9321 217.637 69.8354 217.637 69.771C217.637 69.3914 217.691 69.0638 217.798 68.7881C217.877 68.5804 218.004 68.3709 218.18 68.1597C218.309 68.0057 218.54 67.7819 218.873 67.4883C219.209 67.1911 219.428 66.9548 219.528 66.7793C219.628 66.6038 219.678 66.4123 219.678 66.2046C219.678 65.8286 219.531 65.4992 219.238 65.2163C218.944 64.9299 218.584 64.7866 218.158 64.7866C217.746 64.7866 217.403 64.9155 217.127 65.1733C216.851 65.4312 216.67 65.834 216.585 66.3818L215.591 66.2637C215.68 65.5296 215.945 64.9674 216.386 64.5771C216.83 64.1868 217.415 63.9917 218.142 63.9917C218.912 63.9917 219.526 64.2012 219.984 64.6201C220.443 65.0391 220.672 65.5457 220.672 66.1401C220.672 66.4839 220.591 66.8008 220.43 67.0908C220.269 67.3809 219.954 67.7336 219.485 68.1489C219.17 68.4282 218.964 68.6341 218.867 68.7666C218.771 68.8991 218.699 69.0513 218.652 69.2231C218.606 69.395 218.579 69.6743 218.572 70.061H217.643ZM217.584 72V70.8989H218.685V72H217.584Z" fill="white"/>
<line x1="226.5" y1="73" x2="226.5" y2="37" stroke="white"/>
<path d="M33.005 70.277C33.005 65.319 34.5013 60.8523 37.494 56.877C40.5313 52.9017 44.6407 49.7973 49.822 47.564C55.048 45.286 60.8323 44.147 67.175 44.147C73.1157 44.147 78.4087 45.085 83.054 46.961C87.744 48.7923 91.5183 51.383 94.377 54.733C97.2803 58.0383 99.0893 61.835 99.804 66.123H79.972C79.1233 63.8003 77.4483 61.9467 74.947 60.562C72.4903 59.1773 69.922 58.485 67.242 58.485C64.8747 58.485 62.5967 58.954 60.408 59.892C58.264 60.83 56.4997 62.1923 55.115 63.979C53.775 65.7657 53.105 67.865 53.105 70.277C53.105 72.689 53.775 74.7883 55.115 76.575C56.4997 78.317 58.264 79.657 60.408 80.595C62.5967 81.533 64.8747 82.002 67.242 82.002C70.19 82.002 72.7807 81.3543 75.014 80.059C77.2473 78.7637 78.8777 76.91 79.905 74.498H99.737C98.9777 78.7413 97.1687 82.5157 94.31 85.821C91.4513 89.1263 87.677 91.717 82.987 93.593C78.3417 95.4243 73.071 96.34 67.175 96.34C60.877 96.34 55.115 95.201 49.889 92.923C44.663 90.645 40.5313 87.5183 37.494 83.543C34.5013 79.5677 33.005 75.1457 33.005 70.277Z" fill="white"/>
<path d="M126.438 74.348C132.736 74.348 138.409 75.487 143.456 77.765C148.503 79.9983 152.456 83.1027 155.315 87.078C158.174 91.0087 159.603 95.453 159.603 100.411C159.603 105.324 158.174 109.746 155.315 113.677C152.456 117.608 148.503 120.712 143.456 122.99C138.409 125.223 132.736 126.34 126.438 126.34C120.408 126.34 114.825 125.223 109.688 122.99C104.596 120.712 100.531 117.608 97.494 113.677C94.5013 109.702 93.005 105.28 93.005 100.411C93.005 95.4977 94.5013 91.0533 97.494 87.078C100.531 83.1027 104.596 79.9983 109.688 77.765C114.825 75.487 120.408 74.348 126.438 74.348ZM126.505 112.136C128.649 112.136 130.704 111.667 132.669 110.729C134.679 109.791 136.309 108.429 137.56 106.642C138.811 104.855 139.436 102.778 139.436 100.411C139.436 97.999 138.811 95.922 137.56 94.18C136.309 92.3933 134.679 91.031 132.669 90.093C130.704 89.155 128.649 88.686 126.505 88.686C124.406 88.686 122.351 89.155 120.341 90.093C118.376 91.031 116.745 92.3933 115.45 94.18C114.199 95.922 113.574 97.999 113.574 100.411C113.574 102.778 114.199 104.855 115.45 106.642C116.745 108.429 118.376 109.791 120.341 110.729C122.351 111.667 124.406 112.136 126.505 112.136Z" fill="white"/>
<path d="M67.711 124.252C69.855 124.163 71.53 124.118 72.736 124.118C79.2127 124.118 84.461 125.034 88.481 126.865C92.5457 128.696 94.578 132.292 94.578 137.652C94.578 144.665 91.4737 149.399 85.265 151.856C79.0563 154.313 72.066 155.541 64.294 155.541C56.4773 155.541 49.3083 154.313 42.787 151.856C36.2657 149.399 33.005 144.665 33.005 137.652H52.703C52.703 140.243 53.842 141.895 56.12 142.61C58.398 143.325 61.1227 143.682 64.294 143.682C67.2867 143.682 69.855 143.213 71.999 142.275C74.143 141.337 75.215 139.885 75.215 137.92C75.215 136.267 74.076 135.195 71.798 134.704C69.5647 134.168 66.9517 133.9 63.959 133.9L57.259 133.967C52.7923 133.967 48.817 133.654 45.333 133.029C41.8937 132.359 38.968 130.997 36.556 128.942C34.1887 126.843 33.005 123.783 33.005 119.763C33.005 114.894 34.7247 111.232 38.164 108.775C41.648 106.274 45.6233 104.688 50.09 104.018C54.5567 103.303 59.2913 102.946 64.294 102.946C72.066 102.946 79.0563 104.174 85.265 106.631C91.4737 109.043 94.578 113.778 94.578 120.835H75.215C75.215 118.959 74.143 117.552 71.999 116.614C69.8997 115.676 67.3313 115.162 64.294 115.073C61.078 115.073 58.331 115.43 56.053 116.145C53.8197 116.86 52.703 117.999 52.703 119.562C52.703 121.349 53.842 122.577 56.12 123.247C58.398 123.917 60.9663 124.274 63.825 124.319L67.711 124.252Z" fill="white"/>
<path d="M151.154 180H132.059L127.972 172.496H101.507L97.42 180H78.325L105.192 130.42H124.287L151.154 180ZM114.773 148.041L108.073 160.302H121.406L114.773 148.041Z" fill="white"/>
<g filter="url(#filter10_f_285_157)">
<ellipse cx="54.9007" cy="113.03" rx="21.5" ry="27.5" transform="rotate(-50.8928 54.9007 113.03)" fill="#A92684"/>
</g>
<g filter="url(#filter11_f_285_157)">
<ellipse cx="127" cy="124.5" rx="21" ry="17.5" fill="#A92684"/>
</g>
<defs>
<filter id="filter0_f_285_157" x="7.31513" y="0.457222" width="137.863" height="137.863" filterUnits="userSpaceOnUse" color-interpolation-filters="sRGB">
<feFlood flood-opacity="0" result="BackgroundImageFix"/>
<feBlend mode="normal" in="SourceGraphic" in2="BackgroundImageFix" result="shape"/>
<feGaussianBlur stdDeviation="15.0137" result="effect1_foregroundBlur_285_157"/>
</filter>
<filter id="filter1_f_285_157" x="40.6957" y="101.489" width="127.582" height="112.68" filterUnits="userSpaceOnUse" color-interpolation-filters="sRGB">
<feFlood flood-opacity="0" result="BackgroundImageFix"/>
<feBlend mode="normal" in="SourceGraphic" in2="BackgroundImageFix" result="shape"/>
<feGaussianBlur stdDeviation="17.2055" result="effect1_foregroundBlur_285_157"/>
</filter>
<filter id="filter2_f_285_157" x="64.7563" y="121.33" width="116.722" height="112.45" filterUnits="userSpaceOnUse" color-interpolation-filters="sRGB">
<feFlood flood-opacity="0" result="BackgroundImageFix"/>
<feBlend mode="normal" in="SourceGraphic" in2="BackgroundImageFix" result="shape"/>
<feGaussianBlur stdDeviation="17.2055" result="effect1_foregroundBlur_285_157"/>
</filter>
<filter id="filter3_f_285_157" x="6.43827" y="90.5393" width="124.274" height="124.274" filterUnits="userSpaceOnUse" color-interpolation-filters="sRGB">
<feFlood flood-opacity="0" result="BackgroundImageFix"/>
<feBlend mode="normal" in="SourceGraphic" in2="BackgroundImageFix" result="shape"/>
<feGaussianBlur stdDeviation="18.7397" result="effect1_foregroundBlur_285_157"/>
</filter>
<filter id="filter4_f_285_157" x="45.3425" y="123.964" width="57.4247" height="57.4247" filterUnits="userSpaceOnUse" color-interpolation-filters="sRGB">
<feFlood flood-opacity="0" result="BackgroundImageFix"/>
<feBlend mode="normal" in="SourceGraphic" in2="BackgroundImageFix" result="shape"/>
<feGaussianBlur stdDeviation="4.76712" result="effect1_foregroundBlur_285_157"/>
</filter>
<filter id="filter5_f_285_157" x="-8.0274" y="65.1147" width="106.082" height="98.411" filterUnits="userSpaceOnUse" color-interpolation-filters="sRGB">
<feFlood flood-opacity="0" result="BackgroundImageFix"/>
<feBlend mode="normal" in="SourceGraphic" in2="BackgroundImageFix" result="shape"/>
<feGaussianBlur stdDeviation="15.0137" result="effect1_foregroundBlur_285_157"/>
</filter>
<filter id="filter6_f_285_157" x="74.1645" y="15.7998" width="137.863" height="137.863" filterUnits="userSpaceOnUse" color-interpolation-filters="sRGB">
<feFlood flood-opacity="0" result="BackgroundImageFix"/>
<feBlend mode="normal" in="SourceGraphic" in2="BackgroundImageFix" result="shape"/>
<feGaussianBlur stdDeviation="15.0137" result="effect1_foregroundBlur_285_157"/>
</filter>
<filter id="filter7_f_285_157" x="40.4111" y="58.7586" width="111.123" height="111.123" filterUnits="userSpaceOnUse" color-interpolation-filters="sRGB">
<feFlood flood-opacity="0" result="BackgroundImageFix"/>
<feBlend mode="normal" in="SourceGraphic" in2="BackgroundImageFix" result="shape"/>
<feGaussianBlur stdDeviation="8.32877" result="effect1_foregroundBlur_285_157"/>
</filter>
<filter id="filter8_f_285_157" x="59.4794" y="58.101" width="66.411" height="66.411" filterUnits="userSpaceOnUse" color-interpolation-filters="sRGB">
<feFlood flood-opacity="0" result="BackgroundImageFix"/>
<feBlend mode="normal" in="SourceGraphic" in2="BackgroundImageFix" result="shape"/>
<feGaussianBlur stdDeviation="7.0137" result="effect1_foregroundBlur_285_157"/>
</filter>
<filter id="filter9_f_285_157" x="98.393" y="110.646" width="62.6625" height="58.9556" filterUnits="userSpaceOnUse" color-interpolation-filters="sRGB">
<feFlood flood-opacity="0" result="BackgroundImageFix"/>
<feBlend mode="normal" in="SourceGraphic" in2="BackgroundImageFix" result="shape"/>
<feGaussianBlur stdDeviation="4.76712" result="effect1_foregroundBlur_285_157"/>
</filter>
<filter id="filter10_f_285_157" x="3.71353" y="63.0624" width="102.374" height="99.9343" filterUnits="userSpaceOnUse" color-interpolation-filters="sRGB">
<feFlood flood-opacity="0" result="BackgroundImageFix"/>
<feBlend mode="normal" in="SourceGraphic" in2="BackgroundImageFix" result="shape"/>
<feGaussianBlur stdDeviation="12.95" result="effect1_foregroundBlur_285_157"/>
</filter>
<filter id="filter11_f_285_157" x="81" y="82" width="92" height="85" filterUnits="userSpaceOnUse" color-interpolation-filters="sRGB">
<feFlood flood-opacity="0" result="BackgroundImageFix"/>
<feBlend mode="normal" in="SourceGraphic" in2="BackgroundImageFix" result="shape"/>
<feGaussianBlur stdDeviation="12.5" result="effect1_foregroundBlur_285_157"/>
</filter>
</defs>
</svg>
