<svg width="257" height="234" viewBox="0 0 257 234" fill="none" xmlns="http://www.w3.org/2000/svg">
<g filter="url(#filter0_f_285_157)">
<circle cx="85.2466" cy="69.3887" r="38.9041" fill="#A92684" fill-opacity="0.9"/>
</g>
<g filter="url(#filter1_f_285_157)">
<ellipse cx="113.487" cy="157.829" rx="21.7719" ry="29.492" transform="rotate(-97.4821 113.487 157.829)" fill="#A92684"/>
</g>
<g filter="url(#filter2_f_285_157)">
<ellipse cx="132.117" cy="177.555" rx="21.7719" ry="23.9834" transform="rotate(-97.4821 132.117 177.555)" fill="#A92684" fill-opacity="0.9"/>
</g>
<g filter="url(#filter3_f_285_157)">
<circle cx="77.5753" cy="152.676" r="24.6575" fill="#A92684"/>
</g>
<g filter="url(#filter4_f_285_157)">
<circle cx="83.0548" cy="152.676" r="19.1781" fill="#A92684"/>
</g>
<g filter="url(#filter5_f_285_157)">
<ellipse cx="54.0137" cy="114.32" rx="23.0137" ry="19.1781" fill="#A92684" fill-opacity="0.6"/>
</g>
<g filter="url(#filter6_f_285_157)">
<circle cx="152.096" cy="84.7313" r="38.9041" fill="#A92684" fill-opacity="0.6"/>
</g>
<g filter="url(#filter7_f_285_157)">
<circle cx="104.973" cy="114.32" r="38.9041" fill="#A92684"/>
</g>
<g filter="url(#filter8_f_285_157)">
<circle cx="101.685" cy="91.3065" r="19.1781" fill="#CD4FA9"/>
</g>
<g filter="url(#filter9_f_285_157)">
<ellipse cx="138.724" cy="140.124" rx="22.4658" ry="19.1781" transform="rotate(-27.8271 138.724 140.124)" fill="#A92684"/>
</g>
<path d="M146.465 30.3701C146.465 29.0257 146.839 28.0299 147.586 27.3828C148.21 26.8451 148.971 26.5762 149.869 26.5762C150.867 26.5762 151.683 26.9043 152.316 27.5605C152.95 28.2122 153.267 29.1146 153.267 30.2676C153.267 31.2018 153.125 31.9378 152.843 32.4756C152.565 33.0088 152.157 33.4235 151.619 33.7197C151.086 34.016 150.503 34.1641 149.869 34.1641C148.853 34.1641 148.03 33.8382 147.401 33.1865C146.777 32.5348 146.465 31.596 146.465 30.3701ZM147.729 30.3701C147.729 31.2998 147.932 31.9971 148.338 32.4619C148.743 32.9222 149.254 33.1523 149.869 33.1523C150.48 33.1523 150.988 32.9199 151.394 32.4551C151.799 31.9902 152.002 31.2816 152.002 30.3291C152.002 29.4313 151.797 28.7523 151.387 28.292C150.981 27.8271 150.475 27.5947 149.869 27.5947C149.254 27.5947 148.743 27.8249 148.338 28.2852C147.932 28.7454 147.729 29.4404 147.729 30.3701ZM157.262 32.8994L157.44 33.9863C157.094 34.0592 156.784 34.0957 156.51 34.0957C156.064 34.0957 155.717 34.0251 155.471 33.8838C155.225 33.7425 155.052 33.5579 154.952 33.3301C154.852 33.0977 154.801 32.6123 154.801 31.874V27.6973H153.899V26.7402H154.801V24.9424L156.025 24.2041V26.7402H157.262V27.6973H156.025V31.9424C156.025 32.2933 156.046 32.5189 156.087 32.6191C156.132 32.7194 156.203 32.7992 156.298 32.8584C156.399 32.9176 156.54 32.9473 156.722 32.9473C156.859 32.9473 157.039 32.9313 157.262 32.8994ZM161.019 32.8994L161.197 33.9863C160.85 34.0592 160.54 34.0957 160.267 34.0957C159.82 34.0957 159.474 34.0251 159.228 33.8838C158.982 33.7425 158.809 33.5579 158.708 33.3301C158.608 33.0977 158.558 32.6123 158.558 31.874V27.6973H157.656V26.7402H158.558V24.9424L159.782 24.2041V26.7402H161.019V27.6973H159.782V31.9424C159.782 32.2933 159.802 32.5189 159.843 32.6191C159.889 32.7194 159.959 32.7992 160.055 32.8584C160.155 32.9176 160.296 32.9473 160.479 32.9473C160.616 32.9473 160.796 32.9313 161.019 32.8994ZM167.059 31.6621L168.33 31.8193C168.129 32.5622 167.758 33.1387 167.216 33.5488C166.673 33.959 165.981 34.1641 165.138 34.1641C164.076 34.1641 163.233 33.8382 162.608 33.1865C161.989 32.5303 161.679 31.612 161.679 30.4316C161.679 29.2103 161.993 28.2624 162.622 27.5879C163.251 26.9134 164.067 26.5762 165.069 26.5762C166.04 26.5762 166.833 26.9066 167.448 27.5674C168.063 28.2282 168.371 29.1579 168.371 30.3564C168.371 30.4294 168.369 30.5387 168.364 30.6846H162.95C162.996 31.4821 163.221 32.0928 163.627 32.5166C164.032 32.9404 164.538 33.1523 165.144 33.1523C165.596 33.1523 165.981 33.0339 166.3 32.7969C166.619 32.5599 166.872 32.1816 167.059 31.6621ZM163.018 29.6729H167.072C167.017 29.0622 166.863 28.6042 166.607 28.2988C166.215 27.8249 165.707 27.5879 165.083 27.5879C164.518 27.5879 164.042 27.777 163.654 28.1553C163.271 28.5335 163.059 29.0394 163.018 29.6729ZM169.728 34V26.7402H170.836V27.8408C171.118 27.3258 171.378 26.9863 171.615 26.8223C171.856 26.6582 172.121 26.5762 172.408 26.5762C172.822 26.5762 173.244 26.7083 173.672 26.9727L173.249 28.1143C172.948 27.9365 172.647 27.8477 172.346 27.8477C172.077 27.8477 171.836 27.9297 171.622 28.0938C171.407 28.2533 171.255 28.4766 171.164 28.7637C171.027 29.2012 170.959 29.6797 170.959 30.1992V34H169.728ZM174.25 34V26.7402H175.358V27.8408C175.64 27.3258 175.9 26.9863 176.137 26.8223C176.378 26.6582 176.643 26.5762 176.93 26.5762C177.345 26.5762 177.766 26.7083 178.195 26.9727L177.771 28.1143C177.47 27.9365 177.169 27.8477 176.868 27.8477C176.599 27.8477 176.358 27.9297 176.144 28.0938C175.93 28.2533 175.777 28.4766 175.686 28.7637C175.549 29.2012 175.481 29.6797 175.481 30.1992V34H174.25ZM183.756 31.6621L185.027 31.8193C184.827 32.5622 184.455 33.1387 183.913 33.5488C183.371 33.959 182.678 34.1641 181.835 34.1641C180.773 34.1641 179.93 33.8382 179.306 33.1865C178.686 32.5303 178.376 31.612 178.376 30.4316C178.376 29.2103 178.69 28.2624 179.319 27.5879C179.948 26.9134 180.764 26.5762 181.766 26.5762C182.737 26.5762 183.53 26.9066 184.145 27.5674C184.761 28.2282 185.068 29.1579 185.068 30.3564C185.068 30.4294 185.066 30.5387 185.061 30.6846H179.647C179.693 31.4821 179.918 32.0928 180.324 32.5166C180.73 32.9404 181.236 33.1523 181.842 33.1523C182.293 33.1523 182.678 33.0339 182.997 32.7969C183.316 32.5599 183.569 32.1816 183.756 31.6621ZM179.716 29.6729H183.769C183.715 29.0622 183.56 28.6042 183.305 28.2988C182.913 27.8249 182.404 27.5879 181.78 27.5879C181.215 27.5879 180.739 27.777 180.351 28.1553C179.969 28.5335 179.757 29.0394 179.716 29.6729ZM189.125 32.8994L189.303 33.9863C188.957 34.0592 188.647 34.0957 188.374 34.0957C187.927 34.0957 187.581 34.0251 187.334 33.8838C187.088 33.7425 186.915 33.5579 186.815 33.3301C186.715 33.0977 186.665 32.6123 186.665 31.874V27.6973H185.762V26.7402H186.665V24.9424L187.888 24.2041V26.7402H189.125V27.6973H187.888V31.9424C187.888 32.2933 187.909 32.5189 187.95 32.6191C187.995 32.7194 188.066 32.7992 188.162 32.8584C188.262 32.9176 188.403 32.9473 188.585 32.9473C188.722 32.9473 188.902 32.9313 189.125 32.8994ZM195.165 31.6621L196.437 31.8193C196.236 32.5622 195.865 33.1387 195.322 33.5488C194.78 33.959 194.087 34.1641 193.244 34.1641C192.182 34.1641 191.339 33.8382 190.715 33.1865C190.095 32.5303 189.785 31.612 189.785 30.4316C189.785 29.2103 190.1 28.2624 190.729 27.5879C191.358 26.9134 192.173 26.5762 193.176 26.5762C194.147 26.5762 194.94 26.9066 195.555 27.5674C196.17 28.2282 196.478 29.1579 196.478 30.3564C196.478 30.4294 196.475 30.5387 196.471 30.6846H191.057C191.102 31.4821 191.328 32.0928 191.734 32.5166C192.139 32.9404 192.645 33.1523 193.251 33.1523C193.702 33.1523 194.087 33.0339 194.406 32.7969C194.725 32.5599 194.978 32.1816 195.165 31.6621ZM191.125 29.6729H195.179C195.124 29.0622 194.969 28.6042 194.714 28.2988C194.322 27.8249 193.814 27.5879 193.19 27.5879C192.624 27.5879 192.148 27.777 191.761 28.1553C191.378 28.5335 191.166 29.0394 191.125 29.6729ZM146.431 47.833L147.647 47.6416C147.716 48.1292 147.905 48.5029 148.215 48.7627C148.529 49.0225 148.967 49.1523 149.527 49.1523C150.092 49.1523 150.512 49.0384 150.785 48.8105C151.059 48.5781 151.195 48.307 151.195 47.9971C151.195 47.7191 151.075 47.5003 150.833 47.3408C150.664 47.2314 150.245 47.0924 149.575 46.9238C148.673 46.696 148.046 46.5 147.695 46.3359C147.349 46.1673 147.085 45.9372 146.902 45.6455C146.725 45.3493 146.636 45.0234 146.636 44.668C146.636 44.3444 146.709 44.0459 146.854 43.7725C147.005 43.4945 147.208 43.2643 147.463 43.082C147.654 42.9408 147.914 42.8223 148.242 42.7266C148.575 42.6263 148.93 42.5762 149.309 42.5762C149.878 42.5762 150.377 42.6582 150.806 42.8223C151.239 42.9863 151.558 43.2096 151.763 43.4922C151.968 43.7702 152.109 44.1439 152.187 44.6133L150.983 44.7773C150.929 44.4036 150.769 44.112 150.505 43.9023C150.245 43.6927 149.876 43.5879 149.397 43.5879C148.832 43.5879 148.429 43.6813 148.188 43.8682C147.946 44.055 147.825 44.2738 147.825 44.5244C147.825 44.6839 147.875 44.8275 147.976 44.9551C148.076 45.0872 148.233 45.1966 148.447 45.2832C148.57 45.3288 148.933 45.4336 149.534 45.5977C150.405 45.8301 151.011 46.0215 151.353 46.1719C151.699 46.3177 151.97 46.5319 152.166 46.8145C152.362 47.097 152.46 47.4479 152.46 47.8672C152.46 48.2773 152.339 48.6647 152.098 49.0293C151.861 49.3893 151.517 49.6696 151.065 49.8701C150.614 50.0661 150.104 50.1641 149.534 50.1641C148.591 50.1641 147.871 49.9681 147.374 49.5762C146.882 49.1842 146.567 48.6032 146.431 47.833ZM158.753 47.6621L160.024 47.8193C159.824 48.5622 159.452 49.1387 158.91 49.5488C158.367 49.959 157.675 50.1641 156.832 50.1641C155.77 50.1641 154.927 49.8382 154.302 49.1865C153.683 48.5303 153.373 47.612 153.373 46.4316C153.373 45.2103 153.687 44.2624 154.316 43.5879C154.945 42.9134 155.761 42.5762 156.763 42.5762C157.734 42.5762 158.527 42.9066 159.142 43.5674C159.757 44.2282 160.065 45.1579 160.065 46.3564C160.065 46.4294 160.063 46.5387 160.058 46.6846H154.644C154.69 47.4821 154.915 48.0928 155.321 48.5166C155.727 48.9404 156.232 49.1523 156.839 49.1523C157.29 49.1523 157.675 49.0339 157.994 48.7969C158.313 48.5599 158.566 48.1816 158.753 47.6621ZM154.713 45.6729H158.766C158.712 45.0622 158.557 44.6042 158.301 44.2988C157.909 43.8249 157.401 43.5879 156.777 43.5879C156.212 43.5879 155.736 43.777 155.348 44.1553C154.965 44.5335 154.754 45.0394 154.713 45.6729ZM161.21 50.6016L162.407 50.7793C162.457 51.1484 162.596 51.4173 162.824 51.5859C163.129 51.8138 163.546 51.9277 164.074 51.9277C164.644 51.9277 165.084 51.8138 165.394 51.5859C165.704 51.3581 165.913 51.0391 166.023 50.6289C166.087 50.3783 166.116 49.8519 166.112 49.0498C165.574 49.6833 164.904 50 164.102 50C163.104 50 162.331 49.64 161.784 48.9199C161.238 48.1999 160.964 47.3363 160.964 46.3291C160.964 45.6364 161.089 44.9984 161.34 44.415C161.591 43.8271 161.953 43.3737 162.427 43.0547C162.906 42.7357 163.466 42.5762 164.109 42.5762C164.965 42.5762 165.672 42.9225 166.228 43.6152V42.7402H167.363V49.0156C167.363 50.1458 167.246 50.9456 167.014 51.415C166.786 51.889 166.421 52.2627 165.92 52.5361C165.423 52.8096 164.81 52.9463 164.081 52.9463C163.215 52.9463 162.516 52.7503 161.983 52.3584C161.449 51.971 161.192 51.3854 161.21 50.6016ZM162.229 46.2402C162.229 47.1927 162.418 47.8877 162.796 48.3252C163.174 48.7627 163.648 48.9814 164.218 48.9814C164.783 48.9814 165.257 48.765 165.64 48.332C166.023 47.8945 166.214 47.2109 166.214 46.2812C166.214 45.3926 166.016 44.7227 165.619 44.2715C165.227 43.8203 164.754 43.5947 164.198 43.5947C163.651 43.5947 163.186 43.818 162.803 44.2646C162.42 44.7067 162.229 45.3652 162.229 46.2402ZM173.847 50V48.9336C173.281 49.7539 172.514 50.1641 171.543 50.1641C171.115 50.1641 170.713 50.082 170.34 49.918C169.971 49.7539 169.695 49.5488 169.513 49.3027C169.335 49.0521 169.21 48.7467 169.137 48.3867C169.087 48.1452 169.061 47.7624 169.061 47.2383V42.7402H170.292V46.7666C170.292 47.4092 170.317 47.8421 170.367 48.0654C170.445 48.389 170.609 48.6442 170.859 48.8311C171.11 49.0133 171.42 49.1045 171.789 49.1045C172.158 49.1045 172.504 49.0111 172.828 48.8242C173.152 48.6328 173.379 48.3753 173.512 48.0518C173.648 47.7236 173.717 47.2497 173.717 46.6299V42.7402H174.947V50H173.847ZM181.711 47.6621L182.983 47.8193C182.782 48.5622 182.411 49.1387 181.869 49.5488C181.326 49.959 180.634 50.1641 179.791 50.1641C178.729 50.1641 177.886 49.8382 177.261 49.1865C176.641 48.5303 176.332 47.612 176.332 46.4316C176.332 45.2103 176.646 44.2624 177.275 43.5879C177.904 42.9134 178.72 42.5762 179.722 42.5762C180.693 42.5762 181.486 42.9066 182.101 43.5674C182.716 44.2282 183.024 45.1579 183.024 46.3564C183.024 46.4294 183.022 46.5387 183.017 46.6846H177.603C177.649 47.4821 177.874 48.0928 178.28 48.5166C178.685 48.9404 179.191 49.1523 179.797 49.1523C180.249 49.1523 180.634 49.0339 180.953 48.7969C181.272 48.5599 181.525 48.1816 181.711 47.6621ZM177.671 45.6729H181.725C181.67 45.0622 181.516 44.6042 181.26 44.2988C180.868 43.8249 180.36 43.5879 179.736 43.5879C179.171 43.5879 178.695 43.777 178.307 44.1553C177.924 44.5335 177.712 45.0394 177.671 45.6729ZM184.395 50V42.7402H185.502V43.7725C186.035 42.9749 186.806 42.5762 187.813 42.5762C188.25 42.5762 188.651 42.6559 189.016 42.8154C189.385 42.9704 189.661 43.1755 189.843 43.4307C190.025 43.6859 190.153 43.9889 190.226 44.3398C190.271 44.5677 190.294 44.9665 190.294 45.5361V50H189.064V45.584C189.064 45.0827 189.016 44.709 188.92 44.4629C188.824 44.2122 188.654 44.014 188.407 43.8682C188.166 43.7178 187.881 43.6426 187.553 43.6426C187.029 43.6426 186.575 43.8089 186.193 44.1416C185.814 44.4743 185.625 45.1055 185.625 46.0352V50H184.395ZM196.758 50V49.084C196.297 49.804 195.621 50.1641 194.727 50.1641C194.149 50.1641 193.615 50.0046 193.128 49.6855C192.645 49.3665 192.269 48.9222 192 48.3525C191.736 47.7783 191.603 47.1198 191.603 46.377C191.603 45.6523 191.724 44.9961 191.966 44.4082C192.207 43.8158 192.57 43.3623 193.053 43.0479C193.536 42.7334 194.076 42.5762 194.673 42.5762C195.11 42.5762 195.5 42.6696 195.842 42.8564C196.183 43.0387 196.461 43.278 196.676 43.5742V39.9785H197.899V50H196.758ZM192.868 46.377C192.868 47.3066 193.064 48.0016 193.456 48.4619C193.848 48.9222 194.31 49.1523 194.844 49.1523C195.381 49.1523 195.837 48.9336 196.211 48.4961C196.589 48.054 196.778 47.3818 196.778 46.4795C196.778 45.486 196.587 44.7568 196.204 44.292C195.821 43.8271 195.349 43.5947 194.789 43.5947C194.242 43.5947 193.784 43.818 193.415 44.2646C193.05 44.7113 192.868 45.4154 192.868 46.377ZM199.243 46.3701C199.243 45.0257 199.616 44.0299 200.364 43.3828C200.988 42.8451 201.749 42.5762 202.647 42.5762C203.645 42.5762 204.461 42.9043 205.094 43.5605C205.728 44.2122 206.044 45.1146 206.044 46.2676C206.044 47.2018 205.903 47.9378 205.621 48.4756C205.343 49.0088 204.935 49.4235 204.397 49.7197C203.864 50.016 203.28 50.1641 202.647 50.1641C201.631 50.1641 200.808 49.8382 200.179 49.1865C199.555 48.5348 199.243 47.596 199.243 46.3701ZM200.507 46.3701C200.507 47.2998 200.71 47.9971 201.116 48.4619C201.521 48.9222 202.032 49.1523 202.647 49.1523C203.258 49.1523 203.766 48.9199 204.171 48.4551C204.577 47.9902 204.78 47.2816 204.78 46.3291C204.78 45.4313 204.575 44.7523 204.165 44.292C203.759 43.8271 203.253 43.5947 202.647 43.5947C202.032 43.5947 201.521 43.8249 201.116 44.2852C200.71 44.7454 200.507 45.4404 200.507 46.3701ZM211.083 50V39.9785H212.313V50H211.083ZM218.825 49.1045C218.369 49.4919 217.929 49.7653 217.505 49.9248C217.086 50.0843 216.635 50.1641 216.152 50.1641C215.354 50.1641 214.741 49.9704 214.313 49.583C213.885 49.1911 213.67 48.6921 213.67 48.0859C213.67 47.7305 213.75 47.4069 213.91 47.1152C214.074 46.819 214.286 46.582 214.545 46.4043C214.81 46.2266 215.106 46.0921 215.434 46.001C215.676 45.9372 216.04 45.8757 216.528 45.8164C217.521 45.6979 218.253 45.5566 218.722 45.3926C218.727 45.224 218.729 45.1169 218.729 45.0713C218.729 44.57 218.613 44.2168 218.38 44.0117C218.066 43.7337 217.599 43.5947 216.979 43.5947C216.4 43.5947 215.972 43.6973 215.694 43.9023C215.42 44.1029 215.218 44.4606 215.085 44.9756L213.882 44.8115C213.992 44.2965 214.172 43.8818 214.422 43.5674C214.673 43.2484 215.035 43.0046 215.509 42.8359C215.983 42.6628 216.532 42.5762 217.157 42.5762C217.776 42.5762 218.28 42.6491 218.667 42.7949C219.055 42.9408 219.34 43.1253 219.522 43.3486C219.704 43.5674 219.832 43.8454 219.905 44.1826C219.946 44.3923 219.966 44.7705 219.966 45.3174V46.958C219.966 48.1019 219.991 48.8265 220.041 49.1318C220.096 49.4326 220.201 49.722 220.356 50H219.071C218.943 49.7448 218.861 49.4463 218.825 49.1045ZM218.722 46.3564C218.275 46.5387 217.606 46.6937 216.712 46.8213C216.206 46.8942 215.849 46.9762 215.639 47.0674C215.429 47.1585 215.268 47.293 215.154 47.4707C215.04 47.6439 214.983 47.8376 214.983 48.0518C214.983 48.3799 215.106 48.6533 215.352 48.8721C215.603 49.0908 215.967 49.2002 216.446 49.2002C216.92 49.2002 217.341 49.0977 217.71 48.8926C218.079 48.6829 218.351 48.3981 218.524 48.0381C218.656 47.7601 218.722 47.3499 218.722 46.8076V46.3564ZM146.923 66V58.7402H148.023V59.7588C148.251 59.4033 148.554 59.1185 148.933 58.9043C149.311 58.6855 149.742 58.5762 150.225 58.5762C150.762 58.5762 151.202 58.6878 151.544 58.9111C151.89 59.1344 152.134 59.4466 152.275 59.8477C152.85 59 153.597 58.5762 154.518 58.5762C155.238 58.5762 155.791 58.7767 156.179 59.1777C156.566 59.5742 156.76 60.1872 156.76 61.0166V66H155.536V61.4268C155.536 60.9346 155.495 60.5814 155.413 60.3672C155.336 60.1484 155.192 59.973 154.982 59.8408C154.773 59.7087 154.527 59.6426 154.244 59.6426C153.734 59.6426 153.31 59.8135 152.973 60.1553C152.635 60.4925 152.467 61.0348 152.467 61.7822V66H151.236V61.2832C151.236 60.7363 151.136 60.3262 150.936 60.0527C150.735 59.7793 150.407 59.6426 149.951 59.6426C149.605 59.6426 149.284 59.7337 148.987 59.916C148.696 60.0983 148.484 60.3649 148.352 60.7158C148.219 61.0667 148.153 61.5726 148.153 62.2334V66H146.923ZM158.452 57.3936V55.9785H159.682V57.3936H158.452ZM158.452 66V58.7402H159.682V66H158.452ZM166.159 65.1045C165.704 65.4919 165.264 65.7653 164.84 65.9248C164.421 66.0843 163.97 66.1641 163.487 66.1641C162.689 66.1641 162.076 65.9704 161.648 65.583C161.219 65.1911 161.005 64.6921 161.005 64.0859C161.005 63.7305 161.085 63.4069 161.244 63.1152C161.408 62.819 161.62 62.582 161.88 62.4043C162.144 62.2266 162.441 62.0921 162.769 62.001C163.01 61.9372 163.375 61.8757 163.863 61.8164C164.856 61.6979 165.588 61.5566 166.057 61.3926C166.061 61.224 166.064 61.1169 166.064 61.0713C166.064 60.57 165.948 60.2168 165.715 60.0117C165.401 59.7337 164.934 59.5947 164.314 59.5947C163.735 59.5947 163.307 59.6973 163.029 59.9023C162.755 60.1029 162.552 60.4606 162.42 60.9756L161.217 60.8115C161.326 60.2965 161.506 59.8818 161.757 59.5674C162.008 59.2484 162.37 59.0046 162.844 58.8359C163.318 58.6628 163.867 58.5762 164.491 58.5762C165.111 58.5762 165.615 58.6491 166.002 58.7949C166.39 58.9408 166.674 59.1253 166.857 59.3486C167.039 59.5674 167.167 59.8454 167.24 60.1826C167.281 60.3923 167.301 60.7705 167.301 61.3174V62.958C167.301 64.1019 167.326 64.8265 167.376 65.1318C167.431 65.4326 167.536 65.722 167.691 66H166.406C166.278 65.7448 166.196 65.4463 166.159 65.1045ZM166.057 62.3564C165.61 62.5387 164.94 62.6937 164.047 62.8213C163.541 62.8942 163.184 62.9762 162.974 63.0674C162.764 63.1585 162.602 63.293 162.489 63.4707C162.375 63.6439 162.318 63.8376 162.318 64.0518C162.318 64.3799 162.441 64.6533 162.687 64.8721C162.937 65.0908 163.302 65.2002 163.781 65.2002C164.255 65.2002 164.676 65.0977 165.045 64.8926C165.414 64.6829 165.685 64.3981 165.859 64.0381C165.991 63.7601 166.057 63.3499 166.057 62.8076V62.3564ZM177.801 63.6621L179.073 63.8193C178.872 64.5622 178.501 65.1387 177.959 65.5488C177.416 65.959 176.724 66.1641 175.88 66.1641C174.819 66.1641 173.975 65.8382 173.351 65.1865C172.731 64.5303 172.421 63.612 172.421 62.4316C172.421 61.2103 172.736 60.2624 173.365 59.5879C173.994 58.9134 174.809 58.5762 175.812 58.5762C176.783 58.5762 177.576 58.9066 178.191 59.5674C178.806 60.2282 179.114 61.1579 179.114 62.3564C179.114 62.4294 179.112 62.5387 179.107 62.6846H173.693C173.739 63.4821 173.964 64.0928 174.37 64.5166C174.775 64.9404 175.281 65.1523 175.887 65.1523C176.338 65.1523 176.724 65.0339 177.043 64.7969C177.362 64.5599 177.614 64.1816 177.801 63.6621ZM173.761 61.6729H177.815C177.76 61.0622 177.605 60.6042 177.35 60.2988C176.958 59.8249 176.45 59.5879 175.826 59.5879C175.261 59.5879 174.784 59.777 174.397 60.1553C174.014 60.5335 173.802 61.0394 173.761 61.6729ZM179.992 63.833L181.209 63.6416C181.278 64.1292 181.467 64.5029 181.777 64.7627C182.091 65.0225 182.529 65.1523 183.089 65.1523C183.654 65.1523 184.073 65.0384 184.347 64.8105C184.62 64.5781 184.757 64.307 184.757 63.9971C184.757 63.7191 184.636 63.5003 184.395 63.3408C184.226 63.2314 183.807 63.0924 183.137 62.9238C182.235 62.696 181.608 62.5 181.257 62.3359C180.911 62.1673 180.646 61.9372 180.464 61.6455C180.286 61.3493 180.197 61.0234 180.197 60.668C180.197 60.3444 180.27 60.0459 180.416 59.7725C180.567 59.4945 180.769 59.2643 181.025 59.082C181.216 58.9408 181.476 58.8223 181.804 58.7266C182.137 58.6263 182.492 58.5762 182.87 58.5762C183.44 58.5762 183.939 58.6582 184.367 58.8223C184.8 58.9863 185.119 59.2096 185.324 59.4922C185.529 59.7702 185.671 60.1439 185.748 60.6133L184.545 60.7773C184.49 60.4036 184.331 60.112 184.067 59.9023C183.807 59.6927 183.438 59.5879 182.959 59.5879C182.394 59.5879 181.991 59.6813 181.749 59.8682C181.508 60.055 181.387 60.2738 181.387 60.5244C181.387 60.6839 181.437 60.8275 181.537 60.9551C181.638 61.0872 181.795 61.1966 182.009 61.2832C182.132 61.3288 182.494 61.4336 183.096 61.5977C183.966 61.8301 184.572 62.0215 184.914 62.1719C185.261 62.3177 185.532 62.5319 185.728 62.8145C185.924 63.097 186.022 63.4479 186.022 63.8672C186.022 64.2773 185.901 64.6647 185.659 65.0293C185.422 65.3893 185.078 65.6696 184.627 65.8701C184.176 66.0661 183.666 66.1641 183.096 66.1641C182.153 66.1641 181.432 65.9681 180.936 65.5762C180.444 65.1842 180.129 64.6032 179.992 63.833ZM187.345 68.7822V58.7402H188.466V59.6836C188.73 59.3145 189.028 59.0387 189.361 58.8564C189.694 58.6696 190.097 58.5762 190.571 58.5762C191.191 58.5762 191.738 58.7357 192.212 59.0547C192.686 59.3737 193.043 59.8249 193.285 60.4082C193.527 60.987 193.647 61.6227 193.647 62.3154C193.647 63.0583 193.513 63.7282 193.244 64.3252C192.98 64.9176 192.592 65.3734 192.082 65.6924C191.576 66.0068 191.043 66.1641 190.482 66.1641C190.072 66.1641 189.703 66.0775 189.375 65.9043C189.051 65.7311 188.785 65.5124 188.575 65.248V68.7822H187.345ZM188.459 62.4111C188.459 63.3454 188.648 64.0358 189.026 64.4824C189.404 64.929 189.862 65.1523 190.4 65.1523C190.947 65.1523 191.414 64.9222 191.802 64.4619C192.194 63.9971 192.389 63.2793 192.389 62.3086C192.389 61.3835 192.198 60.6908 191.815 60.2305C191.437 59.7702 190.984 59.54 190.455 59.54C189.931 59.54 189.466 59.7861 189.06 60.2783C188.659 60.766 188.459 61.4769 188.459 62.4111ZM199.967 63.6621L201.239 63.8193C201.038 64.5622 200.667 65.1387 200.124 65.5488C199.582 65.959 198.889 66.1641 198.046 66.1641C196.985 66.1641 196.141 65.8382 195.517 65.1865C194.897 64.5303 194.587 63.612 194.587 62.4316C194.587 61.2103 194.902 60.2624 195.531 59.5879C196.16 58.9134 196.975 58.5762 197.978 58.5762C198.949 58.5762 199.742 58.9066 200.357 59.5674C200.972 60.2282 201.28 61.1579 201.28 62.3564C201.28 62.4294 201.277 62.5387 201.273 62.6846H195.859C195.904 63.4821 196.13 64.0928 196.536 64.5166C196.941 64.9404 197.447 65.1523 198.053 65.1523C198.504 65.1523 198.889 65.0339 199.208 64.7969C199.527 64.5599 199.78 64.1816 199.967 63.6621ZM195.927 61.6729H199.981C199.926 61.0622 199.771 60.6042 199.516 60.2988C199.124 59.8249 198.616 59.5879 197.992 59.5879C197.427 59.5879 196.95 59.777 196.563 60.1553C196.18 60.5335 195.968 61.0394 195.927 61.6729ZM202.637 66V58.7402H203.744V59.8408C204.027 59.3258 204.287 58.9863 204.524 58.8223C204.765 58.6582 205.029 58.5762 205.317 58.5762C205.731 58.5762 206.153 58.7083 206.581 58.9727L206.157 60.1143C205.857 59.9365 205.556 59.8477 205.255 59.8477C204.986 59.8477 204.745 59.9297 204.53 60.0938C204.316 60.2533 204.164 60.4766 204.072 60.7637C203.936 61.2012 203.867 61.6797 203.867 62.1992V66H202.637ZM207.179 57.3936V55.9785H208.41V57.3936H207.179ZM207.179 66V58.7402H208.41V66H207.179ZM215.12 63.6621L216.391 63.8193C216.19 64.5622 215.819 65.1387 215.277 65.5488C214.734 65.959 214.042 66.1641 213.199 66.1641C212.137 66.1641 211.294 65.8382 210.669 65.1865C210.05 64.5303 209.74 63.612 209.74 62.4316C209.74 61.2103 210.054 60.2624 210.683 59.5879C211.312 58.9134 212.128 58.5762 213.13 58.5762C214.101 58.5762 214.894 58.9066 215.509 59.5674C216.124 60.2282 216.432 61.1579 216.432 62.3564C216.432 62.4294 216.43 62.5387 216.425 62.6846H211.011C211.057 63.4821 211.282 64.0928 211.688 64.5166C212.093 64.9404 212.599 65.1523 213.205 65.1523C213.657 65.1523 214.042 65.0339 214.361 64.7969C214.68 64.5599 214.933 64.1816 215.12 63.6621ZM211.079 61.6729H215.133C215.079 61.0622 214.924 60.6042 214.668 60.2988C214.276 59.8249 213.768 59.5879 213.144 59.5879C212.579 59.5879 212.103 59.777 211.715 60.1553C211.332 60.5335 211.121 61.0394 211.079 61.6729ZM217.803 66V58.7402H218.91V59.7725C219.443 58.9749 220.214 58.5762 221.221 58.5762C221.658 58.5762 222.059 58.6559 222.424 58.8154C222.793 58.9704 223.069 59.1755 223.251 59.4307C223.433 59.6859 223.561 59.9889 223.634 60.3398C223.679 60.5677 223.702 60.9665 223.702 61.5361V66H222.472V61.584C222.472 61.0827 222.424 60.709 222.328 60.4629C222.232 60.2122 222.062 60.014 221.815 59.8682C221.574 59.7178 221.289 59.6426 220.961 59.6426C220.437 59.6426 219.983 59.8089 219.601 60.1416C219.222 60.4743 219.033 61.1055 219.033 62.0352V66H217.803ZM224.806 66V65.002L229.427 59.6973C228.903 59.7246 228.441 59.7383 228.04 59.7383H225.08V58.7402H231.013V59.5537L227.083 64.1611L226.324 65.002C226.875 64.9609 227.393 64.9404 227.876 64.9404H231.232V66H224.806ZM237.053 65.1045C236.597 65.4919 236.158 65.7653 235.734 65.9248C235.314 66.0843 234.863 66.1641 234.38 66.1641C233.583 66.1641 232.97 65.9704 232.541 65.583C232.113 65.1911 231.899 64.6921 231.899 64.0859C231.899 63.7305 231.979 63.4069 232.138 63.1152C232.302 62.819 232.514 62.582 232.774 62.4043C233.038 62.2266 233.334 62.0921 233.662 62.001C233.904 61.9372 234.269 61.8757 234.756 61.8164C235.75 61.6979 236.481 61.5566 236.951 61.3926C236.955 61.224 236.957 61.1169 236.957 61.0713C236.957 60.57 236.841 60.2168 236.609 60.0117C236.294 59.7337 235.827 59.5947 235.207 59.5947C234.629 59.5947 234.2 59.6973 233.922 59.9023C233.649 60.1029 233.446 60.4606 233.314 60.9756L232.111 60.8115C232.22 60.2965 232.4 59.8818 232.651 59.5674C232.901 59.2484 233.264 59.0046 233.738 58.8359C234.212 58.6628 234.761 58.5762 235.385 58.5762C236.005 58.5762 236.508 58.6491 236.896 58.7949C237.283 58.9408 237.568 59.1253 237.75 59.3486C237.933 59.5674 238.06 59.8454 238.133 60.1826C238.174 60.3923 238.195 60.7705 238.195 61.3174V62.958C238.195 64.1019 238.22 64.8265 238.27 65.1318C238.325 65.4326 238.429 65.722 238.584 66H237.299C237.172 65.7448 237.09 65.4463 237.053 65.1045ZM236.951 62.3564C236.504 62.5387 235.834 62.6937 234.941 62.8213C234.435 62.8942 234.077 62.9762 233.868 63.0674C233.658 63.1585 233.496 63.293 233.382 63.4707C233.268 63.6439 233.211 63.8376 233.211 64.0518C233.211 64.3799 233.334 64.6533 233.58 64.8721C233.831 65.0908 234.196 65.2002 234.674 65.2002C235.148 65.2002 235.57 65.0977 235.939 64.8926C236.308 64.6829 236.579 64.3981 236.752 64.0381C236.884 63.7601 236.951 63.3499 236.951 62.8076V62.3564ZM242.272 63.5322C242.268 63.3682 242.266 63.2451 242.266 63.1631C242.266 62.68 242.334 62.263 242.471 61.9121C242.571 61.6478 242.733 61.3812 242.956 61.1123C243.12 60.9163 243.414 60.6315 243.838 60.2578C244.266 59.8796 244.544 59.5788 244.672 59.3555C244.799 59.1322 244.863 58.8883 244.863 58.624C244.863 58.1455 244.676 57.7262 244.303 57.3662C243.929 57.0016 243.471 56.8193 242.929 56.8193C242.405 56.8193 241.967 56.9834 241.616 57.3115C241.265 57.6396 241.035 58.1523 240.926 58.8496L239.661 58.6992C239.775 57.765 240.112 57.0495 240.673 56.5527C241.238 56.056 241.983 55.8076 242.908 55.8076C243.888 55.8076 244.67 56.0742 245.253 56.6074C245.836 57.1406 246.128 57.7855 246.128 58.542C246.128 58.9795 246.025 59.3828 245.82 59.752C245.615 60.1211 245.214 60.57 244.617 61.0986C244.216 61.4541 243.954 61.7161 243.831 61.8848C243.708 62.0534 243.617 62.2471 243.558 62.4658C243.498 62.6846 243.464 63.04 243.455 63.5322H242.272ZM242.197 66V64.5986H243.599V66H242.197Z" fill="white"/>
<line x1="256.5" y1="67" x2="256.5" y2="21" stroke="white"/>
<g filter="url(#filter10_f_285_157)">
<ellipse cx="63.9007" cy="113.03" rx="21.5" ry="27.5" transform="rotate(-50.8928 63.9007 113.03)" fill="#A92684"/>
</g>
<g filter="url(#filter11_f_285_157)">
<ellipse cx="136" cy="124.5" rx="21" ry="17.5" fill="#A92684"/>
</g>
<path d="M42.005 70.277C42.005 65.319 43.5013 60.8523 46.494 56.877C49.5313 52.9017 53.6407 49.7973 58.822 47.564C64.048 45.286 69.8323 44.147 76.175 44.147C82.1157 44.147 87.4087 45.085 92.054 46.961C96.744 48.7923 100.518 51.383 103.377 54.733C106.28 58.0383 108.089 61.835 108.804 66.123H88.972C88.1233 63.8003 86.4483 61.9467 83.947 60.562C81.4903 59.1773 78.922 58.485 76.242 58.485C73.8747 58.485 71.5967 58.954 69.408 59.892C67.264 60.83 65.4997 62.1923 64.115 63.979C62.775 65.7657 62.105 67.865 62.105 70.277C62.105 72.689 62.775 74.7883 64.115 76.575C65.4997 78.317 67.264 79.657 69.408 80.595C71.5967 81.533 73.8747 82.002 76.242 82.002C79.19 82.002 81.7807 81.3543 84.014 80.059C86.2473 78.7637 87.8777 76.91 88.905 74.498H108.737C107.978 78.7413 106.169 82.5157 103.31 85.821C100.451 89.1263 96.677 91.717 91.987 93.593C87.3417 95.4243 82.071 96.34 76.175 96.34C69.877 96.34 64.115 95.201 58.889 92.923C53.663 90.645 49.5313 87.5183 46.494 83.543C43.5013 79.5677 42.005 75.1457 42.005 70.277Z" fill="white"/>
<path d="M135.438 74.348C141.736 74.348 147.409 75.487 152.456 77.765C157.503 79.9983 161.456 83.1027 164.315 87.078C167.174 91.0087 168.603 95.453 168.603 100.411C168.603 105.324 167.174 109.746 164.315 113.677C161.456 117.608 157.503 120.712 152.456 122.99C147.409 125.223 141.736 126.34 135.438 126.34C129.408 126.34 123.825 125.223 118.688 122.99C113.596 120.712 109.531 117.608 106.494 113.677C103.501 109.702 102.005 105.28 102.005 100.411C102.005 95.4977 103.501 91.0533 106.494 87.078C109.531 83.1027 113.596 79.9983 118.688 77.765C123.825 75.487 129.408 74.348 135.438 74.348ZM135.505 112.136C137.649 112.136 139.704 111.667 141.669 110.729C143.679 109.791 145.309 108.429 146.56 106.642C147.811 104.855 148.436 102.778 148.436 100.411C148.436 97.999 147.811 95.922 146.56 94.18C145.309 92.3933 143.679 91.031 141.669 90.093C139.704 89.155 137.649 88.686 135.505 88.686C133.406 88.686 131.351 89.155 129.341 90.093C127.376 91.031 125.745 92.3933 124.45 94.18C123.199 95.922 122.574 97.999 122.574 100.411C122.574 102.778 123.199 104.855 124.45 106.642C125.745 108.429 127.376 109.791 129.341 110.729C131.351 111.667 133.406 112.136 135.505 112.136Z" fill="white"/>
<path d="M76.711 124.252C78.855 124.163 80.53 124.118 81.736 124.118C88.2127 124.118 93.461 125.034 97.481 126.865C101.546 128.696 103.578 132.292 103.578 137.652C103.578 144.665 100.474 149.399 94.265 151.856C88.0563 154.313 81.066 155.541 73.294 155.541C65.4773 155.541 58.3083 154.313 51.787 151.856C45.2657 149.399 42.005 144.665 42.005 137.652H61.703C61.703 140.243 62.842 141.895 65.12 142.61C67.398 143.325 70.1227 143.682 73.294 143.682C76.2867 143.682 78.855 143.213 80.999 142.275C83.143 141.337 84.215 139.885 84.215 137.92C84.215 136.267 83.076 135.195 80.798 134.704C78.5647 134.168 75.9517 133.9 72.959 133.9L66.259 133.967C61.7923 133.967 57.817 133.654 54.333 133.029C50.8937 132.359 47.968 130.997 45.556 128.942C43.1887 126.843 42.005 123.783 42.005 119.763C42.005 114.894 43.7247 111.232 47.164 108.775C50.648 106.274 54.6233 104.688 59.09 104.018C63.5567 103.303 68.2913 102.946 73.294 102.946C81.066 102.946 88.0563 104.174 94.265 106.631C100.474 109.043 103.578 113.778 103.578 120.835H84.215C84.215 118.959 83.143 117.552 80.999 116.614C78.8997 115.676 76.3313 115.162 73.294 115.073C70.078 115.073 67.331 115.43 65.053 116.145C62.8197 116.86 61.703 117.999 61.703 119.562C61.703 121.349 62.842 122.577 65.12 123.247C67.398 123.917 69.9663 124.274 72.825 124.319L76.711 124.252Z" fill="white"/>
<path d="M160.154 180H141.059L136.972 172.496H110.507L106.42 180H87.325L114.192 130.42H133.287L160.154 180ZM123.773 148.041L117.073 160.302H130.406L123.773 148.041Z" fill="white"/>
<defs>
<filter id="filter0_f_285_157" x="16.3151" y="0.457222" width="137.863" height="137.863" filterUnits="userSpaceOnUse" color-interpolation-filters="sRGB">
<feFlood flood-opacity="0" result="BackgroundImageFix"/>
<feBlend mode="normal" in="SourceGraphic" in2="BackgroundImageFix" result="shape"/>
<feGaussianBlur stdDeviation="15.0137" result="effect1_foregroundBlur_285_157"/>
</filter>
<filter id="filter1_f_285_157" x="49.6957" y="101.489" width="127.582" height="112.68" filterUnits="userSpaceOnUse" color-interpolation-filters="sRGB">
<feFlood flood-opacity="0" result="BackgroundImageFix"/>
<feBlend mode="normal" in="SourceGraphic" in2="BackgroundImageFix" result="shape"/>
<feGaussianBlur stdDeviation="17.2055" result="effect1_foregroundBlur_285_157"/>
</filter>
<filter id="filter2_f_285_157" x="73.7563" y="121.33" width="116.722" height="112.45" filterUnits="userSpaceOnUse" color-interpolation-filters="sRGB">
<feFlood flood-opacity="0" result="BackgroundImageFix"/>
<feBlend mode="normal" in="SourceGraphic" in2="BackgroundImageFix" result="shape"/>
<feGaussianBlur stdDeviation="17.2055" result="effect1_foregroundBlur_285_157"/>
</filter>
<filter id="filter3_f_285_157" x="15.4383" y="90.5393" width="124.274" height="124.274" filterUnits="userSpaceOnUse" color-interpolation-filters="sRGB">
<feFlood flood-opacity="0" result="BackgroundImageFix"/>
<feBlend mode="normal" in="SourceGraphic" in2="BackgroundImageFix" result="shape"/>
<feGaussianBlur stdDeviation="18.7397" result="effect1_foregroundBlur_285_157"/>
</filter>
<filter id="filter4_f_285_157" x="54.3425" y="123.964" width="57.4247" height="57.4247" filterUnits="userSpaceOnUse" color-interpolation-filters="sRGB">
<feFlood flood-opacity="0" result="BackgroundImageFix"/>
<feBlend mode="normal" in="SourceGraphic" in2="BackgroundImageFix" result="shape"/>
<feGaussianBlur stdDeviation="4.76712" result="effect1_foregroundBlur_285_157"/>
</filter>
<filter id="filter5_f_285_157" x="0.972603" y="65.1147" width="106.082" height="98.411" filterUnits="userSpaceOnUse" color-interpolation-filters="sRGB">
<feFlood flood-opacity="0" result="BackgroundImageFix"/>
<feBlend mode="normal" in="SourceGraphic" in2="BackgroundImageFix" result="shape"/>
<feGaussianBlur stdDeviation="15.0137" result="effect1_foregroundBlur_285_157"/>
</filter>
<filter id="filter6_f_285_157" x="83.1645" y="15.7998" width="137.863" height="137.863" filterUnits="userSpaceOnUse" color-interpolation-filters="sRGB">
<feFlood flood-opacity="0" result="BackgroundImageFix"/>
<feBlend mode="normal" in="SourceGraphic" in2="BackgroundImageFix" result="shape"/>
<feGaussianBlur stdDeviation="15.0137" result="effect1_foregroundBlur_285_157"/>
</filter>
<filter id="filter7_f_285_157" x="49.4111" y="58.7586" width="111.123" height="111.123" filterUnits="userSpaceOnUse" color-interpolation-filters="sRGB">
<feFlood flood-opacity="0" result="BackgroundImageFix"/>
<feBlend mode="normal" in="SourceGraphic" in2="BackgroundImageFix" result="shape"/>
<feGaussianBlur stdDeviation="8.32877" result="effect1_foregroundBlur_285_157"/>
</filter>
<filter id="filter8_f_285_157" x="68.4794" y="58.101" width="66.411" height="66.411" filterUnits="userSpaceOnUse" color-interpolation-filters="sRGB">
<feFlood flood-opacity="0" result="BackgroundImageFix"/>
<feBlend mode="normal" in="SourceGraphic" in2="BackgroundImageFix" result="shape"/>
<feGaussianBlur stdDeviation="7.0137" result="effect1_foregroundBlur_285_157"/>
</filter>
<filter id="filter9_f_285_157" x="107.393" y="110.646" width="62.6625" height="58.9556" filterUnits="userSpaceOnUse" color-interpolation-filters="sRGB">
<feFlood flood-opacity="0" result="BackgroundImageFix"/>
<feBlend mode="normal" in="SourceGraphic" in2="BackgroundImageFix" result="shape"/>
<feGaussianBlur stdDeviation="4.76712" result="effect1_foregroundBlur_285_157"/>
</filter>
<filter id="filter10_f_285_157" x="12.7135" y="63.0624" width="102.374" height="99.9343" filterUnits="userSpaceOnUse" color-interpolation-filters="sRGB">
<feFlood flood-opacity="0" result="BackgroundImageFix"/>
<feBlend mode="normal" in="SourceGraphic" in2="BackgroundImageFix" result="shape"/>
<feGaussianBlur stdDeviation="12.95" result="effect1_foregroundBlur_285_157"/>
</filter>
<filter id="filter11_f_285_157" x="90" y="82" width="92" height="85" filterUnits="userSpaceOnUse" color-interpolation-filters="sRGB">
<feFlood flood-opacity="0" result="BackgroundImageFix"/>
<feBlend mode="normal" in="SourceGraphic" in2="BackgroundImageFix" result="shape"/>
<feGaussianBlur stdDeviation="12.5" result="effect1_foregroundBlur_285_157"/>
</filter>
</defs>
</svg>
