<svg width="289" height="186" viewBox="0 0 289 186" fill="none" xmlns="http://www.w3.org/2000/svg">
<g filter="url(#filter0_f_285_123)">
<circle cx="61.5" cy="61.5" r="32.5" fill="#A92684"/>
</g>
<g filter="url(#filter1_f_285_123)">
<ellipse cx="118.5" cy="124" rx="27.5" ry="26" fill="#A92684"/>
</g>
<g filter="url(#filter2_f_285_123)">
<ellipse cx="50.5" cy="119" rx="15.5" ry="15" fill="#A92684"/>
</g>
<g filter="url(#filter3_f_285_123)">
<ellipse cx="153.5" cy="98" rx="32.5" ry="31" fill="#B73492"/>
</g>
<g filter="url(#filter4_f_285_123)">
<ellipse cx="153.5" cy="98" rx="32.5" ry="31" fill="#B73492"/>
</g>
<g filter="url(#filter5_f_285_123)">
<ellipse cx="213" cy="63.5" rx="36" ry="34.5" fill="#A92684"/>
</g>
<g filter="url(#filter6_f_285_123)">
<ellipse cx="203" cy="111" rx="57" ry="31" fill="#A92684"/>
</g>
<g filter="url(#filter7_f_285_123)">
<circle cx="81.5" cy="96.5" r="32.5" fill="#A92684"/>
</g>
<g filter="url(#filter8_f_285_123)">
<ellipse cx="131" cy="74.5" rx="46" ry="32.5" fill="#A92684"/>
</g>
<g filter="url(#filter9_f_285_123)">
<circle cx="92.5" cy="102.5" r="19.5" fill="#A92684"/>
</g>
<g filter="url(#filter10_f_285_123)">
<circle cx="181.5" cy="66.5" r="14.5" fill="#A92684"/>
</g>
<g filter="url(#filter11_f_285_123)">
<circle cx="149.5" cy="109.5" r="11.5" fill="#A92684"/>
</g>
<path d="M38.7305 127.238V126.126H39.6973V127.238H38.7305ZM38.7305 134V128.296H39.6973V134H38.7305ZM41.1528 134V126.126H42.1196V134H41.1528ZM47.5767 134H46.6797V126.126H47.6465V128.935C48.0547 128.423 48.5757 128.167 49.2095 128.167C49.5604 128.167 49.8916 128.239 50.2031 128.382C50.5182 128.521 50.776 128.72 50.9766 128.978C51.1807 129.232 51.34 129.54 51.4546 129.902C51.5692 130.264 51.6265 130.65 51.6265 131.062C51.6265 132.04 51.3848 132.795 50.9014 133.329C50.418 133.862 49.8379 134.129 49.1611 134.129C48.488 134.129 47.9598 133.848 47.5767 133.286V134ZM47.5659 131.105C47.5659 131.789 47.659 132.283 47.8452 132.587C48.1496 133.085 48.5614 133.334 49.0806 133.334C49.5031 133.334 49.8683 133.151 50.1763 132.786C50.4842 132.417 50.6382 131.869 50.6382 131.143C50.6382 130.398 50.4896 129.848 50.1924 129.494C49.8988 129.139 49.5425 128.962 49.1235 128.962C48.701 128.962 48.3358 129.146 48.0278 129.515C47.7199 129.88 47.5659 130.41 47.5659 131.105ZM56.5464 134V133.162C56.1024 133.807 55.499 134.129 54.7363 134.129C54.3997 134.129 54.0846 134.064 53.791 133.936C53.501 133.807 53.2843 133.646 53.1411 133.452C53.0015 133.255 52.903 133.015 52.8457 132.732C52.8063 132.543 52.7866 132.242 52.7866 131.83V128.296H53.7534V131.459C53.7534 131.964 53.7731 132.305 53.8125 132.48C53.8734 132.734 54.0023 132.935 54.1992 133.082C54.3962 133.225 54.6396 133.296 54.9297 133.296C55.2197 133.296 55.4919 133.223 55.7461 133.076C56.0003 132.926 56.1794 132.723 56.2832 132.469C56.3906 132.211 56.4443 131.839 56.4443 131.352V128.296H57.4111V134H56.5464ZM58.5444 132.297L59.5005 132.147C59.5542 132.53 59.7028 132.824 59.9463 133.028C60.1934 133.232 60.5371 133.334 60.9775 133.334C61.4215 133.334 61.751 133.244 61.9658 133.065C62.1807 132.883 62.2881 132.67 62.2881 132.426C62.2881 132.208 62.1932 132.036 62.0034 131.911C61.8709 131.825 61.5415 131.715 61.0151 131.583C60.3062 131.404 59.8138 131.25 59.5381 131.121C59.266 130.989 59.0583 130.808 58.915 130.579C58.7754 130.346 58.7056 130.09 58.7056 129.811C58.7056 129.556 58.7629 129.322 58.8774 129.107C58.9956 128.889 59.1549 128.708 59.3555 128.564C59.5059 128.453 59.71 128.36 59.9678 128.285C60.2292 128.206 60.5085 128.167 60.8057 128.167C61.2533 128.167 61.6453 128.231 61.9819 128.36C62.3221 128.489 62.5728 128.665 62.7339 128.887C62.895 129.105 63.006 129.399 63.0669 129.768L62.1216 129.896C62.0786 129.603 61.9533 129.374 61.7456 129.209C61.5415 129.044 61.2515 128.962 60.8755 128.962C60.4315 128.962 60.1146 129.035 59.9248 129.182C59.735 129.329 59.6401 129.501 59.6401 129.698C59.6401 129.823 59.6795 129.936 59.7583 130.036C59.8371 130.14 59.9606 130.226 60.1289 130.294C60.2256 130.33 60.5103 130.412 60.9829 130.541C61.6668 130.724 62.1431 130.874 62.4116 130.992C62.6838 131.107 62.8968 131.275 63.0508 131.497C63.2048 131.719 63.2817 131.995 63.2817 132.324C63.2817 132.646 63.1868 132.951 62.9971 133.237C62.8109 133.52 62.5405 133.74 62.186 133.898C61.8315 134.052 61.4305 134.129 60.9829 134.129C60.2417 134.129 59.6759 133.975 59.2856 133.667C58.8989 133.359 58.6519 132.903 58.5444 132.297ZM64.4365 127.238V126.126H65.4033V127.238H64.4365ZM64.4365 134V128.296H65.4033V134H64.4365ZM66.8804 134V128.296H67.7505V129.107C68.1694 128.48 68.7746 128.167 69.5659 128.167C69.9097 128.167 70.2248 128.23 70.5112 128.355C70.8013 128.477 71.0179 128.638 71.1611 128.838C71.3044 129.039 71.4046 129.277 71.4619 129.553C71.4977 129.732 71.5156 130.045 71.5156 130.493V134H70.5488V130.53C70.5488 130.136 70.5112 129.843 70.436 129.649C70.3608 129.452 70.2266 129.297 70.0332 129.182C69.8434 129.064 69.6196 129.005 69.3618 129.005C68.95 129.005 68.5938 129.136 68.293 129.397C67.9958 129.658 67.8472 130.154 67.8472 130.885V134H66.8804ZM76.9082 132.163L77.9072 132.287C77.7497 132.87 77.4578 133.323 77.0317 133.646C76.6056 133.968 76.0614 134.129 75.3989 134.129C74.5646 134.129 73.9022 133.873 73.4116 133.361C72.9246 132.845 72.6812 132.124 72.6812 131.196C72.6812 130.237 72.9282 129.492 73.4224 128.962C73.9165 128.432 74.5575 128.167 75.3452 128.167C76.1079 128.167 76.731 128.427 77.2144 128.946C77.6978 129.465 77.9395 130.195 77.9395 131.137C77.9395 131.194 77.9377 131.28 77.9341 131.395H73.6802C73.716 132.022 73.8932 132.501 74.2119 132.834C74.5306 133.167 74.9281 133.334 75.4043 133.334C75.7588 133.334 76.0614 133.241 76.312 133.055C76.5627 132.868 76.7614 132.571 76.9082 132.163ZM73.7339 130.6H76.9189C76.876 130.12 76.7542 129.76 76.5537 129.521C76.2458 129.148 75.8465 128.962 75.356 128.962C74.9119 128.962 74.5378 129.111 74.2334 129.408C73.9326 129.705 73.7661 130.102 73.7339 130.6ZM78.7397 132.297L79.6958 132.147C79.7495 132.53 79.8981 132.824 80.1416 133.028C80.3887 133.232 80.7324 133.334 81.1729 133.334C81.6169 133.334 81.9463 133.244 82.1611 133.065C82.376 132.883 82.4834 132.67 82.4834 132.426C82.4834 132.208 82.3885 132.036 82.1987 131.911C82.0662 131.825 81.7368 131.715 81.2104 131.583C80.5015 131.404 80.0091 131.25 79.7334 131.121C79.4613 130.989 79.2536 130.808 79.1104 130.579C78.9707 130.346 78.9009 130.09 78.9009 129.811C78.9009 129.556 78.9582 129.322 79.0728 129.107C79.1909 128.889 79.3503 128.708 79.5508 128.564C79.7012 128.453 79.9053 128.36 80.1631 128.285C80.4245 128.206 80.7038 128.167 81.001 128.167C81.4486 128.167 81.8407 128.231 82.1772 128.36C82.5174 128.489 82.7681 128.665 82.9292 128.887C83.0903 129.105 83.2013 129.399 83.2622 129.768L82.3169 129.896C82.2739 129.603 82.1486 129.374 81.9409 129.209C81.7368 129.044 81.4468 128.962 81.0708 128.962C80.6268 128.962 80.3099 129.035 80.1201 129.182C79.9303 129.329 79.8354 129.501 79.8354 129.698C79.8354 129.823 79.8748 129.936 79.9536 130.036C80.0324 130.14 80.1559 130.226 80.3242 130.294C80.4209 130.33 80.7056 130.412 81.1782 130.541C81.8621 130.724 82.3384 130.874 82.6069 130.992C82.8791 131.107 83.0921 131.275 83.2461 131.497C83.4001 131.719 83.4771 131.995 83.4771 132.324C83.4771 132.646 83.3822 132.951 83.1924 133.237C83.0062 133.52 82.7358 133.74 82.3813 133.898C82.0269 134.052 81.6258 134.129 81.1782 134.129C80.437 134.129 79.8713 133.975 79.481 133.667C79.0942 133.359 78.8472 132.903 78.7397 132.297ZM84.2397 132.297L85.1958 132.147C85.2495 132.53 85.3981 132.824 85.6416 133.028C85.8887 133.232 86.2324 133.334 86.6729 133.334C87.1169 133.334 87.4463 133.244 87.6611 133.065C87.876 132.883 87.9834 132.67 87.9834 132.426C87.9834 132.208 87.8885 132.036 87.6987 131.911C87.5662 131.825 87.2368 131.715 86.7104 131.583C86.0015 131.404 85.5091 131.25 85.2334 131.121C84.9613 130.989 84.7536 130.808 84.6104 130.579C84.4707 130.346 84.4009 130.09 84.4009 129.811C84.4009 129.556 84.4582 129.322 84.5728 129.107C84.6909 128.889 84.8503 128.708 85.0508 128.564C85.2012 128.453 85.4053 128.36 85.6631 128.285C85.9245 128.206 86.2038 128.167 86.501 128.167C86.9486 128.167 87.3407 128.231 87.6772 128.36C88.0174 128.489 88.2681 128.665 88.4292 128.887C88.5903 129.105 88.7013 129.399 88.7622 129.768L87.8169 129.896C87.7739 129.603 87.6486 129.374 87.4409 129.209C87.2368 129.044 86.9468 128.962 86.5708 128.962C86.1268 128.962 85.8099 129.035 85.6201 129.182C85.4303 129.329 85.3354 129.501 85.3354 129.698C85.3354 129.823 85.3748 129.936 85.4536 130.036C85.5324 130.14 85.6559 130.226 85.8242 130.294C85.9209 130.33 86.2056 130.412 86.6782 130.541C87.3621 130.724 87.8384 130.874 88.1069 130.992C88.3791 131.107 88.5921 131.275 88.7461 131.497C88.9001 131.719 88.9771 131.995 88.9771 132.324C88.9771 132.646 88.8822 132.951 88.6924 133.237C88.5062 133.52 88.2358 133.74 87.8813 133.898C87.5269 134.052 87.1258 134.129 86.6782 134.129C85.937 134.129 85.3713 133.975 84.981 133.667C84.5942 133.359 84.3472 132.903 84.2397 132.297ZM93.188 134V128.296H94.0527V129.096C94.2318 128.817 94.4699 128.593 94.7671 128.425C95.0643 128.253 95.4027 128.167 95.7822 128.167C96.2048 128.167 96.5503 128.255 96.8188 128.43C97.091 128.606 97.2826 128.851 97.3936 129.166C97.8447 128.5 98.432 128.167 99.1553 128.167C99.721 128.167 100.156 128.325 100.46 128.64C100.765 128.951 100.917 129.433 100.917 130.084V134H99.9556V130.407C99.9556 130.02 99.9233 129.743 99.8589 129.574C99.798 129.402 99.6852 129.264 99.5205 129.161C99.3558 129.057 99.1624 129.005 98.9404 129.005C98.5394 129.005 98.2064 129.139 97.9414 129.408C97.6764 129.673 97.5439 130.099 97.5439 130.686V134H96.5771V130.294C96.5771 129.864 96.4984 129.542 96.3408 129.327C96.1833 129.112 95.9255 129.005 95.5674 129.005C95.2952 129.005 95.0428 129.076 94.8101 129.22C94.5809 129.363 94.4144 129.572 94.3105 129.848C94.2067 130.124 94.1548 130.521 94.1548 131.041V134H93.188ZM102.356 127.238V126.126H103.323V127.238H102.356ZM102.356 134V128.296H103.323V134H102.356ZM38.7251 147V139.126H39.6919V141.951C40.1431 141.428 40.7124 141.167 41.3999 141.167C41.8224 141.167 42.1895 141.251 42.501 141.419C42.8125 141.584 43.0345 141.813 43.167 142.107C43.3031 142.401 43.3711 142.827 43.3711 143.385V147H42.4043V143.385C42.4043 142.902 42.2987 142.551 42.0874 142.333C41.8797 142.111 41.5843 142 41.2012 142C40.9147 142 40.6444 142.075 40.3901 142.225C40.1395 142.372 39.9604 142.572 39.853 142.827C39.7456 143.081 39.6919 143.432 39.6919 143.879V147H38.7251ZM48.5703 146.296C48.2122 146.601 47.8667 146.816 47.5337 146.941C47.2043 147.066 46.8498 147.129 46.4702 147.129C45.8436 147.129 45.362 146.977 45.0254 146.672C44.6888 146.364 44.5205 145.972 44.5205 145.496C44.5205 145.217 44.5832 144.963 44.7085 144.733C44.8374 144.501 45.0039 144.314 45.208 144.175C45.4157 144.035 45.6484 143.93 45.9062 143.858C46.096 143.808 46.3825 143.759 46.7656 143.713C47.5462 143.62 48.1209 143.509 48.4897 143.38C48.4933 143.247 48.4951 143.163 48.4951 143.127C48.4951 142.734 48.4038 142.456 48.2212 142.295C47.9741 142.076 47.6071 141.967 47.1201 141.967C46.6654 141.967 46.3288 142.048 46.1104 142.209C45.8955 142.367 45.7362 142.648 45.6323 143.052L44.687 142.923C44.7729 142.519 44.9144 142.193 45.1113 141.946C45.3083 141.695 45.5929 141.504 45.9653 141.371C46.3377 141.235 46.7692 141.167 47.2598 141.167C47.7467 141.167 48.1424 141.224 48.4468 141.339C48.7511 141.453 48.9749 141.598 49.1182 141.774C49.2614 141.946 49.3617 142.164 49.4189 142.429C49.4512 142.594 49.4673 142.891 49.4673 143.321V144.61C49.4673 145.509 49.487 146.078 49.5264 146.318C49.5693 146.554 49.6517 146.782 49.7734 147H48.7637C48.6634 146.799 48.599 146.565 48.5703 146.296ZM48.4897 144.137C48.1388 144.28 47.6125 144.402 46.9106 144.502C46.5132 144.56 46.2321 144.624 46.0674 144.696C45.9027 144.767 45.7756 144.873 45.686 145.013C45.5965 145.149 45.5518 145.301 45.5518 145.469C45.5518 145.727 45.6484 145.942 45.8418 146.114C46.0387 146.286 46.3252 146.372 46.7012 146.372C47.0736 146.372 47.4048 146.291 47.6948 146.13C47.9849 145.965 48.1979 145.741 48.334 145.458C48.4378 145.24 48.4897 144.918 48.4897 144.492V144.137ZM57.7549 144.911L58.7056 145.034C58.6017 145.689 58.335 146.203 57.9053 146.576C57.4792 146.944 56.9546 147.129 56.3315 147.129C55.5509 147.129 54.9225 146.875 54.4463 146.366C53.9736 145.854 53.7373 145.122 53.7373 144.169C53.7373 143.554 53.8394 143.015 54.0435 142.553C54.2476 142.091 54.5573 141.745 54.9727 141.516C55.3916 141.283 55.8464 141.167 56.3369 141.167C56.9564 141.167 57.4631 141.325 57.8569 141.64C58.2508 141.951 58.5033 142.395 58.6143 142.972L57.6743 143.117C57.5848 142.734 57.4255 142.445 57.1963 142.252C56.9707 142.059 56.6968 141.962 56.3745 141.962C55.8875 141.962 55.4919 142.137 55.1875 142.488C54.8831 142.836 54.731 143.387 54.731 144.143C54.731 144.909 54.8778 145.466 55.1714 145.813C55.465 146.16 55.8481 146.334 56.3208 146.334C56.7004 146.334 57.0173 146.218 57.2715 145.985C57.5257 145.752 57.6868 145.394 57.7549 144.911ZM63.2549 146.296C62.8968 146.601 62.5513 146.816 62.2183 146.941C61.8888 147.066 61.5343 147.129 61.1548 147.129C60.5282 147.129 60.0465 146.977 59.71 146.672C59.3734 146.364 59.2051 145.972 59.2051 145.496C59.2051 145.217 59.2677 144.963 59.3931 144.733C59.522 144.501 59.6885 144.314 59.8926 144.175C60.1003 144.035 60.333 143.93 60.5908 143.858C60.7806 143.808 61.0671 143.759 61.4502 143.713C62.2308 143.62 62.8055 143.509 63.1743 143.38C63.1779 143.247 63.1797 143.163 63.1797 143.127C63.1797 142.734 63.0884 142.456 62.9058 142.295C62.6587 142.076 62.2917 141.967 61.8047 141.967C61.3499 141.967 61.0133 142.048 60.7949 142.209C60.5801 142.367 60.4207 142.648 60.3169 143.052L59.3716 142.923C59.4575 142.519 59.599 142.193 59.7959 141.946C59.9928 141.695 60.2775 141.504 60.6499 141.371C61.0223 141.235 61.4538 141.167 61.9443 141.167C62.4313 141.167 62.827 141.224 63.1313 141.339C63.4357 141.453 63.6595 141.598 63.8027 141.774C63.946 141.946 64.0462 142.164 64.1035 142.429C64.1357 142.594 64.1519 142.891 64.1519 143.321V144.61C64.1519 145.509 64.1715 146.078 64.2109 146.318C64.2539 146.554 64.3363 146.782 64.458 147H63.4482C63.348 146.799 63.2835 146.565 63.2549 146.296ZM63.1743 144.137C62.8234 144.28 62.297 144.402 61.5952 144.502C61.1978 144.56 60.9167 144.624 60.752 144.696C60.5872 144.767 60.4601 144.873 60.3706 145.013C60.2811 145.149 60.2363 145.301 60.2363 145.469C60.2363 145.727 60.333 145.942 60.5264 146.114C60.7233 146.286 61.0098 146.372 61.3857 146.372C61.7581 146.372 62.0894 146.291 62.3794 146.13C62.6694 145.965 62.8825 145.741 63.0186 145.458C63.1224 145.24 63.1743 144.918 63.1743 144.492V144.137ZM65.6558 147V141.296H66.5205V142.096C66.6995 141.817 66.9377 141.593 67.2349 141.425C67.5321 141.253 67.8704 141.167 68.25 141.167C68.6725 141.167 69.0181 141.255 69.2866 141.43C69.5588 141.606 69.7503 141.851 69.8613 142.166C70.3125 141.5 70.8997 141.167 71.623 141.167C72.1888 141.167 72.6239 141.325 72.9282 141.64C73.2326 141.951 73.3848 142.433 73.3848 143.084V147H72.4233V143.407C72.4233 143.02 72.3911 142.743 72.3267 142.574C72.2658 142.402 72.153 142.264 71.9883 142.161C71.8236 142.057 71.6302 142.005 71.4082 142.005C71.0072 142.005 70.6742 142.139 70.4092 142.408C70.1442 142.673 70.0117 143.099 70.0117 143.686V147H69.0449V143.294C69.0449 142.864 68.9661 142.542 68.8086 142.327C68.651 142.112 68.3932 142.005 68.0352 142.005C67.763 142.005 67.5106 142.076 67.2778 142.22C67.0487 142.363 66.8822 142.572 66.7783 142.848C66.6745 143.124 66.6226 143.521 66.6226 144.041V147H65.6558ZM75.7104 147H74.8135V139.126H75.7803V141.935C76.1885 141.423 76.7095 141.167 77.3433 141.167C77.6942 141.167 78.0254 141.239 78.3369 141.382C78.652 141.521 78.9098 141.72 79.1104 141.978C79.3145 142.232 79.4738 142.54 79.5884 142.902C79.703 143.264 79.7603 143.65 79.7603 144.062C79.7603 145.04 79.5186 145.795 79.0352 146.329C78.5518 146.862 77.9717 147.129 77.2949 147.129C76.6217 147.129 76.0936 146.848 75.7104 146.286V147ZM75.6997 144.105C75.6997 144.789 75.7928 145.283 75.979 145.587C76.2834 146.085 76.6951 146.334 77.2144 146.334C77.6369 146.334 78.0021 146.151 78.3101 145.786C78.618 145.417 78.772 144.869 78.772 144.143C78.772 143.398 78.6234 142.848 78.3262 142.494C78.0326 142.139 77.6763 141.962 77.2573 141.962C76.8348 141.962 76.4696 142.146 76.1616 142.515C75.8537 142.88 75.6997 143.41 75.6997 144.105ZM80.9473 140.238V139.126H81.9141V140.238H80.9473ZM80.9473 147V141.296H81.9141V147H80.9473ZM87.1133 146.296C86.7552 146.601 86.4097 146.816 86.0767 146.941C85.7472 147.066 85.3927 147.129 85.0132 147.129C84.3866 147.129 83.9049 146.977 83.5684 146.672C83.2318 146.364 83.0635 145.972 83.0635 145.496C83.0635 145.217 83.1261 144.963 83.2515 144.733C83.3804 144.501 83.5469 144.314 83.751 144.175C83.9587 144.035 84.1914 143.93 84.4492 143.858C84.639 143.808 84.9255 143.759 85.3086 143.713C86.0892 143.62 86.6639 143.509 87.0327 143.38C87.0363 143.247 87.0381 143.163 87.0381 143.127C87.0381 142.734 86.9468 142.456 86.7642 142.295C86.5171 142.076 86.1501 141.967 85.6631 141.967C85.2083 141.967 84.8717 142.048 84.6533 142.209C84.4385 142.367 84.2791 142.648 84.1753 143.052L83.23 142.923C83.3159 142.519 83.4574 142.193 83.6543 141.946C83.8512 141.695 84.1359 141.504 84.5083 141.371C84.8807 141.235 85.3122 141.167 85.8027 141.167C86.2897 141.167 86.6854 141.224 86.9897 141.339C87.2941 141.453 87.5179 141.598 87.6611 141.774C87.8044 141.946 87.9046 142.164 87.9619 142.429C87.9941 142.594 88.0103 142.891 88.0103 143.321V144.61C88.0103 145.509 88.0299 146.078 88.0693 146.318C88.1123 146.554 88.1947 146.782 88.3164 147H87.3066C87.2064 146.799 87.1419 146.565 87.1133 146.296ZM87.0327 144.137C86.6818 144.28 86.1554 144.402 85.4536 144.502C85.0562 144.56 84.7751 144.624 84.6104 144.696C84.4456 144.767 84.3185 144.873 84.229 145.013C84.1395 145.149 84.0947 145.301 84.0947 145.469C84.0947 145.727 84.1914 145.942 84.3848 146.114C84.5817 146.286 84.8682 146.372 85.2441 146.372C85.6165 146.372 85.9478 146.291 86.2378 146.13C86.5278 145.965 86.7409 145.741 86.877 145.458C86.9808 145.24 87.0327 144.918 87.0327 144.492V144.137ZM91.625 146.135L91.7646 146.989C91.4925 147.047 91.249 147.075 91.0342 147.075C90.6833 147.075 90.4111 147.02 90.2178 146.909C90.0244 146.798 89.8883 146.653 89.8096 146.474C89.7308 146.291 89.6914 145.91 89.6914 145.33V142.048H88.9824V141.296H89.6914V139.883L90.6528 139.303V141.296H91.625V142.048H90.6528V145.383C90.6528 145.659 90.6689 145.836 90.7012 145.915C90.737 145.994 90.7925 146.056 90.8677 146.103C90.9465 146.15 91.0575 146.173 91.2007 146.173C91.3081 146.173 91.4495 146.16 91.625 146.135ZM92.2158 144.148C92.2158 143.092 92.5094 142.309 93.0967 141.801C93.5872 141.378 94.1852 141.167 94.8906 141.167C95.6748 141.167 96.3158 141.425 96.8135 141.94C97.3112 142.452 97.5601 143.161 97.5601 144.067C97.5601 144.801 97.4491 145.38 97.2271 145.802C97.0086 146.221 96.6882 146.547 96.2656 146.78C95.8467 147.013 95.3883 147.129 94.8906 147.129C94.0921 147.129 93.4458 146.873 92.9517 146.361C92.4611 145.849 92.2158 145.111 92.2158 144.148ZM93.2095 144.148C93.2095 144.878 93.3688 145.426 93.6875 145.792C94.0062 146.153 94.4072 146.334 94.8906 146.334C95.3704 146.334 95.7697 146.151 96.0884 145.786C96.4071 145.421 96.5664 144.864 96.5664 144.116C96.5664 143.41 96.4053 142.877 96.083 142.515C95.7643 142.15 95.3669 141.967 94.8906 141.967C94.4072 141.967 94.0062 142.148 93.6875 142.51C93.3688 142.871 93.2095 143.417 93.2095 144.148ZM103.345 147L101.175 141.296H102.195L103.42 144.712C103.552 145.081 103.674 145.464 103.785 145.861C103.871 145.561 103.991 145.199 104.145 144.776L105.413 141.296H106.406L104.247 147H103.345ZM107.266 140.238V139.126H108.232V140.238H107.266ZM107.266 147V141.296H108.232V147H107.266ZM111.82 146.135L111.96 146.989C111.688 147.047 111.444 147.075 111.229 147.075C110.879 147.075 110.606 147.02 110.413 146.909C110.22 146.798 110.084 146.653 110.005 146.474C109.926 146.291 109.887 145.91 109.887 145.33V142.048H109.178V141.296H109.887V139.883L110.848 139.303V141.296H111.82V142.048H110.848V145.383C110.848 145.659 110.864 145.836 110.896 145.915C110.932 145.994 110.988 146.056 111.063 146.103C111.142 146.15 111.253 146.173 111.396 146.173C111.503 146.173 111.645 146.16 111.82 146.135ZM116.493 146.296C116.135 146.601 115.79 146.816 115.457 146.941C115.127 147.066 114.773 147.129 114.393 147.129C113.766 147.129 113.285 146.977 112.948 146.672C112.612 146.364 112.443 145.972 112.443 145.496C112.443 145.217 112.506 144.963 112.631 144.733C112.76 144.501 112.927 144.314 113.131 144.175C113.339 144.035 113.571 143.93 113.829 143.858C114.019 143.808 114.305 143.759 114.688 143.713C115.469 143.62 116.044 143.509 116.413 143.38C116.416 143.247 116.418 143.163 116.418 143.127C116.418 142.734 116.327 142.456 116.144 142.295C115.897 142.076 115.53 141.967 115.043 141.967C114.588 141.967 114.252 142.048 114.033 142.209C113.818 142.367 113.659 142.648 113.555 143.052L112.61 142.923C112.696 142.519 112.837 142.193 113.034 141.946C113.231 141.695 113.516 141.504 113.888 141.371C114.261 141.235 114.692 141.167 115.183 141.167C115.67 141.167 116.065 141.224 116.37 141.339C116.674 141.453 116.898 141.598 117.041 141.774C117.184 141.946 117.285 142.164 117.342 142.429C117.374 142.594 117.39 142.891 117.39 143.321V144.61C117.39 145.509 117.41 146.078 117.449 146.318C117.492 146.554 117.575 146.782 117.696 147H116.687C116.586 146.799 116.522 146.565 116.493 146.296ZM116.413 144.137C116.062 144.28 115.535 144.402 114.833 144.502C114.436 144.56 114.155 144.624 113.99 144.696C113.826 144.767 113.698 144.873 113.609 145.013C113.519 145.149 113.475 145.301 113.475 145.469C113.475 145.727 113.571 145.942 113.765 146.114C113.962 146.286 114.248 146.372 114.624 146.372C114.996 146.372 115.328 146.291 115.618 146.13C115.908 145.965 116.121 145.741 116.257 145.458C116.361 145.24 116.413 144.918 116.413 144.492V144.137ZM120.704 145.061C120.701 144.932 120.699 144.835 120.699 144.771C120.699 144.391 120.752 144.064 120.86 143.788C120.939 143.58 121.066 143.371 121.241 143.16C121.37 143.006 121.601 142.782 121.934 142.488C122.271 142.191 122.489 141.955 122.589 141.779C122.69 141.604 122.74 141.412 122.74 141.205C122.74 140.829 122.593 140.499 122.299 140.216C122.006 139.93 121.646 139.787 121.22 139.787C120.808 139.787 120.464 139.916 120.188 140.173C119.913 140.431 119.732 140.834 119.646 141.382L118.652 141.264C118.742 140.53 119.007 139.967 119.447 139.577C119.891 139.187 120.477 138.992 121.204 138.992C121.973 138.992 122.588 139.201 123.046 139.62C123.504 140.039 123.733 140.546 123.733 141.14C123.733 141.484 123.653 141.801 123.492 142.091C123.331 142.381 123.015 142.734 122.546 143.149C122.231 143.428 122.025 143.634 121.929 143.767C121.832 143.899 121.76 144.051 121.714 144.223C121.667 144.395 121.64 144.674 121.633 145.061H120.704ZM120.645 147V145.899H121.746V147H120.645Z" fill="white"/>
<line x1="111" y1="131.5" x2="124" y2="131.5" stroke="white"/>
<path d="M19.96 75.384C19.96 70.648 21.3893 66.3813 24.248 62.584C27.1493 58.7867 31.0747 55.8213 36.024 53.688C41.016 51.512 46.5413 50.424 52.6 50.424C58.2747 50.424 63.3307 51.32 67.768 53.112C72.248 54.8613 75.8533 57.336 78.584 60.536C81.3573 63.6933 83.0853 67.32 83.768 71.416H64.824C64.0133 69.1973 62.4133 67.4267 60.024 66.104C57.6773 64.7813 55.224 64.12 52.664 64.12C50.4027 64.12 48.2267 64.568 46.136 65.464C44.088 66.36 42.4027 67.6613 41.08 69.368C39.8 71.0747 39.16 73.08 39.16 75.384C39.16 77.688 39.8 79.6933 41.08 81.4C42.4027 83.064 44.088 84.344 46.136 85.24C48.2267 86.136 50.4027 86.584 52.664 86.584C55.48 86.584 57.9547 85.9653 60.088 84.728C62.2213 83.4907 63.7787 81.72 64.76 79.416H83.704C82.9787 83.4693 81.2507 87.0747 78.52 90.232C75.7893 93.3893 72.184 95.864 67.704 97.656C63.2667 99.4053 58.232 100.28 52.6 100.28C46.584 100.28 41.08 99.192 36.088 97.016C31.096 94.84 27.1493 91.8533 24.248 88.056C21.3893 84.2587 19.96 80.0347 19.96 75.384Z" fill="white"/>
<path d="M113.896 68.616C119.912 68.616 125.331 69.704 130.152 71.88C134.973 74.0133 138.749 76.9787 141.48 80.776C144.211 84.5307 145.576 88.776 145.576 93.512C145.576 98.2053 144.211 102.429 141.48 106.184C138.749 109.939 134.973 112.904 130.152 115.08C125.331 117.213 119.912 118.28 113.896 118.28C108.136 118.28 102.803 117.213 97.896 115.08C93.032 112.904 89.1493 109.939 86.248 106.184C83.3893 102.387 81.96 98.1627 81.96 93.512C81.96 88.8187 83.3893 84.5733 86.248 80.776C89.1493 76.9787 93.032 74.0133 97.896 71.88C102.803 69.704 108.136 68.616 113.896 68.616ZM113.96 104.712C116.008 104.712 117.971 104.264 119.848 103.368C121.768 102.472 123.325 101.171 124.52 99.464C125.715 97.7573 126.312 95.7733 126.312 93.512C126.312 91.208 125.715 89.224 124.52 87.56C123.325 85.8533 121.768 84.552 119.848 83.656C117.971 82.76 116.008 82.312 113.96 82.312C111.955 82.312 109.992 82.76 108.072 83.656C106.195 84.552 104.637 85.8533 103.4 87.56C102.205 89.224 101.608 91.208 101.608 93.512C101.608 95.7733 102.205 97.7573 103.4 99.464C104.637 101.171 106.195 102.472 108.072 103.368C109.992 104.264 111.955 104.712 113.96 104.712Z" fill="white"/>
<path d="M217.512 55.64V103H199.272V85.656L190.824 103H174.504L165.48 85.464V103H147.24V55.64H167.72L182.696 86.296L197.608 55.64H217.512Z" fill="white"/>
<path d="M265.704 108.464H237.48V113.392L271.08 113.2V126H219.24V78.64H271.08L271.144 91.44H237.48V95.984H265.704V108.464Z" fill="white"/>
<defs>
<filter id="filter0_f_285_123" x="0.799999" y="0.799999" width="121.4" height="121.4" filterUnits="userSpaceOnUse" color-interpolation-filters="sRGB">
<feFlood flood-opacity="0" result="BackgroundImageFix"/>
<feBlend mode="normal" in="SourceGraphic" in2="BackgroundImageFix" result="shape"/>
<feGaussianBlur stdDeviation="14.1" result="effect1_foregroundBlur_285_123"/>
</filter>
<filter id="filter1_f_285_123" x="55.7" y="62.7" width="125.6" height="122.6" filterUnits="userSpaceOnUse" color-interpolation-filters="sRGB">
<feFlood flood-opacity="0" result="BackgroundImageFix"/>
<feBlend mode="normal" in="SourceGraphic" in2="BackgroundImageFix" result="shape"/>
<feGaussianBlur stdDeviation="17.65" result="effect1_foregroundBlur_285_123"/>
</filter>
<filter id="filter2_f_285_123" x="6.8" y="75.8" width="87.4" height="86.4" filterUnits="userSpaceOnUse" color-interpolation-filters="sRGB">
<feFlood flood-opacity="0" result="BackgroundImageFix"/>
<feBlend mode="normal" in="SourceGraphic" in2="BackgroundImageFix" result="shape"/>
<feGaussianBlur stdDeviation="14.1" result="effect1_foregroundBlur_285_123"/>
</filter>
<filter id="filter3_f_285_123" x="108.1" y="54.1" width="90.8" height="87.8" filterUnits="userSpaceOnUse" color-interpolation-filters="sRGB">
<feFlood flood-opacity="0" result="BackgroundImageFix"/>
<feBlend mode="normal" in="SourceGraphic" in2="BackgroundImageFix" result="shape"/>
<feGaussianBlur stdDeviation="6.45" result="effect1_foregroundBlur_285_123"/>
</filter>
<filter id="filter4_f_285_123" x="108.1" y="54.1" width="90.8" height="87.8" filterUnits="userSpaceOnUse" color-interpolation-filters="sRGB">
<feFlood flood-opacity="0" result="BackgroundImageFix"/>
<feBlend mode="normal" in="SourceGraphic" in2="BackgroundImageFix" result="shape"/>
<feGaussianBlur stdDeviation="6.45" result="effect1_foregroundBlur_285_123"/>
</filter>
<filter id="filter5_f_285_123" x="148.8" y="0.799999" width="128.4" height="125.4" filterUnits="userSpaceOnUse" color-interpolation-filters="sRGB">
<feFlood flood-opacity="0" result="BackgroundImageFix"/>
<feBlend mode="normal" in="SourceGraphic" in2="BackgroundImageFix" result="shape"/>
<feGaussianBlur stdDeviation="14.1" result="effect1_foregroundBlur_285_123"/>
</filter>
<filter id="filter6_f_285_123" x="117.8" y="51.8" width="170.4" height="118.4" filterUnits="userSpaceOnUse" color-interpolation-filters="sRGB">
<feFlood flood-opacity="0" result="BackgroundImageFix"/>
<feBlend mode="normal" in="SourceGraphic" in2="BackgroundImageFix" result="shape"/>
<feGaussianBlur stdDeviation="14.1" result="effect1_foregroundBlur_285_123"/>
</filter>
<filter id="filter7_f_285_123" x="20.8" y="35.8" width="121.4" height="121.4" filterUnits="userSpaceOnUse" color-interpolation-filters="sRGB">
<feFlood flood-opacity="0" result="BackgroundImageFix"/>
<feBlend mode="normal" in="SourceGraphic" in2="BackgroundImageFix" result="shape"/>
<feGaussianBlur stdDeviation="14.1" result="effect1_foregroundBlur_285_123"/>
</filter>
<filter id="filter8_f_285_123" x="56.8" y="13.8" width="148.4" height="121.4" filterUnits="userSpaceOnUse" color-interpolation-filters="sRGB">
<feFlood flood-opacity="0" result="BackgroundImageFix"/>
<feBlend mode="normal" in="SourceGraphic" in2="BackgroundImageFix" result="shape"/>
<feGaussianBlur stdDeviation="14.1" result="effect1_foregroundBlur_285_123"/>
</filter>
<filter id="filter9_f_285_123" x="44.8" y="54.8" width="95.4" height="95.4" filterUnits="userSpaceOnUse" color-interpolation-filters="sRGB">
<feFlood flood-opacity="0" result="BackgroundImageFix"/>
<feBlend mode="normal" in="SourceGraphic" in2="BackgroundImageFix" result="shape"/>
<feGaussianBlur stdDeviation="14.1" result="effect1_foregroundBlur_285_123"/>
</filter>
<filter id="filter10_f_285_123" x="146.031" y="31.0308" width="70.9385" height="70.9385" filterUnits="userSpaceOnUse" color-interpolation-filters="sRGB">
<feFlood flood-opacity="0" result="BackgroundImageFix"/>
<feBlend mode="normal" in="SourceGraphic" in2="BackgroundImageFix" result="shape"/>
<feGaussianBlur stdDeviation="10.4846" result="effect1_foregroundBlur_285_123"/>
</filter>
<filter id="filter11_f_285_123" x="116.1" y="76.1" width="66.8" height="66.8" filterUnits="userSpaceOnUse" color-interpolation-filters="sRGB">
<feFlood flood-opacity="0" result="BackgroundImageFix"/>
<feBlend mode="normal" in="SourceGraphic" in2="BackgroundImageFix" result="shape"/>
<feGaussianBlur stdDeviation="10.95" result="effect1_foregroundBlur_285_123"/>
</filter>
</defs>
</svg>
