<svg width="320" height="202" viewBox="0 0 320 202" fill="none" xmlns="http://www.w3.org/2000/svg">
<g filter="url(#filter0_f_192_169)">
<circle cx="51.5" cy="118.5" r="28.5" fill="#A92684"/>
</g>
<g filter="url(#filter1_f_192_169)">
<ellipse cx="75.5" cy="85.5" rx="36.5" ry="28.5" fill="#A92684"/>
</g>
<g filter="url(#filter2_f_192_169)">
<ellipse cx="31.1993" cy="69.1074" rx="17.5" ry="21.5" transform="rotate(-14.0612 31.1993 69.1074)" fill="#A92684"/>
</g>
<g filter="url(#filter3_f_192_169)">
<ellipse cx="31.1993" cy="69.1074" rx="17.5" ry="21.5" transform="rotate(-14.0612 31.1993 69.1074)" fill="#A92684"/>
</g>
<g filter="url(#filter4_f_192_169)">
<ellipse cx="107.199" cy="89.1074" rx="17.5" ry="21.5" transform="rotate(-14.0612 107.199 89.1074)" fill="#A92684"/>
</g>
<g filter="url(#filter5_f_192_169)">
<ellipse cx="108.5" cy="120.5" rx="36.5" ry="28.5" fill="#A92684"/>
</g>
<g filter="url(#filter6_f_192_169)">
<ellipse cx="156.5" cy="85.5" rx="36.5" ry="41.5" fill="#A92684"/>
</g>
<g filter="url(#filter7_f_192_169)">
<ellipse cx="109.522" cy="68.8872" rx="12.7037" ry="18.7404" transform="rotate(-93.7022 109.522 68.8872)" fill="#A92684"/>
</g>
<g filter="url(#filter8_f_192_169)">
<ellipse cx="216.785" cy="64.4944" rx="25.5" ry="29" transform="rotate(36.7634 216.785 64.4944)" fill="#A92684"/>
</g>
<g filter="url(#filter9_f_192_169)">
<ellipse cx="190.462" cy="125.217" rx="36.5" ry="41.5" transform="rotate(38.874 190.462 125.217)" fill="#A92684"/>
</g>
<g filter="url(#filter10_f_192_169)">
<ellipse cx="200.921" cy="116.308" rx="18.7123" ry="21.2756" transform="rotate(38.874 200.921 116.308)" fill="#A92684"/>
</g>
<g filter="url(#filter11_f_192_169)">
<ellipse cx="232.335" cy="91.7131" rx="18.3194" ry="20.8289" transform="rotate(-7.07528 232.335 91.7131)" fill="#A92684"/>
</g>
<g filter="url(#filter12_f_192_169)">
<ellipse cx="265.5" cy="123" rx="25.5" ry="29" fill="#A92684"/>
</g>
<g filter="url(#filter13_f_192_169)">
<ellipse cx="273.887" cy="77.8799" rx="25.5" ry="32.196" transform="rotate(32.8501 273.887 77.8799)" fill="#A92684"/>
</g>
<g filter="url(#filter14_f_192_169)">
<ellipse cx="232.335" cy="91.7131" rx="18.3194" ry="20.8289" transform="rotate(-7.07528 232.335 91.7131)" fill="#A92684"/>
</g>
<g filter="url(#filter15_f_192_169)">
<ellipse cx="232.335" cy="91.7131" rx="18.3194" ry="20.8289" transform="rotate(-7.07528 232.335 91.7131)" fill="#A92684"/>
</g>
<path d="M60.5297 103.956L48.9557 90.4626H43.4793V103.956H28.2356V62.177H60.7555C64.2559 62.177 67.3423 62.7604 70.0146 63.9272C72.7246 65.094 74.8136 66.7313 76.2815 68.8391C77.787 70.9092 78.5398 73.3181 78.5398 76.0657V76.2916C78.5398 79.8672 77.4859 82.8219 75.3782 85.1555C73.308 87.4891 70.4287 89.0511 66.7401 89.8415L78.8786 103.956H60.5297ZM63.6913 76.2916C63.6913 75.1624 63.4279 74.3532 62.9009 73.8639C62.4116 73.3369 61.7341 73.017 60.8684 72.9041C60.0404 72.7912 58.7606 72.7347 57.0293 72.7347H55.2226C54.0558 72.7723 50.1414 72.7912 43.4793 72.7912V79.679H56.9728H57.0293C58.7606 79.679 60.0404 79.6226 60.8684 79.5097C61.7341 79.3968 62.4116 79.1145 62.9009 78.6628C63.4279 78.1735 63.6913 77.3831 63.6913 76.2916Z" fill="white"/>
<path d="M101.946 133.182H77.0482V137.53L106.689 137.36V148.652H60.9576V106.873H106.689L106.745 118.164H77.0482V122.173H101.946V133.182Z" fill="white"/>
<path d="M118.582 119.247L142.238 77.4675L118.582 119.247ZM126.938 104.511L142.238 77.4675H158.328L135.802 119.247H117.453L95.4905 77.4675H112.71L126.938 104.511Z" fill="white"/>
<path d="M164.506 148.652H148.415V106.873H164.506V148.652Z" fill="white"/>
<path d="M211.334 88.4865H186.436V92.8338L216.076 92.6644V103.956H170.345V62.177H216.076L216.133 73.4687H186.436V77.4772H211.334V88.4865Z" fill="white"/>
<path d="M245.289 130.359L257.936 106.873H274.026L251.499 148.652H235.409L229.142 128.553L222.593 148.652H206.502L184.54 106.873H200.631L212.938 130.359L221.238 106.873H237.328L245.289 130.359Z" fill="white"/>
<path d="M269.191 78.8886C270.998 78.8134 272.409 78.7757 273.425 78.7757C278.883 78.7757 283.305 79.5473 286.693 81.0905C290.118 82.6337 291.831 85.6636 291.831 90.1803C291.831 96.0896 289.215 100.079 283.983 102.149C278.751 104.22 272.861 105.255 266.312 105.255C259.725 105.255 253.684 104.22 248.188 102.149C242.693 100.079 239.946 96.0896 239.946 90.1803H256.544C256.544 92.3633 257.504 93.7559 259.424 94.3582C261.343 94.9604 263.639 95.2615 266.312 95.2615C268.833 95.2615 270.998 94.8663 272.804 94.0759C274.611 93.2855 275.514 92.0622 275.514 90.4061C275.514 89.0135 274.554 88.1101 272.635 87.6961C270.753 87.2444 268.551 87.0186 266.029 87.0186L260.383 87.0751C256.62 87.0751 253.27 86.8116 250.334 86.2847C247.436 85.7201 244.97 84.5721 242.938 82.8407C240.943 81.0717 239.946 78.4934 239.946 75.1059C239.946 71.0033 241.395 67.9169 244.293 65.8468C247.229 63.739 250.579 62.4029 254.342 61.8383C258.106 61.2361 262.096 60.9349 266.312 60.9349C272.861 60.9349 278.751 61.97 283.983 64.0401C289.215 66.0726 291.831 70.0623 291.831 76.0093H275.514C275.514 74.4284 274.611 73.2428 272.804 72.4524C271.035 71.662 268.871 71.2291 266.312 71.1539C263.602 71.1539 261.287 71.455 259.367 72.0572C257.485 72.6594 256.544 73.6192 256.544 74.9366C256.544 76.4421 257.504 77.4772 259.424 78.0418C261.343 78.6063 263.507 78.9075 265.916 78.9451L269.191 78.8886Z" fill="white"/>
<g filter="url(#filter16_f_192_169)">
<circle cx="61.5" cy="106.5" r="8.5" fill="#A92684"/>
</g>
<g filter="url(#filter17_f_192_169)">
<ellipse cx="145.076" cy="104.404" rx="8.23784" ry="14.2488" transform="rotate(19.3007 145.076 104.404)" fill="#A92684"/>
</g>
<g filter="url(#filter18_f_192_169)">
<ellipse cx="195.208" cy="127.143" rx="5.3942" ry="18.3979" transform="rotate(-23.3031 195.208 127.143)" fill="#A92684"/>
</g>
<g filter="url(#filter19_f_192_169)">
<ellipse cx="243" cy="85.5" rx="6" ry="8.5" fill="#A92684"/>
</g>
<g filter="url(#filter20_f_192_169)">
<ellipse cx="214" cy="81.5" rx="5" ry="24.5" fill="#A92684"/>
</g>
<defs>
<filter id="filter0_f_192_169" x="-13.5" y="53.5" width="130" height="130" filterUnits="userSpaceOnUse" color-interpolation-filters="sRGB">
<feFlood flood-opacity="0" result="BackgroundImageFix"/>
<feBlend mode="normal" in="SourceGraphic" in2="BackgroundImageFix" result="shape"/>
<feGaussianBlur stdDeviation="18.25" result="effect1_foregroundBlur_192_169"/>
</filter>
<filter id="filter1_f_192_169" x="2.5" y="20.5" width="146" height="130" filterUnits="userSpaceOnUse" color-interpolation-filters="sRGB">
<feFlood flood-opacity="0" result="BackgroundImageFix"/>
<feBlend mode="normal" in="SourceGraphic" in2="BackgroundImageFix" result="shape"/>
<feGaussianBlur stdDeviation="18.25" result="effect1_foregroundBlur_192_169"/>
</filter>
<filter id="filter2_f_192_169" x="-23.0667" y="11.3184" width="108.532" height="115.578" filterUnits="userSpaceOnUse" color-interpolation-filters="sRGB">
<feFlood flood-opacity="0" result="BackgroundImageFix"/>
<feBlend mode="normal" in="SourceGraphic" in2="BackgroundImageFix" result="shape"/>
<feGaussianBlur stdDeviation="18.25" result="effect1_foregroundBlur_192_169"/>
</filter>
<filter id="filter3_f_192_169" x="-6.36665" y="28.0184" width="75.1318" height="82.1781" filterUnits="userSpaceOnUse" color-interpolation-filters="sRGB">
<feFlood flood-opacity="0" result="BackgroundImageFix"/>
<feBlend mode="normal" in="SourceGraphic" in2="BackgroundImageFix" result="shape"/>
<feGaussianBlur stdDeviation="9.9" result="effect1_foregroundBlur_192_169"/>
</filter>
<filter id="filter4_f_192_169" x="81.4333" y="59.8184" width="51.5318" height="58.5781" filterUnits="userSpaceOnUse" color-interpolation-filters="sRGB">
<feFlood flood-opacity="0" result="BackgroundImageFix"/>
<feBlend mode="normal" in="SourceGraphic" in2="BackgroundImageFix" result="shape"/>
<feGaussianBlur stdDeviation="4" result="effect1_foregroundBlur_192_169"/>
</filter>
<filter id="filter5_f_192_169" x="35.5" y="55.5" width="146" height="130" filterUnits="userSpaceOnUse" color-interpolation-filters="sRGB">
<feFlood flood-opacity="0" result="BackgroundImageFix"/>
<feBlend mode="normal" in="SourceGraphic" in2="BackgroundImageFix" result="shape"/>
<feGaussianBlur stdDeviation="18.25" result="effect1_foregroundBlur_192_169"/>
</filter>
<filter id="filter6_f_192_169" x="83.5" y="7.5" width="146" height="156" filterUnits="userSpaceOnUse" color-interpolation-filters="sRGB">
<feFlood flood-opacity="0" result="BackgroundImageFix"/>
<feBlend mode="normal" in="SourceGraphic" in2="BackgroundImageFix" result="shape"/>
<feGaussianBlur stdDeviation="18.25" result="effect1_foregroundBlur_192_169"/>
</filter>
<filter id="filter7_f_192_169" x="54.3019" y="19.6516" width="110.439" height="98.4712" filterUnits="userSpaceOnUse" color-interpolation-filters="sRGB">
<feFlood flood-opacity="0" result="BackgroundImageFix"/>
<feBlend mode="normal" in="SourceGraphic" in2="BackgroundImageFix" result="shape"/>
<feGaussianBlur stdDeviation="18.25" result="effect1_foregroundBlur_192_169"/>
</filter>
<filter id="filter8_f_192_169" x="153.478" y="0.194336" width="126.614" height="128.6" filterUnits="userSpaceOnUse" color-interpolation-filters="sRGB">
<feFlood flood-opacity="0" result="BackgroundImageFix"/>
<feBlend mode="normal" in="SourceGraphic" in2="BackgroundImageFix" result="shape"/>
<feGaussianBlur stdDeviation="18.25" result="effect1_foregroundBlur_192_169"/>
</filter>
<filter id="filter9_f_192_169" x="115.415" y="49.1074" width="150.094" height="152.219" filterUnits="userSpaceOnUse" color-interpolation-filters="sRGB">
<feFlood flood-opacity="0" result="BackgroundImageFix"/>
<feBlend mode="normal" in="SourceGraphic" in2="BackgroundImageFix" result="shape"/>
<feGaussianBlur stdDeviation="18.25" result="effect1_foregroundBlur_192_169"/>
</filter>
<filter id="filter10_f_192_169" x="162.859" y="77.7015" width="76.1236" height="77.2123" filterUnits="userSpaceOnUse" color-interpolation-filters="sRGB">
<feFlood flood-opacity="0" result="BackgroundImageFix"/>
<feBlend mode="normal" in="SourceGraphic" in2="BackgroundImageFix" result="shape"/>
<feGaussianBlur stdDeviation="9.15" result="effect1_foregroundBlur_192_169"/>
</filter>
<filter id="filter11_f_192_169" x="177.472" y="34.4182" width="109.725" height="114.59" filterUnits="userSpaceOnUse" color-interpolation-filters="sRGB">
<feFlood flood-opacity="0" result="BackgroundImageFix"/>
<feBlend mode="normal" in="SourceGraphic" in2="BackgroundImageFix" result="shape"/>
<feGaussianBlur stdDeviation="18.25" result="effect1_foregroundBlur_192_169"/>
</filter>
<filter id="filter12_f_192_169" x="203.5" y="57.5" width="124" height="131" filterUnits="userSpaceOnUse" color-interpolation-filters="sRGB">
<feFlood flood-opacity="0" result="BackgroundImageFix"/>
<feBlend mode="normal" in="SourceGraphic" in2="BackgroundImageFix" result="shape"/>
<feGaussianBlur stdDeviation="18.25" result="effect1_foregroundBlur_192_169"/>
</filter>
<filter id="filter13_f_192_169" x="209.747" y="10.9941" width="128.28" height="133.771" filterUnits="userSpaceOnUse" color-interpolation-filters="sRGB">
<feFlood flood-opacity="0" result="BackgroundImageFix"/>
<feBlend mode="normal" in="SourceGraphic" in2="BackgroundImageFix" result="shape"/>
<feGaussianBlur stdDeviation="18.25" result="effect1_foregroundBlur_192_169"/>
</filter>
<filter id="filter14_f_192_169" x="198.472" y="55.4182" width="67.7246" height="72.5898" filterUnits="userSpaceOnUse" color-interpolation-filters="sRGB">
<feFlood flood-opacity="0" result="BackgroundImageFix"/>
<feBlend mode="normal" in="SourceGraphic" in2="BackgroundImageFix" result="shape"/>
<feGaussianBlur stdDeviation="7.75" result="effect1_foregroundBlur_192_169"/>
</filter>
<filter id="filter15_f_192_169" x="202.172" y="59.1182" width="60.3246" height="65.1898" filterUnits="userSpaceOnUse" color-interpolation-filters="sRGB">
<feFlood flood-opacity="0" result="BackgroundImageFix"/>
<feBlend mode="normal" in="SourceGraphic" in2="BackgroundImageFix" result="shape"/>
<feGaussianBlur stdDeviation="5.9" result="effect1_foregroundBlur_192_169"/>
</filter>
<filter id="filter16_f_192_169" x="35.2" y="80.2" width="52.6" height="52.6" filterUnits="userSpaceOnUse" color-interpolation-filters="sRGB">
<feFlood flood-opacity="0" result="BackgroundImageFix"/>
<feBlend mode="normal" in="SourceGraphic" in2="BackgroundImageFix" result="shape"/>
<feGaussianBlur stdDeviation="8.9" result="effect1_foregroundBlur_192_169"/>
</filter>
<filter id="filter17_f_192_169" x="118.185" y="72.8807" width="53.7827" height="63.047" filterUnits="userSpaceOnUse" color-interpolation-filters="sRGB">
<feFlood flood-opacity="0" result="BackgroundImageFix"/>
<feBlend mode="normal" in="SourceGraphic" in2="BackgroundImageFix" result="shape"/>
<feGaussianBlur stdDeviation="8.9" result="effect1_foregroundBlur_192_169"/>
</filter>
<filter id="filter18_f_192_169" x="171.503" y="95.2099" width="47.4102" height="63.8662" filterUnits="userSpaceOnUse" color-interpolation-filters="sRGB">
<feFlood flood-opacity="0" result="BackgroundImageFix"/>
<feBlend mode="normal" in="SourceGraphic" in2="BackgroundImageFix" result="shape"/>
<feGaussianBlur stdDeviation="7.45" result="effect1_foregroundBlur_192_169"/>
</filter>
<filter id="filter19_f_192_169" x="223.5" y="63.5" width="39" height="44" filterUnits="userSpaceOnUse" color-interpolation-filters="sRGB">
<feFlood flood-opacity="0" result="BackgroundImageFix"/>
<feBlend mode="normal" in="SourceGraphic" in2="BackgroundImageFix" result="shape"/>
<feGaussianBlur stdDeviation="6.75" result="effect1_foregroundBlur_192_169"/>
</filter>
<filter id="filter20_f_192_169" x="194.9" y="42.9" width="38.2" height="77.2" filterUnits="userSpaceOnUse" color-interpolation-filters="sRGB">
<feFlood flood-opacity="0" result="BackgroundImageFix"/>
<feBlend mode="normal" in="SourceGraphic" in2="BackgroundImageFix" result="shape"/>
<feGaussianBlur stdDeviation="7.05" result="effect1_foregroundBlur_192_169"/>
</filter>
</defs>
</svg>
