<svg width="320" height="134" viewBox="0 0 320 134" fill="none" xmlns="http://www.w3.org/2000/svg">
<g filter="url(#filter0_f_285_294)">
<ellipse cx="75.326" cy="66.4188" rx="36.3895" ry="28.0988" fill="#A92684"/>
</g>
<g filter="url(#filter1_f_285_294)">
<ellipse cx="17.4356" cy="21.2114" rx="17.4356" ry="21.2114" transform="matrix(0.970668 -0.240422 0.245518 0.969392 18 49.6619)" fill="#A92684"/>
</g>
<g filter="url(#filter2_f_285_294)">
<ellipse cx="17.4356" cy="21.2114" rx="17.4356" ry="21.2114" transform="matrix(0.970668 -0.240422 0.245518 0.969392 84.7971 53.6052)" fill="#A92684"/>
</g>
<g filter="url(#filter3_f_285_294)">
<ellipse cx="165" cy="69.5" rx="63" ry="27.5" fill="#A92684"/>
</g>
<g filter="url(#filter4_f_285_294)">
<ellipse cx="12.5254" cy="18.6828" rx="12.5254" ry="18.6828" transform="matrix(-0.0652912 -0.997866 0.997959 -0.0638579 91.4175 63.7317)" fill="#A92684"/>
</g>
<g filter="url(#filter5_f_285_294)">
<ellipse cx="15.9001" cy="18.0254" rx="15.9001" ry="18.0254" transform="matrix(0.804296 0.594229 -0.602791 0.797899 215.4 36)" fill="#A92684"/>
</g>
<g filter="url(#filter6_f_285_294)">
<ellipse cx="18.2608" cy="20.5391" rx="18.2608" ry="20.5391" transform="matrix(0.992551 -0.121828 0.124532 0.992216 211.003 54.3899)" fill="#A92684"/>
</g>
<g filter="url(#filter7_f_285_294)">
<ellipse cx="19.1767" cy="24.1014" rx="19.1767" ry="24.1014" transform="matrix(0.842831 0.538179 -0.546712 0.837321 267.675 38.3203)" fill="#A92684"/>
</g>
<g filter="url(#filter8_f_285_294)">
<ellipse cx="18.2608" cy="20.5391" rx="18.2608" ry="20.5391" transform="matrix(0.992551 -0.121828 0.124532 0.992216 211.003 54.3899)" fill="#A92684"/>
</g>
<g filter="url(#filter9_f_285_294)">
<ellipse cx="18.2608" cy="20.5391" rx="18.2608" ry="20.5391" transform="matrix(0.992551 -0.121828 0.124532 0.992216 211.003 54.3899)" fill="#A92684"/>
</g>
<path d="M50.1675 85.0291L44.0175 77.8591H41.1075V85.0291H33.0075V62.8291H50.2875C52.1475 62.8291 53.7875 63.1391 55.2075 63.7591C56.6475 64.3791 57.7575 65.2491 58.5375 66.3691C59.3375 67.4691 59.7375 68.7491 59.7375 70.2091V70.3291C59.7375 72.2291 59.1775 73.7991 58.0575 75.0391C56.9575 76.2791 55.4275 77.1091 53.4675 77.5291L59.9175 85.0291H50.1675ZM51.8475 70.3291C51.8475 69.7291 51.7075 69.2991 51.4275 69.0391C51.1675 68.7591 50.8075 68.5891 50.3475 68.5291C49.9075 68.4691 49.2275 68.4391 48.3075 68.4391H47.3475C46.7275 68.4591 44.6475 68.4691 41.1075 68.4691V72.1291H48.2775H48.3075C49.2275 72.1291 49.9075 72.0991 50.3475 72.0391C50.8075 71.9791 51.1675 71.8291 51.4275 71.5891C51.7075 71.3291 51.8475 70.9091 51.8475 70.3291ZM82.9055 76.8091H69.6755V79.1191L85.4255 79.0291V85.0291H61.1255V62.8291H85.4255L85.4555 68.8291H69.6755V70.9591H82.9055V76.8091ZM86.2118 73.9591C86.2118 71.7391 86.8818 69.7391 88.2218 67.9591C89.5818 66.1791 91.4218 64.7891 93.7418 63.7891C96.0818 62.7691 98.6718 62.2591 101.512 62.2591C104.172 62.2591 106.542 62.6791 108.622 63.5191C110.722 64.3391 112.412 65.4991 113.692 66.9991C114.992 68.4791 115.802 70.1791 116.122 72.0991H107.242C106.862 71.0591 106.112 70.2291 104.992 69.6091C103.892 68.9891 102.742 68.6791 101.542 68.6791C100.482 68.6791 99.4618 68.8891 98.4818 69.3091C97.5218 69.7291 96.7318 70.3391 96.1118 71.1391C95.5118 71.9391 95.2118 72.8791 95.2118 73.9591C95.2118 75.0391 95.5118 75.9791 96.1118 76.7791C96.7318 77.5591 97.5218 78.1591 98.4818 78.5791C99.4618 78.9991 100.482 79.2091 101.542 79.2091C102.862 79.2091 104.022 78.9191 105.022 78.3391C106.022 77.7591 106.752 76.9291 107.212 75.8491H116.092C115.752 77.7491 114.942 79.4391 113.662 80.9191C112.382 82.3991 110.692 83.5591 108.592 84.3991C106.512 85.2191 104.152 85.6291 101.512 85.6291C98.6918 85.6291 96.1118 85.1191 93.7718 84.0991C91.4318 83.0791 89.5818 81.6791 88.2218 79.8991C86.8818 78.1191 86.2118 76.1391 86.2118 73.9591ZM139.112 76.8091H125.882V79.1191L141.632 79.0291V85.0291H117.332V62.8291H141.632L141.662 68.8291H125.882V70.9591H139.112V76.8091ZM151.568 85.0291H143.018V62.8291L151.568 85.0291ZM172.418 85.0291H163.868H172.418ZM163.868 75.3391V62.8291H172.418V85.0291H163.868L151.568 72.5191V85.0291H143.018V62.8291H151.568L163.868 75.3391ZM189.153 71.7091C190.113 71.6691 190.863 71.6491 191.403 71.6491C194.303 71.6491 196.653 72.0591 198.453 72.8791C200.273 73.6991 201.183 75.3091 201.183 77.7091C201.183 80.8491 199.793 82.9691 197.013 84.0691C194.233 85.1691 191.103 85.7191 187.623 85.7191C184.123 85.7191 180.913 85.1691 177.993 84.0691C175.073 82.9691 173.613 80.8491 173.613 77.7091H182.433C182.433 78.8691 182.943 79.6091 183.963 79.9291C184.983 80.2491 186.203 80.4091 187.623 80.4091C188.963 80.4091 190.113 80.1991 191.073 79.7791C192.033 79.3591 192.513 78.7091 192.513 77.8291C192.513 77.0891 192.003 76.6091 190.983 76.3891C189.983 76.1491 188.813 76.0291 187.473 76.0291L184.473 76.0591C182.473 76.0591 180.693 75.9191 179.133 75.6391C177.593 75.3391 176.283 74.7291 175.203 73.8091C174.143 72.8691 173.613 71.4991 173.613 69.6991C173.613 67.5191 174.383 65.8791 175.923 64.7791C177.483 63.6591 179.263 62.9491 181.263 62.6491C183.263 62.3291 185.383 62.1691 187.623 62.1691C191.103 62.1691 194.233 62.7191 197.013 63.8191C199.793 64.8991 201.183 67.0191 201.183 70.1791H192.513C192.513 69.3391 192.033 68.7091 191.073 68.2891C190.133 67.8691 188.983 67.6391 187.623 67.5991C186.183 67.5991 184.953 67.7591 183.933 68.0791C182.933 68.3991 182.433 68.9091 182.433 69.6091C182.433 70.4091 182.943 70.9591 183.963 71.2591C184.983 71.5591 186.133 71.7191 187.413 71.7391L189.153 71.7091ZM210.939 85.0291H202.389V62.8291H210.939V85.0291ZM227.123 62.3491C229.943 62.3491 232.483 62.8591 234.743 63.8791C237.003 64.8791 238.773 66.2691 240.053 68.0491C241.333 69.8091 241.973 71.7991 241.973 74.0191C241.973 76.2191 241.333 78.1991 240.053 79.9591C238.773 81.7191 237.003 83.1091 234.743 84.1291C232.483 85.1291 229.943 85.6291 227.123 85.6291C224.423 85.6291 221.923 85.1291 219.623 84.1291C217.343 83.1091 215.523 81.7191 214.163 79.9591C212.823 78.1791 212.153 76.1991 212.153 74.0191C212.153 71.8191 212.823 69.8291 214.163 68.0491C215.523 66.2691 217.343 64.8791 219.623 63.8791C221.923 62.8591 224.423 62.3491 227.123 62.3491ZM227.153 79.2691C228.113 79.2691 229.033 79.0591 229.913 78.6391C230.813 78.2191 231.543 77.6091 232.103 76.8091C232.663 76.0091 232.943 75.0791 232.943 74.0191C232.943 72.9391 232.663 72.0091 232.103 71.2291C231.543 70.4291 230.813 69.8191 229.913 69.3991C229.033 68.9791 228.113 68.7691 227.153 68.7691C226.213 68.7691 225.293 68.9791 224.393 69.3991C223.513 69.8191 222.783 70.4291 222.203 71.2291C221.643 72.0091 221.363 72.9391 221.363 74.0191C221.363 75.0791 221.643 76.0091 222.203 76.8091C222.783 77.6091 223.513 78.2191 224.393 78.6391C225.293 79.0591 226.213 79.2691 227.153 79.2691ZM251.736 85.0291H243.186V62.8291L251.736 85.0291ZM272.586 85.0291H264.036H272.586ZM264.036 75.3391V62.8291H272.586V85.0291H264.036L251.736 72.5191V85.0291H243.186V62.8291H251.736L264.036 75.3391ZM282.93 85.0291H274.38V62.8291H282.93V85.0291Z" fill="white"/>
<g filter="url(#filter10_f_285_294)">
<ellipse cx="61.3683" cy="87.1233" rx="8.47426" ry="8.38033" fill="#A92684"/>
</g>
<g filter="url(#filter11_f_285_294)">
<ellipse cx="8.203" cy="14.0654" rx="8.203" ry="14.0654" transform="matrix(0.944936 0.327257 -0.333819 0.942637 141.635 69.1138)" fill="#A92684"/>
</g>
<g filter="url(#filter12_f_285_294)">
<ellipse cx="242.318" cy="66.4189" rx="5.98183" ry="8.38033" fill="#A92684"/>
</g>
<g filter="url(#filter13_f_285_294)">
<ellipse cx="213.406" cy="62.4751" rx="4.98486" ry="24.1551" fill="#A92684"/>
</g>
<defs>
<filter id="filter0_f_285_294" x="2.43652" y="1.82007" width="145.779" height="129.198" filterUnits="userSpaceOnUse" color-interpolation-filters="sRGB">
<feFlood flood-opacity="0" result="BackgroundImageFix"/>
<feBlend mode="normal" in="SourceGraphic" in2="BackgroundImageFix" result="shape"/>
<feGaussianBlur stdDeviation="18.25" result="effect1_foregroundBlur_285_294"/>
</filter>
<filter id="filter1_f_285_294" x="-14.0801" y="8.54297" width="108.424" height="114.979" filterUnits="userSpaceOnUse" color-interpolation-filters="sRGB">
<feFlood flood-opacity="0" result="BackgroundImageFix"/>
<feBlend mode="normal" in="SourceGraphic" in2="BackgroundImageFix" result="shape"/>
<feGaussianBlur stdDeviation="18.25" result="effect1_foregroundBlur_285_294"/>
</filter>
<filter id="filter2_f_285_294" x="81.217" y="40.9863" width="51.4241" height="57.9785" filterUnits="userSpaceOnUse" color-interpolation-filters="sRGB">
<feFlood flood-opacity="0" result="BackgroundImageFix"/>
<feBlend mode="normal" in="SourceGraphic" in2="BackgroundImageFix" result="shape"/>
<feGaussianBlur stdDeviation="4" result="effect1_foregroundBlur_285_294"/>
</filter>
<filter id="filter3_f_285_294" x="65.5" y="5.5" width="199" height="128" filterUnits="userSpaceOnUse" color-interpolation-filters="sRGB">
<feFlood flood-opacity="0" result="BackgroundImageFix"/>
<feBlend mode="normal" in="SourceGraphic" in2="BackgroundImageFix" result="shape"/>
<feGaussianBlur stdDeviation="18.25" result="effect1_foregroundBlur_285_294"/>
</filter>
<filter id="filter4_f_285_294" x="54.0813" y="0.983643" width="110.326" height="98.1128" filterUnits="userSpaceOnUse" color-interpolation-filters="sRGB">
<feFlood flood-opacity="0" result="BackgroundImageFix"/>
<feBlend mode="normal" in="SourceGraphic" in2="BackgroundImageFix" result="shape"/>
<feGaussianBlur stdDeviation="18.25" result="effect1_foregroundBlur_285_294"/>
</filter>
<filter id="filter5_f_285_294" x="164.042" y="6.12061" width="106.562" height="107.42" filterUnits="userSpaceOnUse" color-interpolation-filters="sRGB">
<feFlood flood-opacity="0" result="BackgroundImageFix"/>
<feBlend mode="normal" in="SourceGraphic" in2="BackgroundImageFix" result="shape"/>
<feGaussianBlur stdDeviation="18.25" result="effect1_foregroundBlur_285_294"/>
</filter>
<filter id="filter6_f_285_294" x="176.879" y="15.5425" width="109.613" height="114.004" filterUnits="userSpaceOnUse" color-interpolation-filters="sRGB">
<feFlood flood-opacity="0" result="BackgroundImageFix"/>
<feBlend mode="normal" in="SourceGraphic" in2="BackgroundImageFix" result="shape"/>
<feGaussianBlur stdDeviation="18.25" result="effect1_foregroundBlur_285_294"/>
</filter>
<filter id="filter7_f_285_294" x="213.307" y="9.65015" width="114.708" height="118.343" filterUnits="userSpaceOnUse" color-interpolation-filters="sRGB">
<feFlood flood-opacity="0" result="BackgroundImageFix"/>
<feBlend mode="normal" in="SourceGraphic" in2="BackgroundImageFix" result="shape"/>
<feGaussianBlur stdDeviation="18.25" result="effect1_foregroundBlur_285_294"/>
</filter>
<filter id="filter8_f_285_294" x="197.879" y="36.5425" width="67.6133" height="72.0042" filterUnits="userSpaceOnUse" color-interpolation-filters="sRGB">
<feFlood flood-opacity="0" result="BackgroundImageFix"/>
<feBlend mode="normal" in="SourceGraphic" in2="BackgroundImageFix" result="shape"/>
<feGaussianBlur stdDeviation="7.75" result="effect1_foregroundBlur_285_294"/>
</filter>
<filter id="filter9_f_285_294" x="201.579" y="40.2425" width="60.2133" height="64.6042" filterUnits="userSpaceOnUse" color-interpolation-filters="sRGB">
<feFlood flood-opacity="0" result="BackgroundImageFix"/>
<feBlend mode="normal" in="SourceGraphic" in2="BackgroundImageFix" result="shape"/>
<feGaussianBlur stdDeviation="5.9" result="effect1_foregroundBlur_285_294"/>
</filter>
<filter id="filter10_f_285_294" x="35.094" y="60.9429" width="52.5485" height="52.3607" filterUnits="userSpaceOnUse" color-interpolation-filters="sRGB">
<feFlood flood-opacity="0" result="BackgroundImageFix"/>
<feBlend mode="normal" in="SourceGraphic" in2="BackgroundImageFix" result="shape"/>
<feGaussianBlur stdDeviation="8.9" result="effect1_foregroundBlur_285_294"/>
</filter>
<filter id="filter11_f_285_294" x="117.827" y="53.7266" width="53.7277" height="62.6605" filterUnits="userSpaceOnUse" color-interpolation-filters="sRGB">
<feFlood flood-opacity="0" result="BackgroundImageFix"/>
<feBlend mode="normal" in="SourceGraphic" in2="BackgroundImageFix" result="shape"/>
<feGaussianBlur stdDeviation="8.9" result="effect1_foregroundBlur_285_294"/>
</filter>
<filter id="filter12_f_285_294" x="222.837" y="44.5386" width="38.9636" height="43.7607" filterUnits="userSpaceOnUse" color-interpolation-filters="sRGB">
<feFlood flood-opacity="0" result="BackgroundImageFix"/>
<feBlend mode="normal" in="SourceGraphic" in2="BackgroundImageFix" result="shape"/>
<feGaussianBlur stdDeviation="6.75" result="effect1_foregroundBlur_285_294"/>
</filter>
<filter id="filter13_f_285_294" x="194.322" y="24.2201" width="38.1697" height="76.5101" filterUnits="userSpaceOnUse" color-interpolation-filters="sRGB">
<feFlood flood-opacity="0" result="BackgroundImageFix"/>
<feBlend mode="normal" in="SourceGraphic" in2="BackgroundImageFix" result="shape"/>
<feGaussianBlur stdDeviation="7.05" result="effect1_foregroundBlur_285_294"/>
</filter>
</defs>
</svg>
