<svg width="57" height="9" viewBox="0 0 57 9" fill="none" xmlns="http://www.w3.org/2000/svg">
<path d="M4.5 0L5.51031 3.10942H8.77975L6.13472 5.03115L7.14503 8.14058L4.5 6.21885L1.85497 8.14058L2.86528 5.03115L0.220246 3.10942H3.48969L4.5 0Z" fill="#009542"/>
<path d="M16.5 0L17.5103 3.10942H20.7798L18.1347 5.03115L19.145 8.14058L16.5 6.21885L13.855 8.14058L14.8653 5.03115L12.2202 3.10942H15.4897L16.5 0Z" fill="#009542"/>
<path d="M28.5 0L29.5103 3.10942H32.7798L30.1347 5.03115L31.145 8.14058L28.5 6.21885L25.855 8.14058L26.8653 5.03115L24.2202 3.10942H27.4897L28.5 0Z" fill="#009542"/>
<path d="M40.5 0L41.5103 3.10942H44.7798L42.1347 5.03115L43.145 8.14058L40.5 6.21885L37.855 8.14058L38.8653 5.03115L36.2202 3.10942H39.4897L40.5 0Z" fill="#009542"/>
<path d="M52.5 0L53.5103 3.10942H56.7798L54.1347 5.03115L55.145 8.14058L52.5 6.21885L49.855 8.14058L50.8653 5.03115L48.2202 3.10942H51.4897L52.5 0Z" fill="#009542"/>
</svg>
