<svg width="32" height="32" viewBox="0 0 32 32" fill="none" xmlns="http://www.w3.org/2000/svg">
<path d="M16.0006 0C11.6554 0 11.1101 0.0190003 9.40347 0.096667C7.70019 0.174667 6.53756 0.444333 5.52026 0.84C4.46795 1.24867 3.57531 1.79533 2.68601 2.685C1.79603 3.57433 1.24938 4.467 0.839397 5.519C0.442742 6.53667 0.17275 7.69967 0.0960861 9.40233C0.0197551 11.109 -0.000244141 11.6547 -0.000244141 16C-0.000244141 20.3453 0.0190889 20.889 0.0964199 22.5957C0.174751 24.299 0.444409 25.4617 0.839731 26.479C1.24872 27.5313 1.79537 28.424 2.68501 29.3133C3.57398 30.2033 4.46662 30.7513 5.51825 31.16C6.53622 31.5557 7.69919 31.8253 9.40214 31.9033C11.1088 31.981 11.6537 32 15.9986 32C20.3441 32 20.8878 31.981 22.5944 31.9033C24.2977 31.8253 25.4616 31.5557 26.4796 31.16C27.5316 30.7513 28.4229 30.2033 29.3119 29.3133C30.2018 28.424 30.7485 27.5313 31.1585 26.4793C31.5518 25.4617 31.8218 24.2987 31.9018 22.596C31.9785 20.8893 31.9985 20.3453 31.9985 16C31.9985 11.6547 31.9785 11.1093 31.9018 9.40267C31.8218 7.69933 31.5518 6.53667 31.1585 5.51933C30.7485 4.467 30.2018 3.57433 29.3119 2.685C28.4219 1.795 27.5319 1.24833 26.4786 0.84C25.4587 0.444333 24.2954 0.174667 22.5921 0.096667C20.8855 0.0190003 20.3421 0 15.9956 0H16.0006ZM14.5653 2.88333C14.9913 2.88267 15.4666 2.88333 16.0006 2.88333C20.2725 2.88333 20.7788 2.89867 22.4657 2.97533C24.0257 3.04667 24.8723 3.30733 25.4363 3.52633C26.183 3.81633 26.7153 4.163 27.2749 4.723C27.8349 5.283 28.1816 5.81633 28.4722 6.563C28.6912 7.12633 28.9522 7.973 29.0232 9.533C29.0999 11.2197 29.1165 11.7263 29.1165 15.9963C29.1165 20.2663 29.0999 20.773 29.0232 22.4597C28.9519 24.0197 28.6912 24.8663 28.4722 25.4297C28.1822 26.1763 27.8349 26.708 27.2749 27.2677C26.7149 27.8277 26.1833 28.1743 25.4363 28.4643C24.873 28.6843 24.0257 28.9443 22.4657 29.0157C20.7791 29.0923 20.2725 29.109 16.0006 29.109C11.7284 29.109 11.2221 29.0923 9.53547 29.0157C7.97551 28.9437 7.12887 28.683 6.56456 28.464C5.81791 28.174 5.2846 27.8273 4.72461 27.2673C4.16463 26.7073 3.81797 26.1753 3.52732 25.4283C3.30832 24.865 3.04733 24.0183 2.97633 22.4583C2.89967 20.7717 2.88433 20.265 2.88433 15.9923C2.88433 11.7197 2.89967 11.2157 2.97633 9.529C3.04766 7.969 3.30832 7.12233 3.52732 6.55833C3.81731 5.81167 4.16463 5.27833 4.72461 4.71833C5.2846 4.15833 5.81791 3.81167 6.56456 3.521C7.12854 3.301 7.97551 3.041 9.53547 2.96933C11.0114 2.90267 11.5834 2.88267 14.5653 2.87933V2.88333ZM24.541 5.54C23.481 5.54 22.6211 6.399 22.6211 7.45933C22.6211 8.51933 23.481 9.37933 24.541 9.37933C25.601 9.37933 26.461 8.51933 26.461 7.45933C26.461 6.39933 25.601 5.53933 24.541 5.53933V5.54ZM16.0006 7.78333C11.4631 7.78333 7.78419 11.4623 7.78419 16C7.78419 20.5377 11.4631 24.215 16.0006 24.215C20.5381 24.215 24.2157 20.5377 24.2157 16C24.2157 11.4623 20.5381 7.78333 16.0006 7.78333ZM16.0006 10.6667C18.9458 10.6667 21.3338 13.0543 21.3338 16C21.3338 18.9453 18.9458 21.3333 16.0006 21.3333C13.055 21.3333 10.6674 18.9453 10.6674 16C10.6674 13.0543 13.055 10.6667 16.0006 10.6667Z" fill="white"/>
</svg>
