<svg width="30" height="34" viewBox="0 0 30 34" fill="none" xmlns="http://www.w3.org/2000/svg">
<path d="M3.73593 7.27139C3.96955 7.15278 4.19698 7.02277 4.41736 6.88182C5.05821 6.46567 5.64579 5.97531 6.16742 5.42131C7.47258 3.95443 7.96004 2.46629 8.13958 1.42439L8.13237 1.42439C8.28236 0.559554 8.22034 -1.90404e-06 8.21097 -1.90486e-06L14.1556 -1.38516e-06L14.1556 22.5791C14.1556 22.8823 14.1556 23.1819 14.1686 23.478C14.1686 23.5148 14.1722 23.5488 14.1743 23.5885C14.1743 23.6047 14.1743 23.6217 14.1779 23.6387C14.1779 23.643 14.1779 23.6472 14.1779 23.6515C14.2406 24.4616 14.505 25.2442 14.9478 25.9304C15.3907 26.6166 15.9984 27.1854 16.7176 27.5868C17.4671 28.0056 18.3149 28.2254 19.1772 28.2243C21.9469 28.2243 24.1916 26.0059 24.1916 23.2662C24.1916 20.5265 21.9469 18.3081 19.1772 18.3081C18.6529 18.3076 18.1318 18.3886 17.6334 18.5482L17.6261 12.6027C19.1394 12.4107 20.6768 12.5289 22.1413 12.9497C23.6058 13.3705 24.9656 14.0849 26.1349 15.0478C27.1595 15.9223 28.0209 16.9657 28.6803 18.131C28.9313 18.556 29.8781 20.2637 29.9927 23.0353C30.0648 24.6084 29.5839 26.2382 29.3545 26.9118L29.3545 26.926C29.2103 27.3226 28.6515 28.6762 27.7408 29.8172C27.0064 30.7325 26.1387 31.5366 25.1658 32.2035L25.1658 32.1893L25.1514 32.2035C22.2735 34.1244 19.0827 33.9983 19.0827 33.9983C18.5304 33.9764 16.6801 33.9983 14.5788 33.0201C12.2483 31.9357 10.9215 30.3201 10.9215 30.3201C10.0739 29.3548 9.3999 28.2546 8.92845 27.0669C8.39052 25.6779 8.21097 24.012 8.21097 23.3462L8.21097 11.3675C8.13886 11.41 7.17838 12.034 7.17838 12.034C7.17838 12.034 5.79462 12.9052 3.6357 13.4725C2.08682 13.8763 4.50151e-06 13.9613 4.50151e-06 13.9613L5.00828e-06 8.16455C0.731181 8.24246 2.21589 8.01581 3.73593 7.27139Z" fill="white"/>
</svg>
